<?xml version="1.0" standalone="no"?>
<!DOCTYPE svg PUBLIC "-//W3C//DTD SVG 1.1//EN" "http://www.w3.org/Graphics/SVG/1.1/DTD/svg11.dtd" >
<svg>
<metadata>
Created by FontForge 20120731 at Sun Aug 16 23:39:28 2020
 By www
(c) 2005-2010 http://www.vhao.net/  mailto:biz@vhao.net VHAO inc. use this if you like
</metadata>
<defs>
<font id="t.vhao.net-049-R" horiz-adv-x="422" >
  <font-face 
    font-family="t.vhao.net 049"
    font-weight="400"
    font-stretch="normal"
    units-per-em="1000"
    panose-1="0 0 4 0 0 0 0 0 0 0"
    ascent="800"
    descent="-200"
    x-height="798"
    cap-height="803"
    bbox="-352 -219 1010 963"
    underline-thickness="20"
    underline-position="-123"
    unicode-range="U+0020-F000"
  />
<missing-glyph horiz-adv-x="500" 
d="M63 0v963h375v-963h-375zM125 63h250v838h-250v-838z" />
    <glyph glyph-name=".notdef" horiz-adv-x="500" 
d="M63 0v963h375v-963h-375zM125 63h250v838h-250v-838z" />
    <glyph glyph-name=".null" horiz-adv-x="0" 
 />
    <glyph glyph-name="nonmarkingreturn" 
 />
    <glyph glyph-name="space" unicode=" " 
 />
    <glyph glyph-name="exclam" unicode="!" horiz-adv-x="325" 
d="M87 532q0 -20 -44 -39q-26 15 -26 38q0 12 5 36l21 99q12 -7 29 -62q15 -51 15 -72zM285 748q0 -120 1 -59q-1 -36 -15 -36q-4 -19 8 -54q13 -38 13 -53q0 -13 -12 -36.5t-12 -36.5q0 -11 1 -33t1 -33q0 -43 -10 -71l-11 -9q24 -17 24 -39q0 -12 -10.5 -33.5t-10.5 -33.5
q0 -15 6 -37q-41 -15 -69 -15q-39 0 -63 20q-27 22 -27 60q0 18 17 29q0 44 -11 131t-11 131q0 32 -17 92.5t-17 92.5q0 9 -8.5 27.5t-8.5 26.5q0 6 2 11q17 0 52 3t52 3q24 0 63 12.5t48 12.5q25 0 25 -73zM251 106q0 -38 -67 -74q-52 -28 -97 -37l10 24q-14 13 -30.5 49
t-16.5 55t47 23q-9 -1 64 -1q9 0 27 1.5t27 1.5q36 0 36 -42zM132 -106h-14l7 2q-15 -8 -46 -14q-11 15 -11 27q0 17 14 37q0 11 19 20q11 0 22 -31q9 -27 9 -41zM305 42q0 -30 -25 -41q-26 15 -26 39q0 5 5 35l29 25q17 -10 17 -58z" />
    <glyph glyph-name="quotedbl" unicode="&#x22;" horiz-adv-x="358" 
d="M342 697q0 -46 -30 -107q-33 -67 -72 -78q-8 10 -8 20q0 19 12.5 55.5t12.5 55.5l-1 7q-2 4 -24 49q-15 31 -35 42q0 21 25.5 41.5t46.5 20.5q73 0 73 -106zM161 719q0 -50 -32 -119q-35 -76 -72 -84q-8 9 -8 20q0 27 25 119q-9 37 -29 58q-10 10 -29 30q0 21 31 40
q27 18 50 18q39 0 53 -22q11 -17 11 -60z" />
    <glyph glyph-name="numbersign" unicode="#" horiz-adv-x="496" 
d="M454 499l-12 -72h-79l-3 -98h80l-18 -82h-79l-30 -148h-95l29 148h-31l-28 -148h-97l30 148h-79l17 82h80l2 98h-79l12 72h79l28 154h96l-29 -154h31l29 154h95l-28 -154h79zM267 427h-30l-3 -98h30z" />
    <glyph glyph-name="dollar" unicode="$" horiz-adv-x="604" 
d="M518 489q0 -16 -29 -34q-36 23 -46 56l13 27l-1 9q0 -3 8 45q24 -14 39.5 -44t15.5 -59zM591 274q-24 -39 -24 -63q0 -22 10 -63.5t10 -63.5q0 -29 -59 -33l43 -62l-47 -23l-25 38l20 46h-18q-21 -17 -67 -45q-25 -12 -74 -20q-38 -7 -77 -13v-8q0 -98 -17 -111
q-24 16 -48 96l11 6l4 10q-20 2 -42 8q-13 18 -41 53h-18q19 -14 19 -30q0 -70 -18 -81q-36 23 -47 60l11 6q10 13 23 46q-89 10 -89 107q13 48 13 70q0 7 -14 22q19 3 36 3q21 0 61 -12.5t65 -10.5q-5 -38 -5 -56q0 -29 43 -28l31 1q-18 66 -18 140q0 29 5 99q7 -5 21 -10
q5 12 8 27q-9 8 -20 12l-14 -6q-19 1 -35 12l-14 -1q-38 -3 -60 21q-31 34 -44 41q-3 8 -9 60q-3 27 -35 38q-4 9 -4 22q0 15 6.5 42.5t7.5 39.5q42 57 83 115q35 36 110 35l-21 99l30 35q2 2 17 7q12 5 12 12q14 -9 21 -72q2 -16 10 -83q110 -10 122 -10q34 -24 39 -27
q23 -17 34 -33q-2 -13 -7 -22l20 -76q-23 -27 -62 -35l-70 -8l10 25q0 32 -72 64l-20 -2q18 -37 20 -106q0 -1 2 -105q33 -24 85 -48l88 -41q6 -13 13 -23q15 -8 45 -31zM269 502q-8 28 -8 86q0 85 7 100l-2 1l-15 1q-28 2 -28 -57q0 -48 7 -73q10 -35 39 -58zM433 183
q0 18 -19 44l18 5l-7 17q-11 -1 -28 -9q-60 78 -98 117l9 -164q0 -38 -4 -69h95q23 0 30 17q4 10 4 42z" />
    <glyph glyph-name="percent" unicode="%" horiz-adv-x="629" 
d="M122 34q-1 22 18 67q10 15 29 53q3 15 11 49q1 18 13 57q11 8 30 32q8 13 5 40q-1 11 -1 19q0 12 1.5 18t17.5 37q3 6 25 38q14 20 16 40q1 9 -4.5 27t-4.5 27q2 16 18 38q20 26 24 36q14 37 17 126q-1 6 -1 15q0 10 1 22q5 11 46 21q4 1 21 8q13 5 20 5q10 0 17 -8
q2 -8 10 -21q3 -3 7 -3t12 3.5t12 3.5q11 0 11 -12q0 -5 -5.5 -16.5t-6.5 -16.5q-5 -30 -12 -85q-7 -58 -18 -82q-6 -12 -33 -75q-13 -30 -27 -60q-14 -21 -38 -70q-5 -14 -11 -35q-2 -8 0 -27q4 -34 -27 -45q-27 -10 -27 -30q0 -6 5.5 -22t3.5 -26q-9 -16 -20 -52
q2 -18 -4 -54q-1 -3 -14 -30q-3 -12 -15 -25t-23 -15q-6 -1 -16.5 1.5t-14.5 2.5q-5 0 -14 -3.5t-13 -3.5t-8 19q-2 3 -4 3q-3 0 -11 -7t-12 -7q-5 0 -6 23zM246 636q0 -6 -11 -18q-1 -8 0 -21q1 -14 1 -20q0 -30 -16 -45l-5 2l1 -4q-67 -51 -87 -51t-36 10q-22 14 -31 16
q-3 0 -8.5 8t-8.5 8q-17 0 -28 9v5q0 13 3 38t3 38q0 4 5 20t5 23t-4 8q-5 23 -5 32q0 36 16 53q30 31 42 39q22 14 55 14q54 0 72 -36q30 -22 30 -34q0 -4 -1 -7q5 -6 5 -12q0 -3 -3 -8t-3 -7q0 -10 4.5 -30t4.5 -30zM247 497q0 -11 -11 -13q-10 4 -10 29q0 24 8 31
q4 -5 7 -23.5t6 -23.5zM191 620q0 7 -6 21l-3 58q-4 0 -12 -1h-11q-3 0 -5 10q-3 14 -13 23q-1 -3 -1 -31q-13 -2 -16 -2q-19 0 -19 17q0 7 6 22h-7q-31 -13 -31 -49q0 -14 6 -29q-8 -6 -15 -10q-1 -5 -1 -13l3 -2q-1 -13 -1 -21q0 -36 41 -67q30 -5 36 -5q49 0 49 79z
M125 647v-12q0 -14 -6 -15q-15 7 -15 17q0 32 13 43q4 -5 4.5 -17t3.5 -16zM356 228q2 5 16 13l15 42q9 25 29 33l4 -3v4q12 2 31.5 29t30.5 27q18 0 48 -36q38 -46 43 -50q3 -9 11 -20q15 -6 23 -18l-2 -5q-9 -19 -31 -69q-1 -4 -13.5 -20t-12.5 -22q0 -3 2 -4
q-6 -59 -39 -76q-50 -25 -71 -25q-16 0 -38 8q-51 18 -56 58q-17 26 -17 37q0 7 5 12q-3 7 -1 12q4 4 11 13q2 21 12 60zM504 149q11 3 18 4q3 4 6 11l-3 3q13 29 13 45q0 21 -20 51q-36 22 -50 22q-25 0 -42 -28.5t-15 -54.5l-17 -56q7 -2 22 -7q3 -1 3 -4t-1.5 -7.5
t-1.5 -6.5q0 -9 6 -19q-2 -2 -2 -6q0 -10 12 -19t22 -9q12 0 17 12q1 1 18 34q15 28 15 35zM209 322v-12q0 -14 -6 -15q-15 7 -15 17q0 32 14 43q1 -12 7 -33zM322 59v-12q0 -14 -6 -15q-15 7 -15 17q0 32 14 43q4 -5 4 -17t3 -16zM596 16q0 -29 -13 -37q-36 23 -45 56
l12 27v9q0 8 11 30t12 29q19 -12 22 -50q1 -3 1 -64z" />
    <glyph glyph-name="ampersand" unicode="&#x26;" horiz-adv-x="544" 
d="M517 467q-11 -76 -49 -114q-5 -5 -11.5 -61t-21.5 -67q-2 -2 2 -23q5 -28 5 -49q0 -12 -1 -22q-2 -6 58.5 -64.5t57.5 -66.5q-7 -20 -59 -31q-33 17 -94 43q-17 7 -37 38q-10 14 -14 13q-9 -3 -66 -32q-43 -22 -58 -18q-32 -24 -77 -24q-30 0 -64 11q-25 44 -40 98
q-42 149 -42 186q0 26 26 110q19 61 102 100q2 1 2 4q0 6 -14.5 23.5t-18.5 19t-41 57.5q-33 51 -30 59q1 4 -1.5 20.5t-2.5 20.5q0 21 11 41q16 39 116 75q30 11 36 11q17 0 27 -19q5 6 17 6q13 0 33 -9t20 -21q0 -2 -1 -5.5t-1 -5.5q0 -9 22 -21q2 -2 34 -5q44 -5 44 -48
q0 -22 -28 -61q-34 -48 -41 -69q9 -8 16 -24q-3 -23 -33.5 -34.5t-32.5 -21.5q-4 -17 14 -39q4 -6 35 -35q10 -32 16 -51q16 -49 26 -49q4 0 7 6q11 21 27 69q21 61 18 84q11 26 50 26q19 0 37.5 -15.5t19.5 -15.5zM218 720q-60 2 -76 -59q-2 -6 0.5 -16t9.5 -8q3 1 8 -16.5
t10 -22t13 -20t17 -19.5q11 -5 42 40q22 31 34 55q11 5 11 14q0 15 -26.5 33t-42.5 19zM304 203q0 21 -24 77q-27 63 -52 55q-6 -2 -10 16.5t-11 16.5q-3 1 -12 20.5t-13 19.5q-3 0 -4 -2q-1 1 -3 1q-8 0 -28 -17t-23 -25q-22 -58 -22 -87q0 -30 13 -55q7 -13 16 -46
q13 -45 49 -45q43 0 62 15q62 3 62 56zM550 160q0 -16 -29 -34q-36 22 -46 56l13 27l-16 12q-2 2 -2 5t12.5 17t12.5 20q24 -14 39.5 -44t15.5 -59zM264 197q0 -16 -29 -34q-36 23 -46 56l41 20l9 27q1 3 3 31q19 -12 22 -43v-57zM57 0q0 -34 -12 -42q-6 2 -12 11
q-1 5 -3 13l9 42l-12 25q-11 23 -9 51q39 -25 39 -100z" />
    <glyph glyph-name="quotesingle" unicode="'" horiz-adv-x="199" 
d="M180 706q0 -45 -39 -112q-41 -71 -81 -79q-7 9 -7 20q0 27 24 119q-8 38 -27 57q-29 29 -30 31q0 23 46 43q38 17 64 17q34 0 44 -25q6 -15 6 -71z" />
    <glyph glyph-name="parenleft" unicode="(" horiz-adv-x="339" 
d="M176 828q-18 2 -20 -23t-5 -50q-7 -42 -34 -110q-6 -16 -31 -44.5t-33 -44.5q-29 -62 -29 -115q0 -71 42 -154q9 -12 25 -42q8 -19 9 -44l2 -45q-1 -20 7 -63q7 -19 26 -34q24 -20 30.5 -28t18.5 -34q8 -18 22 -24q10 -4 19 -4q16 0 36 13q16 14 33 28q16 11 17 12
q10 8 11 17q2 13 -21 16q-28 4 -36 12q-10 12 -11 35.5t-8 37.5t-31.5 35.5t-31.5 37.5q-4 10 -4 24q0 4 4 34q5 37 -21 68q-15 17 -20 30q-14 37 -14 71q0 37 15 84t37 73q8 9 28.5 22t28.5 22q14 17 18 60q3 39 23 52q6 4 30 5q20 1 24 11q2 3 2 6q0 14 -65 26q-9 3 -31 3
t-33 5q-7 9 -29 19z" />
    <glyph glyph-name="parenright" unicode=")" horiz-adv-x="345" 
d="M172 828q18 2 20 -23t5 -50q7 -42 34 -110q6 -16 31 -44.5t33 -44.5q29 -62 29 -115q0 -71 -42 -154q-9 -12 -25 -42q-8 -19 -9 -44l-2 -45q1 -20 -7 -63q-7 -19 -26 -34q-24 -20 -30.5 -28t-18.5 -34q-8 -18 -22 -24q-10 -4 -19 -4q-16 0 -36 13q-16 14 -33 28
q-16 11 -17 12q-10 8 -11 17q-2 13 21 16q28 4 36 12q10 12 11 35.5t8 37.5t31.5 35.5t31.5 37.5q4 10 4 24q0 4 -4 34q-5 37 22 68q14 17 19 30q14 37 14 71q0 37 -15 84t-37 73q-8 9 -28.5 22t-28.5 22q-14 17 -18 60q-3 39 -23 52q-6 4 -30 5q-20 1 -24 11q-2 3 -2 6
q0 14 65 26q9 3 31 3t33 5q7 9 29 19z" />
    <glyph glyph-name="asterisk" unicode="*" horiz-adv-x="330" 
d="M299 557l-69 -13l62 -84l-88 -70l-38 82l-39 -81l-89 69l63 84l-70 13l26 123l66 -34l-20 96h123l-20 -95l67 33z" />
    <glyph glyph-name="plus" unicode="+" horiz-adv-x="455" 
d="M428 299h-149v-174h-103v174h-149v132h149v174h103v-174h149v-132z" />
    <glyph glyph-name="comma" unicode="," horiz-adv-x="271" 
d="M248 67q0 -42 -69.5 -108.5t-114.5 -78.5q-8 10 -8 21q0 24 26 118q-12 18 -59 90q1 19 51 29q37 7 70 7q104 0 104 -78z" />
    <glyph glyph-name="hyphen" unicode="-" horiz-adv-x="282" 
d="M249 288h-216v141h216v-141z" />
    <glyph glyph-name="hyphen" unicode="&#x2010;" horiz-adv-x="282" 
d="M249 288h-216v141h216v-141z" />
    <glyph glyph-name="period" unicode="." horiz-adv-x="218" 
d="M192 85q0 -72 -70 -85l-58 30q-37 35 -37 79q0 41 35 66q32 22 75 21q34 -1 46 -34q9 -24 9 -77z" />
    <glyph glyph-name="slash" unicode="/" horiz-adv-x="417" 
d="M23 34q-1 22 17 67q11 15 29 53q4 15 12 49q1 19 13 57q11 8 30 32q8 13 5 40q-1 10 -1 18q0 12 3 19q5 13 16 37l18 39q9 19 13 39q-2 17 1 54q3 16 20.5 39t21.5 35q14 38 17 126q-1 6 -1 15q0 10 1 22q5 12 25 17q15 2 31 5q4 1 18 6q11 4 17 4q7 0 13 -5q1 -8 10 -22
q3 -2 7 -2t12 3.5t12 3.5q11 0 11 -13q0 -5 -7 -19q-4 -8 -5 -14q-4 -20 -12 -84q-6 -48 -18 -83q-13 -22 -33 -75q-1 -26 -8 -60q-3 -13 -18 -36t-18 -33q-6 -15 -12 -36q-2 -8 0 -27q4 -34 -27.5 -45.5t-27.5 -49.5q2 -18 -1 -28q-8 -15 -19 -51q2 -19 -4 -55
q-2 -10 -14 -30q-15 -32 -38 -40q-7 -2 -20 1q-16 3 -21 3t-14 -3.5t-13 -3.5t-8 19q-2 3 -4 3q-3 0 -11 -7t-12 -7q-5 0 -6 23z" />
    <glyph glyph-name="zero" unicode="0" horiz-adv-x="563" 
d="M549 391q0 -14 -27 -45q-1 -23 0 -50l2 -51q0 -74 -40 -113l-13 4l4 -9q-4 -3 -94 -78q-58 -49 -104 -49q-50 0 -79 24q-38 32 -68 41q-6 0 -21.5 20t-20.5 20q-42 0 -70 21v14q0 40 7 95q7 63 7 93q0 11 13 51.5t13 58.5q0 17 -11 19q-13 56 -13 80q0 88 40 132
q4 5 85 97q40 36 118 36q135 0 181 -89q75 -55 75 -87q0 -9 -4 -17q12 -14 12 -29q0 -7 -7 -19.5t-7 -19.5q0 -25 11 -75t11 -75zM552 44q1 -27 -28 -33q-24 12 -24 74q0 60 20 76q10 -12 17 -58t15 -59zM413 351q0 19 -16 53l-7 146q-10 0 -29.5 -2t-29.5 -2t-12 12v20
q0 22 -31 51q-2 -7 -3 -77q-4 0 -9.5 -2t-10.5 -2q-19 0 -25 12q-3 8 -3 30q0 18 16 55h-18q-77 -32 -77 -123q0 -34 15 -72q-22 -17 -38 -26q-3 -13 -3 -31l9 -5q-3 -34 -3 -54q0 -56 28 -96q22 -31 73 -70q9 -1 25 -8q13 -6 26 -6q123 0 123 197zM266 420l1 -30
q0 -4 5 -15.5t5 -15.5q0 -6 -5 -7q-38 18 -38 43q0 19 11.5 58.5t22.5 48.5q6 -6 6 -16q0 -8 -6 -25.5t-6 -25.5q0 -9 4 -15z" />
    <glyph glyph-name="one" unicode="1" horiz-adv-x="354" 
d="M347 353q0 -11 -29 -55q-8 5 -8 15q0 8 4.5 23.5t4.5 23.5q0 12 -14.5 31t-13.5 31q56 -49 56 -69zM339 67q-14 -26 -34 -78q-14 -3 -29 -3q-35 0 -84 27.5t-63 28.5q-36 -27 -58 -37q-17 111 -17 159q0 17 29.5 25t29.5 9q2 17 1 40l-2 40q0 58 2.5 173t2.5 173
q0 20 -12 23l-17 -9q2 -6 13.5 -21t11.5 -24q0 -20 -42 -39q-16 2 -38 41l-3 13q0 14 11 37.5t13 32.5q4 17 78.5 45t74.5 46q28 0 52.5 15.5t50.5 15.5l5 -112q0 -20 -6 -73q-34 -26 -34 -112q0 -13 6 -34q7 -26 9 -33q16 -59 16 -185q0 -11 -8 -33.5t-8 -33.5l34 -8
q4 -14 15 -109zM79 313q0 -19 -4 -25t-21 -15q-32 17 -44 43l9 4q12 20 32 62q28 -20 28 -69zM170 -72q-30 -2 -53 -8q-12 12 -30 39q8 13 18 25l-6 13q0 10 17 26q24 0 54 -9v-86zM320 557l-13 4l-10 -49l13 -4z" />
    <glyph glyph-name="two" unicode="2" horiz-adv-x="553" 
d="M500 344q-7 4 -29 4q-17 0 -22 17q14 27 14 39q0 18 12.5 51t13.5 49q30 -17 30 -47q0 -102 -19 -113zM253 534q-43 25 -55 61q17 35 22 89q45 -26 45 -87q0 -56 -12 -63zM519 -38q-2 1 -25 8q-10 3 -15 20q1 2 14 36q6 15 24 31q23 22 24 31q14 -8 14 -19q0 -5 -7 -22.5
t-7 -28.5q0 -43 -22 -56zM251 789zM78 699zM188 196q21 30 146 155q56 13 76 36q8 10 15.5 44t25.5 50l59 66q0 14 12 38t12 37q0 -14 2 40q1 31 -2 39q-14 6 -35.5 22.5t-35.5 22.5l-64 27q-18 27 -66 27q-16 0 -48.5 -2.5t-48.5 -2.5q-46 0 -50 10l-32 -25q-2 2 -6 2
q-16 0 -37 -29l-37 -51q-12 -32 -29 -34q0 -11 -14.5 -31t-14.5 -31q0 -57 65 -57q36 0 75 19q46 22 46 53q0 10 -6.5 30.5t-6.5 30.5q0 23 19 23q32 0 93 -26q65 -28 77 -52q-13 -47 -38 -75q-14 -17 -53 -44q-42 -30 -68 -57q-93 -95 -111 -102q-7 -12 -24 -26
q-22 -17 -27 -23q-14 -9 -24 -44q-8 -28 -8 -51q0 -13 -7 -37t-7 -35q0 -9 2 -17q-6 -10 -6 -34q0 -14 3 -41t3 -41h98q8 0 36 3q17 2 37 -3q6 6 21 6q18 0 53.5 -10t52.5 -10q46 0 56 -3q37 17 66 17q4 0 18.5 11.5t18.5 12.5l44 69q-4 13 -10 40l3 40q-1 16 -15 16
q-9 0 -31.5 -6.5t-33.5 -6.5q-24 0 -65 -12t-64 -12q-28 0 -67 11q-48 14 -48 32z" />
    <glyph glyph-name="three" unicode="3" horiz-adv-x="550" 
d="M503 459q0 -16 -21 -28q-25 13 -31 28q-3 22 -12 64l12 6q2 11 6 48q30 -16 36 -34q1 -5 1 -45q0 -7 4.5 -19.5t4.5 -19.5zM289 566q-15 -9 -25 -9q-24 0 -22 34q-2 4 -2 11q0 18 12 57q17 -11 33 -21q15 -13 15 -36q-2 -6 -11 -36zM522 206l2 -1q-7 -53 -34 -74
q-15 -12 -54 -16q-15 -2 -45 -12q-22 -15 -30 -60q-23 -46 -137 -46q-17 0 -25 2q-106 5 -148 70q-9 48 -37 92q-9 15 -10 32t5 72q8 0 25 -3.5t25 -3.5t21 6t27 4q23 -3 31 0q6 -26 17 -80q0 -7 1 -19q21 -35 53 -35q27 0 67 23.5t41 24.5q20 15 28 39q2 5 11 53
q4 21 11 30q2 2 -7 10l-7 6q-20 17 -35 36q-5 23 -7 29q-6 14 -19 22q-7 -1 -40 -4q-12 -1 -10 -8q-9 -2 -16 -2q-28 0 -28 31q0 8 1 16t-1 21q-2 17 -2 22q0 16 8 26q8 7 13 7q4 0 8 -2.5t6 -2.5q-2 0 41 7q4 0 3 12q49 43 49 89q0 39 -42 45q-12 2 -72.5 -3t-64.5 -9
l-21 -21q-11 -11 -17 -27q-3 -8 -9 -23q-10 -3 -22 -3q-27 0 -46 10q-23 13 -18 39q-1 10 -1 20q0 65 57 115q7 6 19 20q12 -5 23 -3q51 16 67 16q9 0 15 -3q16 0 114 -14l77 -11q30 -4 49 -3q0 -15 4 -21l16 -14q28 -25 37 -69q-4 -52 -24 -93q-16 -32 -54 -81
q-10 -8 -10 -22q0 -18 16 -18q20 0 28 -18q35 -21 74 -52q8 -23 12 -73.5t13 -74.5q2 -3 -11 -11t-11 -11zM316 311l-6 -17l-14 2q-4 0 -12 -3t-12 -3q-19 0 -29 22l14 25l-1 6q0 12 5 28q4 11 9 40q47 -32 47 -92q0 -4 -1 -8zM412 -16q-21 11 -28 24q-4 8 -7 33
q-1 11 -6 24l13 6q1 11 5 48q64 -34 64 -62q0 -51 -41 -73zM53 -30l-11 17l-2 10q0 12 6 29q2 8 8 40q48 -32 48 -93q-1 -4 -8 -24l-14 1q-3 0 -11 -2.5t-12 -2.5q-13 0 -13 9t9 16z" />
    <glyph glyph-name="four" unicode="4" horiz-adv-x="543" 
d="M472 575q-8 -24 1 -36q-23 -11 -30 -11q-13 0 -13 17q0 -4 6 35q1 9 -2 13q1 4 1 25q-1 88 14 101q35 -77 35 -104q0 -5 -12 -40zM477 481q27 18 45 18t18 -20q0 -18 -3 -61q-1 -18 -10 -39q-3 -2 -6 -1q-17 -23 -17 -35t23 -37l-9 1q3 -1 3 -3q0 -1 -1 -2q-35 -4 -89 -7
q3 -46 -4 -105q-6 -45 -12 -103q-2 -46 6 -85q-23 -8 -40 -8q-22 0 -52 17q-14 8 -22 8q-16 0 -43 -26q-4 45 6 169q6 73 -17 131q-16 -6 -47 -9t-47 -5l-26 3q-26 2 -40 2q-20 0 -19 -5q-72 -5 -69 12q-2 24 -2 45q0 51 12 88q51 93 50 138q0 34 30 77q38 54 45 74
q9 28 46 43q25 10 25 44q60 -8 93 -8q38 0 55 9q2 1 46 5q31 3 40 42q7 -51 -1 -69q-1 -3 -15 -26q-11 -17 -11 -26q0 -14 12 -31q1 -3 -2 -45q-2 -24 -2 -27q0 -4 1 -6q5 -3 4 -29q-2 -74 -11 -119q6 -2 28 4.5t29 6.5zM487 20q-1 -2 -4 -10l-11 1q-24 -6 -25 -6
q-17 0 -25 17l14 25l-1 6q0 12 -6.5 38t-4.5 42q25 -15 45 -45.5t20 -58.5q0 -3 -2 -9zM231 158q-18 9 -25 22q-4 8 -6 30q-2 10 -6 21l12 5q2 12 6 44q34 -17 34 -55q0 -6 1.5 -17.5t1.5 -17.5q0 -23 -18 -32zM231 1q-19 10 -19 21q0 -4 11 30q2 7 -2 19l12 5q-3 24 -3 72
q19 -9 19 -37q0 -7 -1.5 -21t-1.5 -21q0 -6 1.5 -18t1.5 -18q0 -22 -18 -32zM281 676q-13 -15 -38 -48l-49 -67q2 -17 -17 -43q-5 -7 -2 -11q12 -17 12 -39q0 -15 13 -26q10 -7 45 -7q30 0 69 5q1 4 1 12q0 17 -10 69q-14 72 -8 92q-10 28 -16 63zM270 440q-18 9 -18 21
q0 -2 10 29q3 9 -1 19l12 5q-3 24 -3 73q39 -19 39 -79q0 -48 -39 -68z" />
    <glyph glyph-name="five" unicode="5" horiz-adv-x="575" 
d="M173 581q-18 10 -18 21q0 -3 10 30q2 7 -1 19l11 5q1 6 7 10l1 2q3 2 3 13q25 -14 24 -20q-4 -37 -7 -45q-7 -23 -30 -35zM474 487q8 -3 34 -55l30 -62q4 -5 7 -5q5 0 9 7q14 -21 14 -47q0 -27 -13 -60l-24 -57q-11 -90 -51 -103q-43 0 -75 -19q-24 -14 -59 -52
q-11 -12 -15 -14q-22 -12 -91 -12q-47 0 -93 8q-66 10 -82 32q8 68 -55 159q-7 10 -7 28q0 37 77 32q31 -2 50 8q7 3 17.5 -8t12.5 -19t-4 -46q-4 -24 12 -32q58 -30 86 -24q12 3 22 10t21 14q22 12 59 62.5t38 73.5l3 51q-2 17 -26 51q-6 8 -51 13q-44 4 -48 0
q-18 -21 -24 -25q-13 -11 -31 -12q-75 -6 -193 58q14 5 14 35q0 7 -4 64q-2 32 7 59q8 23 1 62q3 2 6 3q-1 6 -1.5 11.5t-12.5 80.5q-3 16 2 17q12 26 38.5 27.5t36.5 12.5q7 8 19 8t38 -9q30 -11 39 -13q18 -4 60 -2q39 2 60 -4q10 -3 24 -23q12 7 62 13q30 4 36 6
q17 6 21 20q41 -66 41 -109q0 -39 -27 -47q-11 -3 -64 -2q-89 2 -112 -5q-10 -3 -20 -3q-21 0 -58.5 20.5t-52.5 20.5q-32 0 -44 -29q-7 -15 -5 -18q12 -11 18 -38.5t13 -30.5q1 0 30 -6q70 -14 96 -11q9 1 10 6q1 6 -4 25q19 -23 36 -24q29 -2 58 -5q42 -5 50 -15
q7 -2 38 -50zM345 257q-18 9 -18 21q0 -2 10 29q2 9 -1 19l11 5q-3 24 -3 73q37 -19 37 -79q0 -49 -36 -68zM538 -15q-12 6 -16 9q-8 6 -10 13q0 2 -1 10q11 4 19 15l7 54q-5 11 -4 31q3 4 4 15q37 -19 37 -79q0 -48 -36 -68zM481 0q0 -13 -17 -22q-19 10 -25 25
q-3 6 -10 35l11 4q-1 4 -7 21q-5 12 -4 23q45 -23 45 -50q0 -6 3.5 -18t3.5 -18zM13 15q-4 16 -11 43l12 4q-3 41 -3 102q18 -9 29 -50q8 -31 8 -58q0 -8 5 -25.5t5 -26.5q0 -18 -15 -26q-24 12 -30 37z" />
    <glyph glyph-name="six" unicode="6" horiz-adv-x="549" 
d="M213 541h-24q-15 0 -15 17q-1 22 -3 27q3 18 15 46.5t23 38.5q9 -21 9 -26q0 -2 -2.5 -13t-2.5 -18q0 -30 -1 -23q1 -12 11 -24q-2 -1 -10 -25zM436 616q-44 11 -92 50q-7 6 -42 15q-6 2 -42 24q-5 3 -13 3q-19 0 -38 -25q-13 -20 -26 -41q-23 -34 -30 -75q-1 -8 24 -46
q4 -6 28 -6q50 0 125 17q13 3 28.5 -13.5t23.5 -15.5q37 4 48 -7q2 -2 6 -14l1 -2q13 6 28 6q48 0 51 -35q2 -29 5 -55q2 -9 15 -22q9 -9 4 -44q-3 -24 -16.5 -86.5t-13.5 -83.5q0 -16 7 -19q-35 -83 -87 -100q-7 -2 -43 -10q-24 -5 -42 -16q-38 18 -233 55l-70 146
q-36 77 -36 147q0 31 3 48q12 67 23 174q10 -1 24 65q4 19 7 29q6 20 12 24l7 21q6 5 15 25q18 40 79 56q27 7 102 15q16 -13 43.5 -18t44.5 -8.5t52 -12.5q28 -8 29 -25q0 -8 27.5 -34.5t32.5 -24.5q2 -2 2 -6q0 -17 -27 -43t-46 -32zM527 -19q-9 -3 -17 -8q-17 9 -17 20
q0 6 4 12l4 6q4 7 4 15q0 5 -2 10l11 5q2 12 6 43q30 -16 30 -74q0 -20 -23 -29zM203 -65l-11 1q-4 0 -12 -3t-12 -3q-16 0 -24 17l14 25l-1 7q0 11 5 27q4 12 8 33q38 -26 38 -85q0 1 -5 -19zM39 1q-18 10 -24 23q-3 17 -11 51l12 5q9 17 18 33q11 21 12 35q30 -16 30 -79
q0 -48 -37 -68zM375 387q-12 48 -35 69q-17 -1 -117 1q-20 0 -32 -29q-4 -9 -14 -17.5t-10 -10.5q-3 -19 -13 -35q0 -11 -12 -34q19 -17 28 -53q9 -43 18 -56q2 -2 51.5 -9t61.5 -23q4 -5 38 -5q35 0 36 7q4 42 6 50q6 24 27 41q2 2 2 6q0 20 -14 49q-18 37 -21 49zM216 253
q-24 0 -30 20q-3 11 -7 17l1 7q4 25 10 52q10 47 23 60q18 -40 18 -81q0 -2 -6 -58q-2 -17 -9 -17z" />
    <glyph glyph-name="seven" unicode="7" horiz-adv-x="554" 
d="M487 569l34 147l19 -169q-20 -10 -35 -10q-20 0 -20 19q0 4 2 13zM176 496q-18 10 -24 23q-3 17 -11 51l11 5q2 12 6 44q20 -11 25 -29q1 -6 1 -37q0 -6 3.5 -18t3.5 -18q0 -12 -15 -21zM503 700q-1 -6 -4 -47q-2 -33 -9 -42q-12 -16 -22.5 -76.5t-37.5 -91.5q-3 3 -5 -3
q-7 -17 -24 -63q-4 -10 -20 -28.5t-22 -31.5q-19 -43 -20 -55q-2 -37 -45 -106q-23 -37 -24 -81q-1 -36 -40 -75q-13 0 -28 9l-5 3q-3 2 -5 2q-22 -11 -36 -11q-11 0 -22 8l-4 3q-5 5 -10 5q-13 0 -51 -29q39 95 51 133q21 65 30 140q2 18 62 91q15 18 30 54q11 30 22 59
q3 8 9 13q-4 15 -4 29q0 36 22 71q5 10 46 65q1 1 1 3q0 4 -30 10q-23 5 -47 10q-12 -5 -58 -20q-39 -13 -50 -25q-30 -35 -59 -35q5 0 -39 8l-11 2q-35 6 -35 30q0 5 2 19q2 13 -3 85q-3 51 16 73q13 2 57.5 -11t59.5 -13q5 0 24 4q53 11 73 11t29 -10q13 -14 57 -4
q71 16 81 16q26 0 35 -16q22 5 81 9q26 3 80 7l34 2q-42 -11 -79 -35q-46 -30 -53 -65zM395 211q-18 9 -23 22q-2 18 -11 52l27 24q9 20 20 59q24 -13 24 -89q0 -49 -37 -68zM313 -14q-18 9 -23 22q-3 18 -11 51l11 5q2 12 5 44q39 -21 39 -88q0 -24 -21 -34z" />
    <glyph glyph-name="eight" unicode="8" horiz-adv-x="540" 
d="M454 408q-18 9 -24 23q-2 17 -11 51l11 5q2 12 6 43q54 -28 54 -54q0 -49 -36 -68zM428 646q4 -30 21 -37q-22 -29 -22 -40q1 -8 1 -5q0 -13 -11 -34q-3 -7 -19 -22t-24 -20q3 -8 23 -32q17 -21 17 -33q0 -3 -1 -6q-3 -8 34 -44l25 -25q18 -19 18 -29q1 -28 23 -88
q7 -19 7 -31q0 -24 -16 -56q-2 -25 -24 -65q-32 -57 -83 -80q-11 2 -22 2q-23 0 -73.5 -15t-79.5 -12q-35 4 -77 19q-56 20 -82 47q-6 16 -26.5 38.5t-22.5 27.5q-14 34 -13 68q0 15 1 40q1 20 1 27q0 11 4.5 36t3.5 39t29 38q25 20 37 23q49 13 58 43q6 20 -28 44.5
t-55 20.5q2 23 -3 26q-12 6 -14 24q0 3 15 70q13 59 10 62q-3 5 -3 11q0 16 29 41q35 30 38 38q10 18 75 31q12 3 44 9q24 4 50 17q21 -30 26 -30q19 -1 39 -13q49 -30 70 -52q2 -1 2 -19q0 -19 -2 -54zM521 -6q0 -12 -16 -21q-17 9 -23 22q-2 17 -11 52l11 5q2 12 6 43
q50 -26 50 -58q0 -8 -8.5 -23t-8.5 -20zM51 -65q-18 9 -24 22q-3 17 -11 51l11 5q2 12 6 44q38 -21 38 -88q0 -24 -20 -34zM244 663l-9 -2q-6 10 -15 21l-36 -17q-11 -5 -29 -27.5t-20 -34.5q-6 -38 34 -67q4 -3 74 -39q2 -2 5 -2q24 0 55 29.5t30 53.5q-3 46 -25 61
q-4 3 -64 23v1zM342 265q-3 24 -18 54q-16 34 -34 43q-13 7 -39 7q-23 0 -23 -12q0 -34 -21 -34q-4 0 -9 1q-31 6 -44 -6q-4 0 -9 -33t-6 -34q-6 -2 -6 -20q0 -12 3 -43q3 -36 6 -37q16 -16 59 -23q55 -9 65 -14q5 13 27 16h35q23 0 25 8q3 11 -11 127zM155 591l13 59
l42 -80q-21 -11 -37 -11q-19 0 -19 20q0 7 1 12zM194 198q-18 10 -24 23q-3 7 -5 30q-2 10 -5 21l11 5q2 12 5 44q21 -11 25 -29q2 -6 2 -36q0 -6 3.5 -18.5t3.5 -18.5q0 -12 -16 -21z" />
    <glyph glyph-name="nine" unicode="9" horiz-adv-x="496" 
d="M16 105l-4 -1q-2 3 -2 8q0 17 24 44t42 34q45 -7 96 -41q6 -5 47 -13.5t54 -15.5q5 -3 11 -3q10 0 23 30l16 40q15 32 20 85q1 11 -18 35q-6 7 -22 7q-17 0 -50 -7t-50 -7q-22 0 -32 9q-2 0 -5 1q-76 11 -82 13q-53 12 -63 36q-1 38 -7 80q-9 4 -7 42q2 31 6 75
q2 18 19.5 50t17.5 31q0 3 -3 4q27 86 78 108q3 1 41 12q24 7 41 20q5 -2 11 -2q9 0 29 7.5t31 6.5q72 -6 93 -33q31 -24 61 -84q7 -14 13.5 -42t11.5 -39q32 -66 32 -129q0 -31 -8 -105q-8 -68 -6 -106q-7 0 -18 -66q-6 -35 -6 -40q-7 -31 -13 -37l1 1q-1 -5 -5 -15
q-24 -68 -182 -97q-12 12 -89 32q-67 17 -71 42q-1 5 -18 6q-10 0 -18.5 -3t-11.5 -3q-13 0 -26 26zM278 139q-8 19 -21 16q-7 -2 -8 1q-1 1 0 7q0 9 10 34q8 13 10 19q5 21 5 35t-5 20q3 2 10 14t13 12q16 0 18 -22q2 -27 4 -33q-14 -82 -36 -103zM437 -28l-6 -3
q-24 12 -24 71q0 19 23 28q4 1 26 12q-10 -41 -3 -62l17 -51q-1 -9 -7 -9q-4 0 -12 5q-4 3 -14 8v1zM92 31q-1 -35 -6 -49q-4 -10 -8 -33q-39 26 -39 85l6 19l48 5zM341 557q-7 25 -44 66q-2 2 -27.5 7.5t-37.5 20.5q-1 2 -3 2q-9 0 -28 -11.5t-19 -19.5q-2 -29 -12 -44
q-4 -6 -37 -38q-3 -5 0 -42q3 -38 9 -45q15 -21 30 -21q26 -1 48 -16q13 2 65 -9q33 -7 37 7l24 57q0 10 7 27q-11 9 -11 28q0 27 -1 31zM293 423q-5 12 -7 14q-4 6 -13 8q-16 2 -16 22q0 6 6 29q4 14 -5 26q5 3 7 8q17 54 31 54q15 0 22 -78q4 -12 7 -17q-8 -44 -32 -66z
" />
    <glyph glyph-name="colon" unicode=":" horiz-adv-x="221" 
d="M199 244q0 -40 -21 -55q-14 -10 -53 -16l-93 43q-11 9 -11 30q1 -41 1 36q0 22 27.5 50.5t48.5 28.5q41 0 71 -37.5t30 -79.5zM197 130q0 -122 -43 -130l-73 19q-57 54 -57 90q0 20 28 31q21 8 45 8q14 0 41 7t37 7q22 0 22 -32zM46 11l-7 -40l7 2q-5 -6 -26 -14
q-10 15 -10 27q0 17 13 37q0 5 -1 30q-1 22 4 24q19 0 20 -66z" />
    <glyph glyph-name="semicolon" unicode=";" horiz-adv-x="197" 
d="M166 246q0 -38 -21 -51q-10 -6 -52 -12l-53 37q-19 16 -19 63q0 22 36.5 55.5t58.5 33.5q34 0 44 -41q6 -24 6 -85zM172 57q-7 -49 -35 -103q-34 -64 -73 -74q-8 10 -8 21q0 24 26 118q-27 9 -39 39l-20 51q0 20 41 40q36 19 59 19q10 0 13 -5q26 -24 29 -28
q11 -15 11 -38q0 -13 -4 -40z" />
    <glyph glyph-name="less" unicode="&#x3c;" horiz-adv-x="405" 
d="M251 488q-20 -17 -20 -27q0 -3 5 -34q-7 -8 -23 -12q-4 30 -4 46q0 13 4 27h38zM393 695l-15 -75q-47 -31 -110 -91l-103 -99l8 -40l129 -129q33 -33 55 -87q-8 -63 -58 -107q-85 129 -133 191q-84 110 -157 169q118 113 149 140q87 78 160 125q19 12 36 12q15 0 39 -9z
M228 88q0 -11 -26 -47q-25 4 -24 13v14q8 12 10 29q1 12 0 31q-2 29 -2 31q0 11 6 19q36 -30 36 -90z" />
    <glyph glyph-name="equal" unicode="=" horiz-adv-x="496" 
d="M448 393h-400v132h400v-132zM448 182h-400v133h400v-133z" />
    <glyph glyph-name="greater" unicode="&#x3e;" horiz-adv-x="420" 
d="M213 125q0 -11 -26 -47q-25 4 -24 13v14q2 3 3 6l-27 -21l-66 -9l-11 42q-17 -14 -17 -25q0 -3 5 -34q-7 -8 -24 -12q-4 30 -4 46q0 13 5 27h34l-11 46q118 70 191 149q4 12 4 30q0 -1 -2 22q-1 13 0 25q1 13 6 19q21 -17 30 -50q20 27 36 56q-49 17 -135 63
q-97 52 -133 68l-26 77q-3 55 35 87q11 -13 25 -26q0 10 4 20h38q-20 -17 -20 -27q0 -6 1 -14q77 -64 111 -89q69 -51 115 -70l72 -69q-38 -120 -78 -181q-36 -54 -113 -115q2 -11 2 -21z" />
    <glyph glyph-name="question" unicode="?" horiz-adv-x="566" 
d="M551 665q0 -18 -3 -32q-12 -14 -46 -21q-2 -42 -4 -67q-4 -39 -11 -65q-50 -41 -65 -50q-31 -18 -80 -21l-7 -6l-29 -31l-17 -52q-22 -2 -22 -18q0 -9 5.5 -28t5.5 -29q0 -15 -9 -26l-12 -5q-27 1 -89 54l-7 140l-7 4q16 42 79 64q4 1 109 34q54 17 54 42q0 35 -15 67
q-18 40 -49 40l-13 -3q16 -18 16 -47q0 -37 -55 -44q-9 33 -9 58q0 13 2 24l-25 -1q-54 -31 -54 -65l20 -29h-91q-41 0 -57 32q-10 20 -14 67h-37q26 35 70 109q27 3 83 19.5t85.5 16.5t75 15t75.5 15q12 0 47 -11q32 -10 46 -8q11 -29 42 -50q12 -54 12 -92zM342.5 149
q13.5 -38 13.5 -52q0 -9 -4 -13l-27 -65q-30 3 -90 12.5t-60 48.5q0 99 65 99q11 0 39.5 13.5t39.5 13.5q10 0 10 -9.5t13.5 -47.5zM371 -80q0 -11 -11 -27q-31 8 -50 19q0 67 26 67q10 0 22.5 -23.5t12.5 -35.5z" />
    <glyph glyph-name="at" unicode="@" horiz-adv-x="852" 
d="M775 445q0 -22 -6 -36q-2 -5 -19 -30q-22 4 -22 12v15q7 11 13.5 38t13.5 39q20 -18 20 -38zM651 468q0 -32 -17 -67q-5 -10 -35 -61q-10 2 -10 16q0 13 7.5 36.5t7.5 36.5q7 11 13.5 38t13.5 39q20 -18 20 -38zM800 82q0 -3 1.5 -10.5t1.5 -11.5q0 -28 -36 -28
q-15 10 -25 86l8 4q2 13 4 39q29 -18 37.5 -32t8.5 -47zM499 391v56q-15 35 -46 53l-45 6l-62 -21l-20 -35q4 -20 4 -41t-4 -43q38 -48 76 -48q17 0 93 23q4 32 4 50zM322 38l-1 2q-4 -10 -8 -46q-19 12 -28 12q-4 0 -6 -4v-9l-1 -5q-1 4 -1 7q0 4 2 7q-1 10 -13 52l8 4
q1 13 4 39q23 -15 31 -23q13 -14 13 -36zM165 148v-10q1 -8 1 -12q0 -37 -37 -47q-22 4 -22 13v14q8 13 10 35q1 15 -1 39q-2 29 -2 39q0 21 16 45q35 -33 35 -116zM299 608q0 -24 -5 -36q-10 -15 -19 -30q-23 4 -22 13v14q6 11 12.5 38.5t14.5 38.5q19 -18 19 -38zM567 310
l16 -46l-3 19q46 59 62 87q29 52 29 101q0 118 -159 165q-61 18 -127 18q-114 0 -195 -81q-20 -51 -20 -114q0 -60 24 -118q14 -35 67 -70q16 -11 85 -54q38 -50 56 -59q11 -5 61 -5q53 0 152.5 41.5t132.5 80.5q3 -4 29 -53q13 -25 30 -30q-79 -85 -179 -101
q-38 -6 -100 -6q-173 0 -253 39q-25 12 -53 37q-44 39 -62 114q-5 19 -42 59q-33 35 -33 67q0 16 -9 50t-9 52q0 24 11 74t21 69q14 10 51.5 23t52.5 24q32 22 158 22q23 0 82 23t92 20q34 -3 75 -25q34 -21 68 -41q21 -12 29 -52q10 -44 21 -56q2 -11 2 -22q0 -14 -4.5 -42
t-4.5 -42q0 -93 -7 -127q-13 -61 -59 -103l-104 -34l-29 62l-112 -24q-88 16 -117 50q-15 18 -53 116q3 84 51.5 136.5t131.5 52.5q21 0 51 -32q35 -37 48 -43l5 37l56 -2q-16 -86 -16 -244v-13z" />
    <glyph glyph-name="A" unicode="A" horiz-adv-x="712" 
d="M637 685q0 -9 -28 -49q-33 -46 -36 -53l18 82h3q5 0 20 11.5t20 12.5zM602 414q0 -7 -6 -25t-11 -18q-13 0 -28 76q-13 65 -13 96l4 27q12 -24 28 -25l9 4l-3 3l-3 -7q0 -76 12 -99l2 10q0 -7 4.5 -21t4.5 -21zM712 39q0 -11 -20 -31t-24 -27q-6 4 -12 4q-8 0 -23 -7.5
t-22 -7.5q-9 0 -23.5 33.5t-19.5 32.5l-26 10q0 1 -45 68q-24 36 -26 78q-29 -62 -48 -62q-12 0 -12 12q0 4 33 124q-38 6 -38 22q0 7 2.5 22t2.5 22l-4 10q-4 3 -11 3q-10 0 -29.5 -5.5t-29.5 -5.5q-16 0 -38 12.5t-36 12.5q-13 0 -26 -5l-36 -107q-24 -74 -24 -114
q0 -47 -55 -118q-19 -24 -58 -33q-42 -10 -58 -25q3 25 24 91q18 58 18 92q0 10 -6 31t-6 32q0 95 38 95l15 -7q-1 -10 -43 -10q27 13 32 21t5 37q0 16 7 32q-16 14 -16 22q0 44 53 51q-16 10 -46 31q10 22 24 68q0 5 4 11q5 -7 12 -7q5 0 10 10q1 28 -13 43q0 7 10 19
q-13 25 -20 65l18 9q-23 6 -39 17v17q0 32 -19 38q-6 5 -35 14q-18 6 -19 29q36 -1 107 -24.5t109 -23.5q12 0 27 20q35 0 95 -32t92 -32q12 0 24 3q35 -24 47.5 -50.5t8.5 -69.5q-27 -35 -27 -40q0 -3 9 -7t9 -9q0 -19 9 -43q12 -30 14 -40l-2 -4q1 -18 46 -120l56 -127
q29 -27 46 -79q9 -30 28 -91zM459 93q0 -46 -29 -63q-20 12 -26 66l9 5q2 13 4 39q42 -24 42 -47zM544 -47q0 -46 -29 -62q-17 9 -20 28l-6 38l9 4q2 13 5 39q41 -23 41 -47zM295 253q0 -21 -12.5 -60.5t-24.5 -55.5q-10 9 -10 29q0 11 3.5 36t2.5 39l8 3l-1 8l3 20z
M323 -103l-4 -14l-5 1q-4 0 -11.5 -3t-11.5 -3q-12 0 -17 12l13 24l-1 8q0 9 5 26.5t5 25.5q27 -20 27 -77zM248 -29l-4 -14l-5 1q-4 0 -11.5 -3t-11.5 -3q-11 0 -17 12l13 24l-1 8q0 10 5 26q5 20 6 26q26 -20 26 -77zM412 458l-7 78q-24 40 -39 54q-5 5 -50 39
q0 -18 -13 -30q-16 -14 -19 -24q-5 -13 -5 -54q0 -45 -4 -64l77 -5q-12 0 60 6z" />
    <glyph glyph-name="B" unicode="B" horiz-adv-x="786" 
d="M563 291zM790 270q0 -60 -13 -106q-19 -67 -59 -73l-37 -47q-21 0 -53 -10q-52 -44 -138 -44q-52 0 -77 36h-41q-10 0 -15.5 -12.5t-19.5 -12.5q-7 5 -16 5q-5 0 -12 -2q-4 4 -46.5 24t-46.5 20h-27q-13 -17 -35 -34q-26 -20 -43 -20l-6 1q18 13 18 23q0 36 2 109t2 109
q0 28 -6 82.5t-6 82.5q0 56 20 70l23 41q15 29 16 42h1l-3 3v2l9 -5q-8 -11 -26 -26q-21 -17 -31 -17q-16 0 -16 12q0 26 20 74t20 74l-40 18l-1 3h8q-28 -3 -28 14q-4 3 -42 45q-19 21 -56 34q36 26 43 26q12 0 33.5 -9.5t33.5 -9.5q53 0 64 5q59 -2 149 1q118 4 148 4
q76 0 141 -52q40 -32 103 -113q-12 -14 -19 -53t-16 -57q-16 -32 -53 -47q41 -6 87 -64q37 -47 58 -97h2q27 0 27 -49zM108 621l-7 -12q-21 12 -23 13l-4 22l9 4q2 13 5 40q9 -6 9 -35q0 -6 5.5 -16t5.5 -16zM738 13q0 -53 -24 -67q-18 10 -24 34q0 2 -4 43l9 4q2 13 5 40
q38 -23 38 -54zM421 -48q0 -6 1.5 -18t1.5 -18q0 -19 -12 -26q-17 10 -20 29l-6 38l9 4q2 13 5 39q21 -12 21 -48zM195 -102l-4 -14l-6 1q-4 0 -11.5 -3t-11.5 -3q-11 0 -17 12l13 24l-1 8q0 10 5 26q5 20 6 26q27 -20 27 -77zM541 599q-25 34 -37 65l-56 25l-17 -13
q-5 0 -7 12l-4 16q-7 -20 -27 -20q-18 0 -35 11q-21 -12 -43 -12q-8 0 -17 2q3 -112 10 -190q11 0 91 2q86 2 105 36q34 27 37 66zM573 240q0 31 -31 91.5t-56 82.5l1 1l-3 1q-9 0 -22 -2q0 4 7 -31l-6 -11q-5 0 -15 7t-15 7q-12 0 -21.5 11t-14.5 12l-57 13
q-11 -10 -20 -11l-8 5q0 -12 1.5 -35t1.5 -35q0 -24 -7 -73t-7 -73q0 -14 2 -25q75 -30 98 -30q19 0 54.5 10t54.5 10q30 0 46.5 22t16.5 53zM404 341q-3 -5 -3 -34q0 -16 -13 -24q-21 12 -22 14q-2 11 -5 22l9 4q2 13 5 39zM374 530l-4 -14l-6 1q-4 0 -11.5 -3t-10.5 -3
q-12 0 -17 12l12 25l-1 8q0 12 -4 44q-4 28 -2 44q18 -13 32 -52q12 -35 12 -62z" />
    <glyph glyph-name="C" unicode="C" horiz-adv-x="716" 
d="M487 578q0 -7 -21 -17q-9 -4 -28 -12l-12 7l7 -1l6 8l-1 5l-23 7l-6 31q2 9 4 29q15 -7 44.5 -23.5t29.5 -33.5zM384 415q0 -32 1 -30q-2 -10 -18 -18q-19 3 -22 15v27l-2 -3l-9 14q0 23 30 58q20 -16 20 -63zM267 506q0 -11 -26 -47q-25 4 -24 13v14q8 12 10 29
q1 12 0 31q-2 29 -2 31q0 11 6 19q36 -30 36 -90zM713 224q0 -15 -6 -44.5t-6 -44.5q0 -8 1 -16l-31 -51q-42 -4 -117 -38q-71 -32 -118 -30l-17 -28l-8 -2l-4 3q-10 -4 -93 24q-62 21 -102 38h1l15 -20v-1q-13 2 -83 65q-48 43 -82 111q-35 72 -35 133q0 14 -16.5 38.5
t-16.5 32.5q22 5 27 26q2 9 2 43q0 14 -1.5 42t-1.5 42q0 7 -7 19t-7 19q0 13 11 27l-3 11q0 11 12 31q14 24 16 31q11 11 88 60q25 33 48.5 44t65.5 11h42q55 0 167 -28q109 -28 167 -27q9 -10 76 -164l-10 -19l-5 8q-7 -33 -34 -33q-8 0 -24 2t-24 2q-23 0 -39 -6
q0 16 -3 38q-31 23 -65 47q-34 18 -78 14q-3 12 -15 12l-11 -1q0 -10 -23 -10q-48 0 -76 40l-3 -11q4 -13 9 -42l-7 -11q-29 1 -36 1l-4 11q-7 -24 -7 -67q0 -42 3 -51l2 4l-46 5q-7 -9 -7 -19q0 -4 2 -9q-7 -74 -7 -103q0 -126 56 -181q-2 -34 45 -44q19 -4 72 -4
q172 0 189 60q14 4 19.5 25t17.5 25l7 -2q14 10 45 24l56 -26l-1 -3q0 -6 9 -17t9 -16zM585 -8q-2 -4 -2 -33q0 -17 -14 -25q-21 12 -22 14q-3 11 -5 22l9 4q2 13 5 39zM510 -99q0 -46 -29 -63q-15 9 -19 28.5t-7 37.5l10 5q1 13 4 39q41 -24 41 -47zM380 -92q0 -17 -13 -24
q-40 22 -52 60l9 4q2 13 5 39q32 -19 41 -30q10 -15 10 -49zM150 -87l-2 -8q-28 18 -38 43l8 3l-1 38q0 10 3 66q13 -14 22 -68q8 -48 8 -74zM269 306l-4 -14l-6 1q-4 0 -11 -3t-11 -3q-12 0 -17 12l12 24l-1 8q0 12 -4 44q-4 29 -2 45q18 -13 32 -52q12 -35 12 -62z" />
    <glyph glyph-name="D" unicode="D" horiz-adv-x="735" 
d="M728 408q0 -88 -22 -148v-9q0 -60 -53.5 -150.5t-50.5 -131.5q-9 12 -65 52q-91 -10 -219 -10q-14 0 -42 5.5t-42 5.5q-32 0 -61 -17q-26 6 -35.5 17t-9.5 37t-15 70q-15 48 -17 70q-5 68 -5 138q0 45 2 135.5t2 135.5l-2 2q-12 -10 -17 -53q-3 -23 -5 -59q-41 15 -71 59
q1 8 14 59l25 19q-10 16 -20 33q-1 5 -1 41q0 50 16 63q31 16 62 33l24 1q21 1 219 -22q40 -3 121 -10q182 -18 200 -114q4 -23 37 -75q29 -46 29 -77q0 -17 1 -50t1 -50zM712 0q0 -46 -29 -63q-15 9 -19 28.5t-7 37.5l9 5q2 13 5 39q41 -24 41 -47zM518 -71q0 -46 -29 -63
q-15 9 -19 28.5t-7 37.5l9 5q1 8 14 31t14 32q18 -10 18 -71zM361 -158l-4 -14l-6 1q-4 0 -11.5 -3t-11.5 -3q-11 0 -17 12l13 24l-1 8q0 10 4 26q6 20 7 25q27 -19 27 -76zM259 -26l-21 -20q-3 -3 -3 -8q0 -4 4.5 -14t4.5 -14q0 -6 -5 -9q-18 11 -33 61l9 4q2 13 5 39
q42 -24 42 -32q0 -4 -3 -7zM169 -46q-12 -29 -28 -29q-9 0 -18.5 10t-9.5 19v52l47 -21l-6 -11q0 -3 7.5 -9t7.5 -11zM573 514q0 34 -119 91q-111 53 -155 53l-18 -6q-1 -18 -6 -48l-21 -16q-8 -27 -8 -54q0 -33 14 -70l-15 -18q3 -31 1 -78l-3 -78q0 -126 29 -146h11
q78 0 151 17q112 26 104 75q35 86 35 278zM372 381q-15 -8 -19 -8q-11 0 -20 16q-5 12 -11 25q13 80 27 95q9 -22 8 -48q-1 -33 -1 -26q0 -31 16 -54zM546 503q0 -61 -4 -76l-6 1q-4 0 -11.5 -3t-11.5 -3q-11 0 -16 12l12 25l-9 44q0 37 2 52l32 -22q12 -11 12 -30z" />
    <glyph glyph-name="E" unicode="E" horiz-adv-x="632" 
d="M572 311l16 -42l-25 -3l-16 39zM647 701h-24v1h24q0 -3 -32.5 -30t-40.5 -37q-13 1 -49 21t-51 21q-12 -11 -22 -38q-11 -30 -19 -40h-5q-12 0 -26.5 18t-17.5 31q-44 0 -82 -5q-65 -9 -65 -28q0 -20 9 -55q9 -39 10 -56l3 -2q7 1 27 1l133 -1q-7 0 34 1h30q45 0 60 -24
q12 -18 12 -68q0 -19 -33 -53q-15 1 -37 3q-26 3 -35 10l-166 -14q-5 17 -9 28q-4 -20 -22 -77q-16 -50 -16 -77q0 -31 68 -31q22 0 66 7t66 7q17 0 35 -9q10 7 19 20q92 -13 116 -33q31 -26 31 -112q0 -53 -21 -95l-76 58q-3 -18 -47 -18q-8 0 -25 1.5t-25 1.5
q-33 0 -47 -11q0 -5 -11 -8q-7 -1 -15 -1q-61 1 -69 -1l-13 3q-36 0 -45 -13q-4 -6 -13 -45q-28 0 -58 36l1 1q-17 15 -21 31l-69 -52q-26 -3 -26 19l1 359l-90 -5l104 40q-13 15 -33 48l14 16q9 49 9 91q0 47 -10 119l15 10q-9 25 -9 94l4 4l-112 37q21 0 63 2t63 2
q27 0 80 -8.5t80 -8.5q11 0 30.5 -8.5t28.5 -9.5q43 19 145 19q32 0 85 -8q69 -11 84 -12q37 -37 37 -67zM560 -39q0 -6 3.5 -18.5t3.5 -18.5q0 -9 -9 -15q-16 9 -21 29q-1 5 -5 37l9 5q2 13 4 39q15 -9 15 -58zM429 -51q0 -46 -29 -63q-15 9 -19 28.5t-7 37.5l10 5
q1 13 4 39q41 -24 41 -47zM330 -157q0 -21 -15 -29q-15 9 -19 28.5t-7 37.5l10 5q1 13 4 39q27 -16 27 -81zM183 -106l-4 -14l-5 1q-4 0 -11.5 -3t-11.5 -3q-12 0 -17 12l13 24l-1 8q0 10 4 26q5 21 6 25q27 -19 27 -76zM-5 25q0 15 8 58t14 54q39 -22 39 -48q0 -14 -6 -38
q-7 -29 -8 -37q-5 -38 -28 -38q-19 0 -19 49z" />
    <glyph glyph-name="F" unicode="F" horiz-adv-x="628" 
d="M602 630q-1 -7 -7.5 -24t-6.5 -26q-6 -13 -19 -39q-3 1 -17 16q12 38 15 45q11 22 35 28zM461 311q0 -46 -29 -63q-17 10 -20 29l-6 38l9 4q2 13 5 39q41 -24 41 -47zM645 682q-14 0 -27 -15.5t-18 -15.5l-12 4q0 7 -13 7q-15 0 -45 -7t-45 -7l-9 4l-13 1q-13 1 -22 -12
q-18 0 -55 2t-55 2q-52 0 -72 -28q-16 -23 -16 -79q0 -17 6 -33q7 -1 116 0q73 0 108 -19q48 -26 48 -98q0 -18 -5 -27q-25 0 -62 12q-46 15 -60 17l-18 -8q-1 -14 -67 -18.5t-66 -14.5t3 -30t3 -30q0 -13 -3 -39t-3 -39q0 -22 -5.5 -64.5t-5.5 -64.5q0 -4 14 -35.5
t13 -36.5q-18 -14 -96 -14q-48 0 -60 15q-38 47 -38 193q0 48 13 121q-16 16 -78 46l-1 1q0 3 25.5 18.5t28.5 21.5l14 17q-13 14 -34 45l8 15h5q8 36 8 79q0 40 -8 109l13 10q-4 8 -44 56q-32 38 -32 57q113 -13 123 -13q45 0 133 12t133 12t119 -11l119 -17
q15 -14 25 -45.5t10 -55.5zM18 589l-3 -17l-17 75h2l8 42q0 -17 5 -50t5 -50zM352 260q-4 -10 -16 -24t-20 -14l-6 16q0 38 19 102zM473 92q0 -47 -29 -63q-15 8 -19 28t-7 38l10 4q1 13 4 39q41 -23 41 -46zM313 -103l-4 -14l-6 1q-4 0 -11.5 -3t-11.5 -3q-11 0 -16 12
l12 24l-1 8q0 10 5 26q5 20 6 26q27 -20 27 -77zM214 -58q0 -17 -17 -38q-38 7 -38 30q0 52 34 52h10q11 -14 11 -44zM153 -135q-24 15 -34 22q-21 15 -26 28v14q0 14 -3.5 41.5t-3.5 41.5q18 -22 38.5 -80t28.5 -67z" />
    <glyph glyph-name="G" unicode="G" horiz-adv-x="749" 
d="M580 540q-20 -16 -20 -27q0 -3 5 -33q-7 -8 -23 -12q-5 29 -5 46q0 13 5 26h38zM342 506q0 -11 -9 -23l-17 -24q-25 5 -24 13v14q8 14 10 29q1 12 0 31l-2 31q0 11 6 19q36 -29 36 -90zM748 352q-15 -39 -15 -117q0 -35 5 -105t5 -105l-34 -8q-43 19 -70 85
q-31 -49 -118 -78q-75 -25 -143 -25q-106 0 -212 62q6 13 6 27l17 2l-9 -9l10 -9h-11l-21 -6q-34 32 -63 91.5t-29 103.5q0 81 -15 129q-4 12 -8 12q-7 0 -20 -6l-6 6q0 25 21.5 72t21.5 72q0 5 -8 17.5t-8 19.5q0 15 14 31q-33 40 -58 40q-5 0 -5 3q0 10 97 63
q88 48 118 61q45 19 116 19q62 0 190 -24q124 -23 188 -22q10 -11 10 -25q0 -16 -19 -47t-19 -46q0 -9 16 -26t16 -26l-4 -38h-54l5 -4q-1 -12 -17 -12q-21 0 -21 37q-29 21 -50 35q-38 25 -51 26l-7 -6q-75 27 -146 27q-13 0 -26 -1l-4 4l-13 -5q-11 0 -33 5t-33 5l-9 -4
q-7 0 -21 -51l-18 -62l-28 -5l31 -72q-7 -8 -7 -28q0 -27 13 -77t14 -75q22 -36 40 -80l7 -17l2 -6v1q16 -68 83 -68q107 0 136 14q47 23 47 111l-21 56q0 8 -15 41.5t-15 43.5q4 2 31 2q19 0 51 -1l32 -2q25 0 36.5 -24t35.5 -24q10 0 31.5 11t37.5 11zM696 -96
q0 -16 -12 -24q-40 23 -53 60l10 5q1 13 4 39q32 -19 41 -31q10 -15 10 -49zM610 -95q0 -46 -29 -63q-15 9 -19 28.5t-7 37.5l10 5q1 13 4 39q41 -24 41 -47zM364 -150l-4 -14l-5 1q-4 0 -11.5 -3t-11.5 -3q-12 0 -17 12l13 24l-1 8q0 9 5 26.5t5 25.5q27 -20 27 -77z
M289 -75q0 -18 -13 -38l-3 -1q-6 0 -17 18q-13 22 -14 24l7 12q0 4 -7.5 12.5t-7.5 13.5l3 6l7 -2l30 15q0 -10 7.5 -30t7.5 -30zM191 27q0 -15 -33 -34q-39 23 -52 60l9 5q2 13 5 39q71 -41 71 -70zM496 186l-4 -14l-6 1q-4 0 -11 -3t-11 -3q-12 0 -17 12l6 84l14 -14
q0 8 6.5 12t7.5 12q17 -13 17 -44q0 -7 -1 -21.5t-1 -21.5z" />
    <glyph glyph-name="H" unicode="H" horiz-adv-x="712" 
d="M487 553q0 -11 -53 -44l-6 11q0 4 10.5 18.5t10.5 23.5l7 4v7q0 2 3 21q28 -17 28 -41zM701 653q0 -10 -2.5 -29.5t-2.5 -29.5h2q0 -15 -10 -35.5t-22 -27.5l8 -10l5 -21q0 -19 -30 -60q0 -26 20 -75.5t20 -75.5v-41q0 -9 1 -25v-17q0 -20 -8 -59t-8 -58q0 -11 7.5 -33
t7.5 -33q0 -27 -10 -54q-20 6 -60.5 5t-59.5 4q-10 3 -10 8q0 24 8.5 70t8.5 70q0 28 -21 79.5t-21 79.5q0 14 -27.5 29t-28.5 29l-54 3q-24 -1 -30 -3q-15 -2 -28 -11q16 -13 16 -30q0 -24 -29 -35q-43 13 -43 29q0 5 3.5 13.5t3.5 13.5q0 10 -18 17q-85 -16 -85 -179
q0 -15 1.5 -44.5t1.5 -44.5q0 -57 -14 -84q-28 0 -82 -9l-13 11q-36 -3 -46 -3q-28 0 -28 54q0 26 11.5 78t11.5 78q0 47 2 141.5t2 141.5q0 22 -8.5 66.5t-8.5 67.5v19l14 8l-3 12q1 2 1 7q0 16 -18 57t-18 56l1 6q18 -1 22 -1q6 0 25.5 14.5t31.5 14.5q122 0 122 -36
q0 -20 9 -57.5t9 -57.5q0 -13 -3 -25l-5 -7l-1 29q1 -127 20 -154q10 -1 55 -9q33 -6 55 -6q97 0 157 45q-1 42 -26 108q7 19 11 69q4 46 15 68q16 32 56 32q5 0 29 -9q15 -1 42 0q29 1 43 1q23 -29 23 -145zM544 156q0 -15 -33 -34q-13 7 -17.5 22.5t-8.5 30.5l9 4v94
l15 -6l6 5q2 3 2 9q0 5 -2 14.5t-2 13.5q0 10 10 11q21 -8 21 -164zM609 -24q0 -46 -29 -63q-20 12 -26 67l9 4q2 13 4 39q42 -24 42 -47zM272 197q-3 -4 -3 -33q0 -17 -13 -25q-21 12 -22 14q-3 11 -5 22l9 4v94zM300 -103l-5 -14l-5 1q-4 0 -11.5 -3t-11.5 -3
q-11 0 -17 12l13 24l-1 8q0 10 5 26q5 20 6 26q27 -20 27 -77zM164 -68q0 -17 -34 -34q-35 16 -53 60l11 5q2 17 0 40q76 -44 76 -71z" />
    <glyph glyph-name="I" unicode="I" horiz-adv-x="313" 
d="M287 364q0 -6 2 -23q1 -14 0 -23q-1 -12 -5 -20q-39 23 -39 48q0 14 6.5 39.5t7.5 36.5q28 -27 28 -58zM284 24q-5 -12 -12 -35q-13 -3 -26 -3q-33 0 -77 27.5t-57 28.5l-4 -2q-4 0 -10.5 32t-15.5 27q-3 23 -20.5 32t-17.5 33q0 19 16 103l15 86q0 26 5.5 78t5.5 78
q0 21 -11 24l-15 -9q1 -6 11.5 -21.5t10.5 -24.5q0 -19 -37 -39q-17 3 -25 19q-5 12 -10 23l-2 13q0 13 10 37t11 33q4 27 4 115q0 47 -5 108q21 -11 57 -11q32 0 95.5 13.5t95.5 13.5l5 -145q0 -20 -6 -73q-30 -26 -30 -82q0 -14 5 -34q7 -29 8 -33q14 -58 14 -185
q0 -11 -7 -33.5t-7 -33.5l7 -4q9 -27 11 -78q2 -55 8 -78zM57 313q0 -19 -3 -25t-19 -15q-29 17 -40 43l8 4q11 20 29 62q25 -20 25 -69zM299 -103l-4 -14l-6 1q-4 0 -11.5 -3t-11.5 -3q-11 0 -17 12l13 24l-1 8q0 10 5 26q5 20 6 26q27 -20 27 -77zM232 -116q0 -46 -29 -63
q-14 8 -14 16q0 3 2.5 10.5t2.5 11.5q0 8 -8 33q2 13 5 39q41 -24 41 -47zM149 -72q-27 -2 -47 -8q-11 12 -28 39q8 13 16 25l-5 13q0 10 15 26q22 0 49 -9v-86zM185 511l-12 4l-9 -18l12 -4z" />
    <glyph glyph-name="J" unicode="J" horiz-adv-x="607" 
d="M377 739q0 -28 -29 -70q-26 4 -25 13l1 14q7 11 15 38.5t18 39.5q20 -16 20 -35zM374 420l-12 11l-7 -17h4q-12 -16 -19 -30l2 -5q-24 4 -37 11l-2 54q20 11 45 18q10 -17 10 -35q0 -6 -1 -13zM613 101q0 -7 -26 -17l-21 10q-10 4 -15 20l9 4q2 13 4 39q26 -15 34 -22
q15 -14 15 -34zM411 788q32 22 75 22h4l45 -35q30 -23 50 -20q10 -16 10 -35q0 -11 -5 -32t-5 -32q0 -7 1.5 -21t1.5 -21q0 -14 -9 -29t-11 -22q-19 -2 -19 -23q0 -12 6 -44q6 -28 4 -44q-3 -25 -3 -38q0 -21 3.5 -64t3.5 -64q0 -130 -44 -243q-19 -8 -73 -19
q-47 -9 -69 -27q-11 0 -33 -3.5t-33 -3.5q-88 0 -120 10q-25 8 -49 38q-39 49 -70 79l-22 3l-13 16l29 5l-12 -4q-46 0 -46 149q0 21 22 37q0 1 39 24l45 -6q10 0 35 10q5 -13 38 -56q26 -34 26 -62q0 -11 -7 -20l-9 4q21 -14 24 -18q12 -11 11 -26l62 -3q38 26 89 40
l-2 115h24q-26 24 -26 73q0 13 22.5 55.5t22.5 61.5q-1 2 -4 11q-13 65 -35 143q1 15 14 63q13 45 12 56zM576 -20q-3 -20 -10 -60q-23 2 -51 2q-10 36 -11 36q0 32 62 89l-9 -41zM394 -59q0 -46 -29 -62q-15 8 -19 28t-7 38l9 4q2 13 5 39q41 -23 41 -47zM141 0l-18 -2
q-51 0 -44 1q-13 9 -17 30l-4 36l8 4v9q0 -2 3 19q21 -17 44 -45q28 -34 28 -52zM148 -114l-4 -14l-6 1q-4 0 -11.5 -3t-10.5 -3q-12 0 -17 12l12 25l-1 8q0 10 5 27.5t6 23.5q27 -19 27 -77zM364 235l-4 -14l-6 1q-4 0 -11.5 -3t-10.5 -3q-12 0 -17 12l12 25l-1 8
q0 9 8.5 29t9.5 28q17 -12 20 -37v-46z" />
    <glyph glyph-name="K" unicode="K" horiz-adv-x="765" 
d="M713 676l-14 -16l-31 -16q-54 50 -54 59q0 8 32 20q23 9 42 15q25 -44 25 -62zM613 569q-5 -20 -37 -66q-23 13 -41 42l9 51h34q22 -13 35 -27zM637 356l-20 -6q-34 0 -34 19q0 13 20 42l15 -1q11 -21 19 -54zM766 1q0 -7 -3 -34q-27 -14 -95 -14q-33 0 -71 16
q21 32 30 51q-34 5 -86 16q-6 63 -153 236l-21 -8l-5 8l-15 12q-14 -1 -25 3l-6 -4q-21 5 -28 5q-16 0 -16 -11q0 -19 10.5 -54.5t10.5 -54.5q0 -18 -10.5 -51.5t-10.5 -51.5q0 -10 5 -28.5t5 -28.5t-23 -25.5t-28 -26.5q-21 -3 -38 -15q-77 44 -73 62l1 -6l-3 17
q0 13 11 21v95q0 45 -3.5 135.5t-3.5 135.5l2 -2l4 5l18 -3q-1 -22 -1 -83h-24q0 24 6.5 72.5t6.5 72.5q0 32 -24 39q0 16 2.5 48t2.5 48q0 57 -13 63q-1 5 -7 24q-4 14 -4 25q0 1 -49 35.5t-49 55.5l5 12q52 -25 108 -25q50 0 84 20v-16l10 8l6 -2q1 -11 28 -60.5t27 -92.5
q0 -26 8 -33v-6h10l25 -46v-13l1 -26q53 91 91 141q34 11 65 45q17 19 44 61q23 35 34 42h14q34 0 96 -17.5t91 -31.5q9 -11 9 -23h-24l-3 9q-18 0 -78 -60q-66 -66 -87 -76l2 1l-69 -72q-38 -44 -54 -84q10 -29 23 -29q4 0 13 1t14 1q31 0 31 -28q0 -51 79 -127
q19 -18 94.5 -138.5t75.5 -134.5zM393 200q0 -10 -23 -23q-29 18 -39 44q7 14 9 32q53 -32 53 -53zM623 -72q0 -8 -13 -11l-17 5v2l-1 -13q-63 0 -63 29q0 14 16 14q8 0 23.5 -6t22.5 -7q11 5 18 21zM126 12q0 -9 -23 -22q-10 6 -11 16q3 9 4 20l-24 11q-4 17 -4 44
q0 -6 2 100q18 -25 37 -82.5t19 -86.5zM327 -38l-4 -14l-6 1q-4 0 -11.5 -3t-11.5 -3q-11 0 -17 12l13 24l-1 8q0 12 6 42q8 40 8 43q24 -17 24 -110z" />
    <glyph glyph-name="L" unicode="L" horiz-adv-x="633" 
d="M656 151q0 -20 -7 -64.5t-14 -61.5v-4l-6 -15q-48 7 -85 7q-20 0 -59.5 12.5t-59.5 12.5t-57 -12.5t-57 -12.5q-7 0 -18 6l-86 -1q-38 0 -48 5q-15 -2 -44.5 -24.5t-41.5 -22.5q-10 0 -17 18q-5 15 -5 27q0 6 1 9l-43 24l50 31q3 28 2 67l-2 67q0 18 4.5 54t4.5 54
q0 120 15 220l-18 -16q-30 48 -30 62q0 28 29 46q-24 35 -24 77q0 11 2 22l-65 62q13 15 57 15q114 0 170 -23l1 -16l54 8l3 -184q0 -17 13.5 -49.5t13.5 -49.5q0 -18 -25 -30q16 -27 30 -39q-1 -20 -40 -18l-6 -13q0 -7 3 -21t3 -21q0 -36 -13 -54q-19 -20 -38 -39v-8
q0 -8 1 -23.5t1 -23.5q13 0 39.5 -6t39.5 -6l7 -3q38 25 59 25q81 0 129 -37l6 1q8 -1 10.5 2t2.5 5q0 3 -2 7l94 -3q66 -9 66 -45zM55 249l-5 -9q-45 27 -45 85q1 13 8 82q23 -6 28 -53q1 -9 1 -67q0 -6 6 -19t7 -19zM292 -47q0 -16 -33 -34q-40 22 -52 60l9 4q2 13 5 39
q71 -41 71 -69zM476 0l-6 -23q-16 11 -24 26l10 4l-5 13q25 -9 25 -20zM250 226l-9 -10q-16 11 -23 26l9 5l-5 12q28 -17 28 -33zM279 763q24 -6 24 -34q0 -36 -32 -48q1 13 8 82zM311 339v-48l-16 -33q-4 0 -11 -3t-11 -3q-12 0 -17 12l12 24v8q0 11 6 43l8 42
q12 -9 24 -17q5 -5 5 -25z" />
    <glyph glyph-name="M" unicode="M" horiz-adv-x="870" 
d="M872 667l-14 -18q-17 9 -32 60l9 4q2 13 5 39q22 -12 22 -23q0 -7 -2 -18q-3 -14 -3 -18q15 -12 15 -26zM900 414q0 -27 -40 -50q-21 12 -21 26q0 5 3 14q2 6 -1 17l9 4q2 13 4 39q26 -15 31 -19q15 -13 15 -31zM592 744v0q-9 0 -9 -29q0 -11 -26 -47q-22 4 -23 9
q1 -3 1 25q0 7 -6.5 19.5t-6.5 19.5q0 12 12 17q16 5 19 10q7 2 22 -11.5t17 -12.5zM908 112q-7 -12 -5 -27q4 -25 4 -27q0 -16 -11 -22q-21 12 -29 56l9 4q1 13 4 39l17 -9q11 -8 11 -14zM386 219l1 9q0 32 -68 136q-49 76 -94 132q-15 -35 -21 -105q29 -58 29 -265
q0 -93 -11 -126q-5 2 -15 2q-18 0 -54.5 -7t-54.5 -7q-20 0 -23 20.5t-4 41.5q-5 36 -4 48l7 130q-3 11 -10 83q-6 64 -6 73q0 17 17 43.5t17 37.5l-28 8q-22 6 -22 12l42 21q1 14 -12 54.5t-13 57.5q0 18 9 28h-10q0 73 18 109q-3 7 -17 11.5t-17 10.5l-64 35l163 3
q32 1 57 -18q29 -21 25 -52q59 -26 89 -48q98 -170 142 -283l70 155q14 48 51 107q44 68 81 79q46 13 158 45q9 -19 9 -60q0 -29 -4.5 -88t-4.5 -88q0 -46 8 -75l-2 -1l20 -24l-8 -9q-6 -54 -6 -93q0 -72 2 -101q4 -59 5 -102q-3 -2 -2 -67.5t-1 -68.5q-15 -26 -111 -26
q-22 0 -53 1l-35 2q-9 0 -9 24q0 31 14.5 93.5t14.5 91.5q0 4 -2 5l-2 -2q-8 101 -13 158q-8 91 -24 130q-9 -37 -30 -67q-16 -23 -16 -51q0 -10 1 -21q6 -63 -29 -108q-2 -12 -11 -63q-6 -36 -18 -49q-55 -5 -86 34zM765 -32l-55 -36l-42 32l32 36zM327 273q0 -15 -4 -32
q-17 -2 -34 -5l-12 11l20 6l-13 41l15 49l19 -6q9 -38 9 -64zM448 94q0 -10 -22 -22q-47 33 -77 94l7 3q5 21 12 62q21 -19 49 -65q31 -50 31 -72zM44 187q0 -101 -5 -144l-16 -33q-4 0 -11 -3t-11 -3q-12 0 -17 12l12 24v8q0 16 7 60q0 3 10 60q0 9 8 20t16 11q7 0 7 -12z
" />
    <glyph glyph-name="N" unicode="N" horiz-adv-x="703" 
d="M730 633q0 -5 -6.5 -15t-6.5 -15q0 -26 -41 -51q-24 14 -24 42q0 7 29.5 26.5t33.5 33.5q15 -12 15 -21zM682 2q0 -25 -16 -25q-15 0 -60 72q-13 -9 -89 -18l-35 15q-37 82 -47 103q-27 55 -56 98q-15 22 -38 76q-22 51 -39 75q-13 18 -77 85q-17 -38 -17 -123
q0 -100 -39 -253q4 -19 4 -35q0 -29 -17 -54q-22 -32 -28 -46q-72 30 -89 65q-12 25 -12 113q0 87 8 169l-19 16q0 47 -7 109l-9 11l10 19q6 4 6 7q-1 1 -2 1t-4 -1l8 130q6 87 22 122l-3 17q0 14 5 42q16 0 47.5 10.5t48.5 10.5q38 0 60 -35q29 -46 42 -54q74 -46 132 -146
q50 -88 73 -186q39 85 39 152q0 36 -9 90q-5 0 -15.5 -1.5t-15.5 -1.5q-14 0 -14 17q0 10 62 30l12 -7l-34 -15q-31 38 -29 85l2 51h14l-1 1q0 13 111 13q108 0 108 -18q0 -19 -7 -55.5t-7 -55.5q0 -3 2.5 -8t2.5 -8q0 -61 -3.5 -183.5t-3.5 -183.5q0 -49 11.5 -146
t11.5 -146zM704 -66q0 -15 -33 -34q-16 9 -20 16q-1 3 -1 10q0 6 1 16l-19 10l-3 17q0 6 2 17t2 17q17 -6 52 -18q19 -7 19 -51zM325 259q0 -16 -4 -32q-18 -2 -34 -5l-13 12l21 6l-13 41l14 48l20 -7q9 -37 9 -63zM458 4l-15 -19q-6 2 -37 8q-23 4 -28 20l22 32v9
q-1 5 4 34q54 -31 54 -84z" />
    <glyph glyph-name="O" unicode="O" horiz-adv-x="714" 
d="M725 209q0 -20 -6 -29t-25 -20l-2 -2q-15 9 -16 26l-2 34l9 4q2 13 5 39q37 -21 37 -52zM706 494q0 -106 -15 -170q-46 -10 -54 -130q-2 -22 -5 -162q-28 -22 -70 -22q-17 0 -35 5q-69 -26 -89 -31q-45 -13 -93 -13q-106 0 -210 62v1l-28 -20q-66 64 -74 244
q-28 30 -28 45q0 40 11.5 120.5t11.5 120.5q0 7 -7 19.5t-7 19.5q0 15 12 29l-3 9q0 30 25 56q9 9 50 39q42 83 236 83q204 0 297 -95q27 -27 51 -97.5t24 -112.5zM85 26q0 -16 -33 -34q-19 11 -25 36q0 1 -6 46l9 4q2 13 5 39q50 -29 50 -91zM282 629q-43 2 -54 -30
q0 -9 10.5 -31.5t10.5 -34.5q0 -9 -11 -9q-5 0 -11 2q-30 -151 -30 -269q0 -197 122 -197q15 0 92 14q55 42 75 71q26 38 26 98q0 21 -3 51l9 5q0 20 -5 34h1q-7 11 -7 37q0 10 2 29.5t2 29.5q0 34 -12 43q15 38 15 72q0 57 -98 98h-22q-2 -5 -10.5 -11.5t-8.5 -9.5
q0 -42 -48 -42q-4 0 -4 4t4 14.5t4 14.5q0 5 -4 5q-8 0 -22.5 6t-22.5 6zM273 229q-12 -7 -12 -12q0 -1 10 -12.5t10 -24.5l-11 -13q-40 23 -52 60l9 4q2 13 5 39q5 -3 9 5t6 8q1 0 3 -1l20 -6l6 24l21 -33zM480 182q0 -35 -31 -50l-2 -1q-18 10 -18 59l9 4q2 13 5 39
q37 -21 37 -51zM489 560v-48l-16 -33q-4 0 -11 -3t-11 -3q-2 0 -2 4q0 2 2.5 14t1.5 15l15 48l-12 18q0 -2 4 30q12 -9 24 -17q5 -5 5 -25z" />
    <glyph glyph-name="P" unicode="P" horiz-adv-x="622" 
d="M422 240q-4 -1 -7 -15.5t-7 -16.5q-46 0 -46 30q0 15 8.5 46.5t16.5 44.5l26 -39q5 -11 6 -26q1 -18 3 -24zM607 694q1 -14 7 -92l6 -93q-19 0 -34 -4q-6 -13 -33 -42q-18 -19 -18 -62q-105 -48 -120 -53q-54 -18 -132 -18q-8 0 -21.5 5.5t-19.5 6.5l2 -4q0 -7 2 -41
q1 -28 -5 -39q11 -40 11 -43q0 -17 -8.5 -50.5t-8.5 -50.5q0 -10 9 -24t9 -24q0 -26 -11 -52q-13 -30 -33 -40q-17 11 -145 26v84q0 205 -20 218q4 34 3 77q-2 47 -3 76q0 26 22.5 72t22.5 72v5q-31 8 -31 27q0 7 4.5 21t4.5 21q0 11 -36 58t-36 70l1 4q10 7 30 7
q14 0 42.5 -5.5t42.5 -5.5h6l2 16h6q12 0 33.5 -4.5t31.5 -4.5l181 -9q92 -5 180 -19q19 -28 45 -37q11 -4 11 -49zM78 530q0 -11 -26 -47q-25 4 -24 13v14q8 12 9 29q2 13 1 31q-2 29 -2 31q0 11 6 19q36 -30 36 -90zM282 251l-5 -1q-20 -23 -24 -23q-8 0 -8 24q0 36 11 76
q26 -22 26 -76zM375 -79q0 -17 -13 -24q-40 22 -52 60l9 4q2 13 5 39q32 -19 41 -30q10 -15 10 -49zM282 2q0 -16 -23 -29q-13 10 -13 35v53l8 4v8q0 2 3 19q25 -21 25 -74v-16zM470 592q0 16 -8.5 48.5t-17.5 42.5h-29l-19 -33q-1 -10 0 -23q2 -21 2 -23q0 -12 -12 -12
q-5 0 -16.5 10.5t-14.5 7.5q-25 4 -25 20q0 8 6.5 21t7.5 19q-17 3 -20 4q-12 5 -13 13l-82 12q-13 -5 -13 -31q0 -27 8.5 -81.5t8.5 -81.5q0 -13 57 -22q40 -6 71 -6q10 0 52 17q3 4 10 23q6 15 15 20q32 17 32 55z" />
    <glyph glyph-name="Q" unicode="Q" horiz-adv-x="730" 
d="M705 -28l-66 -1l1 12q1 13 -58 39q-13 -8 -15 -28l-112 21q-9 -32 -14 -39q-10 -17 -35 -17q-266 0 -341 77q-22 23 -39 185q-13 126 -13 205q0 25 10.5 73t10.5 72q0 13 -11 23q10 53 36 98l45 28q22 88 249 88q57 0 121 -26q36 -15 111 -56q71 -39 112 -54
q4 -14 14 -41q-2 -32 -2 -53q0 -28 3 -40h-40q-3 -12 -3 -27q0 -20 16.5 -56.5t16.5 -56.5q0 -31 -18 -121q-17 -84 -29 -123l51 -51q34 -35 34 -58q0 -8 -35 -73zM695 -74q0 -20 -51 -56q-27 25 -27 35q0 20 35 72q43 -30 43 -51zM75 92q0 -16 -33 -34q-38 22 -52 60l9 4
q2 13 5 39q71 -41 71 -69zM532 319q-11 -7 -20 -7q-16 0 -16 20q0 16 4.5 47t4.5 47l23 48l-42 28q6 13 6 19q0 -1 -6 10.5t-6 22.5v35q-12 -15 -21 -15q-8 0 -30 54q-6 11 -29 15q-30 6 -34 8h-10q10 -35 10 -55q0 -10 -24 -10q-18 0 -29 12q-17 18 -39 28q-33 -33 -33 -49
q0 -10 25.5 -27t25.5 -25q-5 -7 -19 -7q-9 0 -22 3l9 -77q0 -16 -17.5 -31t-17.5 -28q0 -14 13 -41t13 -41q0 -37 -28 -31q3 -19 12 -67q8 -42 8 -68q0 -35 65 -35q23 0 69.5 -6.5t70.5 -6.5h10q-2 4 -30 29q-19 17 -19 35q0 4 -26.5 38t-26.5 43v2l40 13q5 -4 9 -4
q3 0 11 5.5t13 5.5q8 0 45.5 -30t46.5 -34q7 32 11 127zM504 336q0 -32 -4 -41q-6 -13 -30 -27q-16 9 -19 19q-2 6 1 28l-20 3l-2 9q0 8 17.5 25.5t19.5 32.5q37 -21 37 -49z" />
    <glyph glyph-name="R" unicode="R" horiz-adv-x="638" 
d="M564 265q0 -12 -10 -37t-18 -36q-17 15 -24 44q-3 16 -11 49l8 4v6q0 4 3 23q52 -32 52 -53zM686 -32q0 -17 -25 -48q-21 -26 -40 -40l-16 9q-14 0 -42 -5t-42 -5l-11 4q1 10 47 43q-42 21 -50 26q-27 17 -41 37l2 -3l-1 1l-1 3q-9 26 -26 57q-13 7 -43 12
q-48 72 -48 118q0 8 1 16q-55 52 -118 85q-12 -159 -84 -313q-45 0 -77 24q-35 26 -35 70q0 25 6 75t6 75v43q1 38 1 60v104q0 7 -21 21t-20 22q39 2 39 47q0 12 -2.5 36t-2.5 36q0 21 14.5 60.5t14.5 45.5q0 16 -49 52t-50 42q18 1 28 3q20 3 24 9q20 0 60.5 -3t60.5 -3
q28 0 82.5 8t81.5 8q42 0 129.5 -18t119.5 -36q4 -9 34 -71q21 -43 21 -75q0 -23 8 -69t8 -69q0 -29 -7 -39q-14 0 -56 -14q-3 -7 -17.5 -20.5t-14.5 -25.5q0 -5 1 -11q-30 -6 -87 -24q-1 -64 36 -117q14 -21 78 -86q51 -53 68 -94q12 -30 45 -48q11 -8 11 -15zM329 84
q-21 -11 -45 -12q-11 10 -19 24q17 43 15 63l21 4q9 -22 28 -79zM214 -45q-40 23 -52 60l11 5l9 79q29 -17 38.5 -35.5t9.5 -54.5q0 -45 -16 -54zM464 537q0 19 -38 55q-29 27 -56 46h-14l4 -20l-6 2q-10 0 -23 -7q-27 1 -49 -20l-2 4q0 10 8 25t12 25l-10 4
q-18 -19 -29 -104q-8 -64 -8 -115l7 -4q94 0 140 18q11 12 63 30z" />
    <glyph glyph-name="S" unicode="S" horiz-adv-x="686" 
d="M501 489q0 -10 -23 -23q-30 19 -40 44l14 26l-1 9q0 8 7 29q43 -36 43 -85zM679 190q0 -19 -4.5 -57.5t-4.5 -57.5q0 -34 -95 -34q-23 -17 -74 -45q-12 -5 -105.5 -22.5t-105.5 -17.5q-29 0 -59 8q-10 8 -24.5 27.5t-21.5 25.5h-11q-60 0 -108 28q-57 32 -57 88
q0 12 7 35.5t7 35.5q0 7 -16 22q22 2 40 2q29 0 92 -17q59 -16 92 -14q-5 -38 -5 -56q0 -28 48 -28q18 0 53.5 2t53.5 2q58 0 76 5q42 11 42 52q0 18 -20 44l19 5l-7 17q-14 -1 -32 -9q-126 149 -155 151l-15 -6q-22 1 -40 12h-15q-47 0 -67 20q-35 35 -49 41q-10 29 -30 86
q-19 51 -58 62l-3 12q0 12 16.5 35.5t18.5 34.5q60 72 64 75q27 20 97 25q19 1 60 11.5t63 10.5q38 0 113 -9.5t113 -9.5q35 -21 43 -26q24 -16 39 -33l-9 -23l23 -76q-23 -23 -49 -30q-8 -2 -58 -8l2 6q0 14 -30 14q-1 15 -65 41q-10 4 -81 30l-22 -2l7 -16l-1 -25l-40 -1
q-21 -1 -21 10q0 24 6 36l-2 1l-17 1q-19 1 -40 -20.5t-21 -40.5v-2q35 -109 212 -186l133 -57q7 -13 15 -23q17 -8 50 -31l29 -56q-4 -8 -4 -19q0 -9 4 -28t4 -28zM258 344q0 -10 -14 -34.5t-23 -32.5l-11 10l-1 5v21l7 4v8q0 -3 3 21l15 -5q16 9 18 8zM570 -11l-53 -23
l-28 38l26 54zM103 -4q0 -70 -20 -81q-40 23 -52 60l12 6q3 8 14 23q10 12 12 29q34 -19 34 -37z" />
    <glyph glyph-name="T" unicode="T" horiz-adv-x="752" 
d="M570 393q-13 18 -31 72.5t-18 76.5q0 16 14 54l20 -7q18 -37 18 -112q0 -70 -3 -84zM740 709q0 -77 -42 -77q-10 0 -29 3t-29 3q-17 0 -50.5 -11.5t-50.5 -11.5q-10 0 -20 3l-8 -6q-1 -32 -16 -98t-15 -101q-6 -7 -6 -20q0 -11 3 -31.5t3 -31.5t-3.5 -31.5t-3.5 -31.5
q0 -47 10.5 -141.5t10.5 -141.5q0 -71 -24 -71q-10 0 -27.5 7t-27.5 7q-21 0 -25 -25q-82 16 -82 77q0 25 3 75t3 75q0 14 -20 37t-20 34q0 20 11 59.5t11 59.5q0 7 14.5 27t14.5 28q0 54 -28 54q-4 0 -9 -1q-6 35 -8 101q-2 70 -7 102l-6 4q-21 -5 -62 -10q-6 3 -17 3
q-52 0 -176 -10v165q0 10 21 21.5t32 11.5q23 0 69 -10t70 -10q16 0 46 7t46 7q9 0 26 -6.5t24 -7.5q7 0 21.5 1t21.5 1q47 0 139.5 -4.5t139.5 -4.5q43 0 57.5 -17.5t14.5 -61.5zM161 525q-11 -18 -38 -49q-37 24 -37 37q0 42 51 93q4 -20 24 -81zM687 -64q0 -9 -23 -22
q-28 17 -39 43q0 4 -1 110q19 -19 40 -62q23 -46 23 -69zM166 416l-1 -194q-6 -6 -70 -9l45 119q0 7 -10 17.5t-10 15.5v2l27 21q13 10 16 28h3zM387 -207l-37 -9q-39 23 -39 44q0 32 45 72q16 -31 31 -107z" />
    <glyph glyph-name="U" unicode="U" horiz-adv-x="778" 
d="M799 504l-24 -1q-30 -1 -30 22q0 17 22 62q32 -21 32 -37v-46zM799 395q0 -19 -24 -49l-28 19v66q52 -21 52 -36zM763 783q0 -12 -6 -30q-8 -24 -9 -30q-17 -86 -17 -166q0 -24 1 -70.5t1 -70.5q0 -17 9 -49.5t9 -49.5q0 -29 -37 -144q13 -14 13 -29q0 -11 -23 -41
q-31 -40 -32 -43q-8 -14 -26 -15q-21 -1 -26 -6q-54 -49 -269 -49q-39 0 -99 22q-68 25 -84 52q-10 3 -20 9q-25 46 -31 141q-2 31 -2 149q0 81 9 107q15 43 14 64l-1 20q-5 5 -10 29q-4 21 -11 23q-3 10 -14.5 19.5t-11.5 11.5q0 5 5 13.5t5 13.5q0 7 -53.5 52.5
t-53.5 69.5l4 14q23 -4 60 -16q76 3 132 12q40 6 37 14l63 -10q13 -29 13 -61q0 -21 -10 -61.5t-10 -61.5q0 -26 7 -60q-9 -23 -11 -65q-2 -36 0 -78l2 -48q1 -19 1 -21h-24q21 -7 24 -64q-1 15 -1 -76q0 -11 25 -11q7 0 21 2t21 2q24 0 52 -6q18 -22 53 -22q10 0 29.5 2.5
t29.5 2.5q5 14 34 65q22 39 22 69q0 16 -2.5 47.5t-2.5 47.5q0 20 7 59t7 59q0 10 -3 31t-3 31h-2q-1 4 -2 17q2 24 -5 64l-5 1q-9 9 -17 47q-7 34 -7 53q0 11 3 22q100 14 117 14q19 0 36 -3l37 10q38 0 38 -25zM558 275q0 -64 -42 -88q-21 12 -21 24q0 6 3 17l-21 11l-1 5
q0 11 24.5 36t25.5 41q32 -18 32 -46zM353 409q-13 -7 -35 -11l2 6q-18 39 -18 45q0 12 8 30q25 -6 43 -16v-54zM775 0q-19 -42 -35 -62q-14 14 -28 38q2 3 2 10q0 10 -5 28q7 13 24 44q41 -34 42 -58zM553 -15q0 -11 -18 -23q-8 -6 -25 -17l-12 -36q-8 -5 -21 -5
q-14 0 -30 5v7q0 14 41.5 32t41.5 42q0 4 -6 34q29 -24 29 -39zM65 4h-24v19h24v-19zM557 534q0 -9 -6 -75t-7 -68v-43q-6 0 -19 2t-19 2q-12 0 -17 12l12 32q0 14 14 50.5t16 48.5q8 8 19 36q7 18 7 3z" />
    <glyph glyph-name="V" unicode="V" horiz-adv-x="718" 
d="M740 661l-22 -96l-2 96h24zM709 539q-2 -38 -7 -113q-5 -87 -22 -98q-17 10 -17 43q0 17 5.5 52t5.5 52q0 9 -2 18l13 -4q23 0 24 50zM704 766q0 -30 -15 -78q-18 -59 -21 -77q5 -7 6 -48q-39 -20 -39 -72q0 -9 1 -25.5t1 -25.5q0 -56 -19 -100q-13 -30 -47 -78
q-37 -53 -49 -77q-24 -18 -40 -66q-18 -51 -34 -66l-105 -98q-30 30 -59 61q-18 26 -18 84q0 50 -38 50q-17 0 -26 35q-4 17 -12 49l-60 126q-39 74 -77 115q-8 29 -15 57.5t-9 63.5q-2 47 -15 73v74q0 13 13 54h82q50 0 62 -17q20 -29 29 -101q12 -93 16 -108q7 -25 30 -63
q26 -43 33 -61q19 -9 35 -84q18 -86 27 -100q84 59 107 153l-2 12q0 34 19.5 98t19.5 98q0 21 22 34q-15 10 -15 37t21 90q23 4 60 4q50 0 61 1l-7 -5l71 17q6 -15 6 -36zM602 -61q0 -15 -33 -34q-20 11 -20 55q0 14 3 41t3 41h23l-36 -107q-15 28 -15 39q0 18 4 34
q71 -41 71 -69zM55 419q-3 -8 -31 -63q-32 16 -32 39q0 36 58 106zM253 0l-3 -15q-27 18 -38 43l8 3q-2 19 -2 39v19l1 28q12 -8 18 -17v-36q0 -11 8 -32t8 -32zM233 724q0 -1 15 -27t14 -28l-16 -33q-4 0 -11 -3t-11 -3q-12 0 -17 12l12 24v8q0 13 -13 54.5t-12 53.5
q39 -28 39 -58z" />
    <glyph glyph-name="W" unicode="W" horiz-adv-x="1014" 
d="M994 552q-33 -36 -53 -52q-9 15 -9 46v18h23l-36 34l-28 -106l48 6q-12 21 -12 33q0 14 24 37.5t26 33.5l-15 -6q33 -22 32 -44zM832 230q0 -30 -26 -44h-6q-9 0 -31 -37l-28 -47h-8l34 98l7 43q0 -5 3 19q10 -4 21 -4t25 27l4 2q5 -24 5 -57zM526 400q17 -15 20 -34
l6 -39h3l58 62q19 47 51 143q9 37 27 72l16 75q0 12 7 30q10 25 11 31q7 32 18 45q14 17 44 17q16 0 48.5 -7t48.5 -7t48 8.5t49 8.5q2 -3 17 -11q12 -6 12 -13q0 -47 -106 -195q-31 -7 -31 -76q0 -17 2 -39l-26 40q-1 -2 -11 -69q-7 -45 -17 -67q-82 -144 -108 -277
q-10 -48 -27 -145q-13 -8 -23 -8q-7 0 -20 8q-11 28 -46 70q-14 17 -32 78q-16 55 -42 73t-56 45q-26 -44 -67 -77q-61 -48 -70 -58q-40 -43 -70 -116q-9 -6 -17 -6q-12 0 -24 7l-62 122l1 19q4 67 -29 210q-35 153 -73 191q-5 -5 -32 -48q13 109 13 134q0 76 -47 82
q11 27 34 79q11 23 35 28q18 4 96 4q23 0 37 -4q26 -8 32 -81q3 -34 16 -88q16 -60 19 -87q6 -47 6 -78q0 -19 -6 -30q6 -13 19 -72q10 -45 27 -69l3 1q16 16 65.5 98.5t54.5 102.5l30 46q24 -64 27 -69q18 -40 41 -60zM549 16q-12 -4 -22 -12l-23 13q5 42 7 50q7 27 23 43
l-1 -25q-1 -23 16 -34v-35zM626 -45q0 -15 -11 -39t-23 -32q-23 14 -34 43q-5 14 -17 54l9 4q2 13 5 39q71 -41 71 -69zM126 266l-21 -20q-16 11 -36 17v48q17 8 18 33q-2 -37 -2 41q30 -22 36 -53q3 -33 5 -66zM678 664q0 8 -20 -61l-16 -33q-4 0 -11 -3t-11 -3
q-12 0 -17 12l12 24v8q0 10 34 68t35 68q10 -7 10 -19q0 -9 -8 -30t-8 -31z" />
    <glyph glyph-name="X" unicode="X" horiz-adv-x="718" 
d="M689 620l-24 -48q-1 -12 -27 -37q-21 -20 -37 -30l-10 12q0 8 27 31t22 36zM668 293q-24 -11 -33 -11q-34 0 -40 20q-22 19 -25 22q-10 12 -15 30h30q20 0 47.5 -21t35.5 -40zM751 -46l-62 23q-48 -19 -79 -19q-28 0 -33 19l1 6q0 9 -9 28t-8 30q-4 4 -2 20l-21 21
q-13 11 -26 14q-8 29 -28 47q-26 22 -32 33q-8 15 -51 93q-11 8 -19.5 23t-16.5 29l-29 -33q-40 -11 -106 -128l-88 -160q-38 -26 -58 -31l-64 -8l-32 39q43 93 117 205q32 49 137 193q-3 30 -66.5 78.5t-64.5 75.5q-26 19 -70 95.5t-44 105.5q0 37 62 44q44 1 89 3
q12 -3 17 -21t19 -20q27 -26 46 -77q21 -54 36 -72q30 -14 51 -49q25 -41 42 -54q42 27 86 112q60 116 70 130q14 3 38 21t38 21q6 -1 13 -1q14 0 40 6.5t40 6.5q10 0 20 -3l9 -25q0 -53 -109 -171q-119 -129 -135 -184q7 -12 31 -27t31 -27l120 -200q65 -111 100 -212z
M554 67l-8 -1l-10 6v2l-16 15q24 -11 34 -22zM711 -92q-67 8 -67 30zM73 490l-2 2l-18 -7q-18 26 -33 107q6 18 14 23q1 1 26 9q11 -29 11 -80q0 -65 -5 -60zM695 -70l-7 -19l-87 34h60q17 -12 34 -15zM222 375q0 -33 -5 -45q-3 -6 -23 -37q-26 4 -25 13l1 14q6 11 12 48
t21 56q19 -16 19 -49zM370 206v-14q0 -33 -24 -47q-21 12 -29 52l10 5l-1 4q0 13 3 32l5 32q36 -21 36 -64zM278 31q0 -17 -13 -24q-40 23 -52 60l9 4q2 13 5 39q31 -18 40 -30q11 -16 11 -49zM229 -36q0 -17 -18 -30.5t-36 -13.5l-5 2q-2 9 -4 25q18 23 26 23q7 0 19.5 -3
t17.5 -3zM90 241v-48l-16 -33q-4 0 -11 -3t-11 -3q-12 0 -17 12l12 24v8q0 9 8 21t9 19q6 -4 11 -4q6 0 9 6l5 10q1 0 1 -9z" />
    <glyph glyph-name="Y" unicode="Y" horiz-adv-x="781" 
d="M656 432q0 -8 -15 -28t-24 -28q-9 7 -9 20q0 8 3 26t2 28l9 4q0 12 12 95q22 -30 22 -117zM781 774l-105 -137q-51 -20 -51 -39q0 -4 1 -8q-27 -32 -55 -87q-34 -67 -29 -95q-11 -4 -23 -33.5t-25 -32.5q-25 -7 -32.5 -19t-7.5 -39q0 -18 4 -52.5t4 -52.5q0 -57 -11 -87
q14 -39 14 -58q0 -54 -21 -101q-25 -58 -71 -65q-31 17 -52 81q-18 54 -18 99q0 29 5 86.5t5 86.5q0 39 -11 71q-16 46 -46 46q-14 15 -49 47l2 18q0 29 -23 45q0 42 -25 85q-10 17 -53 73q-15 20 -26 51l-19 55q-15 4 -28 10q-12 14 -35 42q1 15 64 25q26 3 78 11
q34 -9 104 -25q0 -109 52 -170q57 -97 109 -118q7 9 27 55.5t20 56.5q0 -2 35 57.5t33 104.5q19 3 80 27q36 14 121 14q12 0 40 -1l1 -1l-29 -2zM73 680q0 -16 -22 -40l-22 10l-8 12q1 14 19 45q33 -17 33 -27zM572 143q0 -17 -7.5 -51.5t-7.5 -51.5q0 -9 -23 -22l-9 5l-1 9
v60h1q-1 12 17.5 41.5t20.5 42.5q9 -12 9 -33zM156 353q0 -18 -32 -19q-6 4 -18 6q8 35 25 105l4 -44q21 -34 21 -48zM331 102q-64 0 -64 28q0 8 33 80q31 -69 31 -108zM480 719v-48l-16 -33q-4 0 -11 -3t-11 -3q-12 0 -17 12l12 24v8q0 8 9.5 17t10.5 16q5 -4 10 -4
q9 0 12 16q1 5 1 -2z" />
    <glyph glyph-name="Z" unicode="Z" horiz-adv-x="699" 
d="M676 546q0 -11 -26 -47q-25 4 -24 13v14q8 12 10 29q1 12 0 31l-2 30q0 12 6 20q36 -30 36 -90zM551 394q0 -10 -13.5 -33.5t-22.5 -31.5q-17 14 -27 85l8 4v6q0 4 2 23q53 -32 53 -53zM380 613q-91 -16 -281 -16q-26 0 -30 1q-13 3 -15 20.5t-23 18.5v32l5 6
q0 10 -23.5 30t-23.5 25t11 12.5t12 10.5l-5 12q0 6 15 16.5t15 18.5h40q24 0 73 -4.5t73 -4.5q55 0 166 3.5t166 3.5q48 0 76 -3q35 -40 35 -85q0 -31 -27 -76q-41 -69 -60 -92q-37 -50 -79 -75q-33 -20 -33 -66q0 -13 5.5 -37.5t5.5 -36.5l-13 -9q-71 -15 -90 -33
q-6 -12 -20.5 -37.5t-67.5 -53.5q29 -4 72 -3l72 2q16 0 47 -6.5t47 -6.5q38 0 169 24l-1 -26q-17 1 -17 -9q0 -6 8 -22.5t8 -26.5q0 -94 -34 -130q-14 1 -46.5 13t-37.5 12q-12 0 -43 -12t-46 -12q-19 0 -56 4t-56 4q-6 0 -16.5 -4t-15.5 -4q-13 0 -38 10t-37 10
q-15 0 -25 -11q-31 5 -44 9q-29 9 -32 25q-31 0 -43 -33l-32 -1q-34 -1 -54 22q4 13 11 19q-2 13 -27 24.5t-25 21.5q0 9 3.5 27.5t3.5 27.5q0 8 -4 23t-4 23q0 20 44 40l60 27q11 7 31.5 48.5t31.5 52.5l26 -43l2 9q74 49 113 127q16 31 33 50q3 4 45 41l29 26q3 3 28 10
q4 9 14 25zM222 356q0 -10 -22 -23q-29 18 -40 44l8 4q1 17 9 46q9 33 11 45q34 -46 34 -116zM435 -83l-12 -1l10 -10v1l-12 -10l8 -2q-21 3 -39 17q-22 16 -22 35q0 12 11 27q43 -3 56 -57zM208 -60q0 -17 -13 -24q-40 23 -52 60l9 4q2 13 5 39q31 -18 40 -30
q11 -16 11 -49z" />
    <glyph glyph-name="bracketleft" unicode="[" horiz-adv-x="393" 
d="M-228 -45q-3 2 -10.5 11.5t-11.5 9.5q-5 -2 -7 -10t-9 -8q-5 0 -16.5 5.5t-11.5 9.5q1 1 3 1h-35q-9 4 -9 16q0 6 9 34q6 7 15 26q1 4 1 9q0 8 -7 22q-9 20 -10.5 24.5t-13 22.5t-11.5 25q0 6 5 12q19 6 19 18q0 4 -9 16.5t-9 19.5q1 11 23 25.5t22 26.5q0 10 -9 26
t-10 24q1 20 -3 65q-12 21 -26 66q-2 18 9 47q12 34 13 48q1 17 -4 47t-5 44q0 5 -2 18q0 10 -2.5 31t-2.5 31q0 39 23 55q10 3 32 13q6 6 22 16q7 3 13 3q9 0 30 -10t33 -9q7 1 25 10q15 9 25 6q7 -8 26 -16q6 0 14 11t14 11q11 0 29 -28q13 -20 20 -37q12 -28 12 -44
q0 -12 -8 -12q-10 0 -20 14q-6 10 -13 10q-6 0 -13 -10t-12 -12q-9 -3 -24 10.5t-20 13.5q-4 0 -7 -2q-3 -8 -16 -19q-6 -3 -17.5 7t-15.5 10q-3 0 -7 -2q-13 -9 -6 -40q7 -9 18 -29q2 -6 2 -13q0 -9 -6.5 -26.5t-7.5 -25.5q1 -25 -3 -69q-1 -8 -8 -26t-6 -29
q2 -10 13 -24.5t13 -23t2 -16.5q0 -9 -5 -30.5t-3 -34.5q7 -13 14 -44q1 -15 -20 -36t-21 -31q0 -16 23 -27q19 -10 19 -15q0 -3 -18 -14q-9 -7 -8 -21q1 -15 1 -25q0 -8 -3 -43q-1 -11 8.5 -19t9.5 -16.5t7 -8.5q12 0 39 21q51 38 51 39q8 0 12 -7q-1 -7 2 -22
q4 -5 16.5 -6.5t17 -7t4.5 -14.5q0 -12 -22 -50q-5 -8 -13 -8q-5 0 -12 11t-13 11q-5 0 -11.5 -10t-10.5 -12t-9 -2q-6 0 -18 4.5t-18 4.5q-10 0 -21 -12t-18 -12q-6 0 -21 7z" />
    <glyph glyph-name="backslash" unicode="\" horiz-adv-x="417" 
d="M379 29q1 21 -18 67q-10 15 -29 53q-3 15 -11 49q-1 19 -14 57q-10 8 -30 32q-7 13 -4 40q1 9 1 17q0 13 -3 20q-21 47 -36 76q-10 18 -11 39q-1 9 4 26.5t4 27.5q-2 18 -14 35q-11 14 -22 29l-5 10q-14 39 -17 126q2 6 2 15q0 10 -2 22q-6 13 -23 16l-34 6
q-5 1 -19.5 6.5t-21.5 5.5q-9 0 -16 -7q-2 -8 -11 -22q-3 -2 -6 -2q-4 0 -12.5 3.5t-11.5 3.5q-12 0 -12 -13q0 -5 6 -16.5t7 -16.5q1 -8 11 -84q6 -45 19 -83q13 -22 33 -75q0 -19 7 -60q4 -14 18.5 -36t19.5 -33q5 -15 11 -36q2 -7 -1 -27q-2 -33 28 -44q27 -11 27 -31
q0 -6 -5.5 -22t-3.5 -26q8 -16 19 -51q-1 -18 4 -55q1 -4 15 -30q2 -8 12 -23q9 -11 26 -17q10 -3 25 0q20 5 26 4q5 0 14 -3.5t13 -3.5t7 4q-1 5 1 15q1 3 4 3t11 -7t12 -7q5 0 6 23z" />
    <glyph glyph-name="bracketright" unicode="]" horiz-adv-x="393" 
d="M228 -45q3 2 10.5 11.5t11.5 9.5l4 -2q1 -5 6 -14q2 -2 5 -2q2 0 11.5 7.5t14.5 8.5q6 -1 15 -1t19 2.5t10 14.5q0 6 -9 34q-6 7 -15 26q-1 4 -1 9q0 8 7 22q9 20 10.5 24.5t13 22.5t11.5 25q0 6 -5 12q-19 6 -19 18q0 4 9 16.5t9 19.5q-1 11 -23 25.5t-22 26.5
q0 10 9 26t10 24q-1 20 3 65q12 21 26 66q2 18 -9 47q-12 34 -13 48q-1 17 4 47t5 44q0 5 2 18q0 10 2.5 31t2.5 31q0 39 -23 55q-10 3 -32 13q-6 6 -22 16q-7 3 -13 3q-9 0 -30 -10t-33 -9q-7 1 -23.5 10t-26.5 6q-7 -8 -26 -16q-6 0 -14 11t-14 11q-11 0 -29 -28
q-13 -20 -20 -37q-12 -28 -12 -44q0 -12 8 -12q10 0 20 14q6 10 13 10q6 0 13 -10t12 -12q9 -3 24 10.5t20 13.5q4 0 7 -2q3 -8 16 -19q6 -3 17.5 7t15.5 10q3 0 7 -2q13 -9 6 -40q-7 -9 -18 -29q-2 -6 -2 -13q0 -9 6.5 -26.5t7.5 -25.5q-1 -25 3 -69q1 -8 8 -26t6 -29
q-2 -10 -13 -24.5t-13 -23t-2 -16.5q0 -9 5 -30.5t3 -34.5q-7 -13 -14 -44q-1 -15 20 -36t21 -31q0 -16 -23 -27q-19 -10 -19 -15q0 -4 19 -14q8 -7 7 -21q-1 -15 -1 -25q0 -9 3 -43q1 -11 -8.5 -19t-9.5 -16.5t-7 -8.5q-12 0 -39 21q-51 38 -51 39q-8 0 -12 -7q1 -7 -2 -22
q-4 -5 -16.5 -6.5t-17 -7t-4.5 -14.5q0 -12 22 -50q5 -8 13 -8q5 0 12 11t13 11q5 0 11.5 -10t10.5 -12t9 -2q6 0 18 4.5t18 4.5q10 0 21 -12t18 -12q6 0 21 7z" />
    <glyph glyph-name="a" unicode="a" horiz-adv-x="646" 
d="M582 360q0 -8 -5.5 -26t-10.5 -18q-13 0 -30 103q-10 59 -10 88l2 6q11 -7 19 -7q11 0 20 8l-3 2l-4 -26q0 -19 3 -53q4 -44 9 -46l2 14v-5q0 -7 4 -20t4 -20zM655 -8q-18 -13 -46 -44l-11 4q-8 -9 -22 -9t-27 10q-5 9 -23 28.5t-23 18.5q-29 38 -49 95q-5 14 -33 105
l3 11l-29 4q-9 1 -19 26t-16 25q-23 16 -53 16q-58 0 -145 -69l1 -23q1 -28 -14.5 -64.5t-15.5 -45.5q0 -58 -12 -72q-7 -8 -67 -33l1 11q1 15 -10 15q-8 0 -22 -6l-4 4q0 13 8 39t8 39q0 10 -5.5 31t-5.5 32q0 95 37 95q15 0 15 -7q0 -9 -43 -10q29 13 34 22q3 6 3 37
q0 15 7 32q-15 13 -15 22q0 44 53 51q-16 9 -47 30q2 11 12.5 33t11.5 35q5 43 23 88q1 28 9 45q6 12 26 36q-13 27 -13 37q0 17 40 94q20 -6 27 -6q27 0 78 18.5t78 18.5q28 0 28 -13q-5 -11 -43 -18l2 1l-6 8l6 8l-5 2q38 0 65 -48q14 -25 31 -81v0h-1q14 -27 28 -61
q6 -6 32 -35l-5 -13q0 -39 27 -156q-9 -11 -12 -21l74 -222q28 -26 46 -80q9 -30 28 -90zM439 38q0 -46 -29 -63q-15 9 -19 28.5t-7 37.5l10 5q1 13 4 39q41 -24 41 -47zM218 171l-8 -10q-17 11 -24 26l9 4l-5 13q28 -18 28 -33zM200 -23v-26q0 -40 -14 -49l-5 2
q0 -16 -9 -16q-21 0 -28 23l13 25l-1 5q0 13 6 36.5t7 33.5q31 -18 31 -34zM363 403l-7 78q-7 11 -88 168q-1 -36 -27 -105q-6 -15 -6.5 -67.5t-4.5 -72.5q44 -6 47 -6q14 1 86 5z" />
    <glyph glyph-name="b" unicode="b" horiz-adv-x="662" 
d="M663 171q0 -28 -14 -51q-15 -26 -41 -29l-37 -47q-21 0 -53 -11q-51 -42 -99 -42q-17 9 -75 15q-45 5 -81 5q-40 0 -64 -7q-7 6 -15 8q-6 1 -15 0q-15 -2 -17 -2q-3 0 -9 3t-9 3h-28q-19 -29 -73 -29q-20 0 -20 31q0 36 18.5 105.5t18.5 105.5q0 28 -6.5 82.5t-6.5 82.5
q0 56 20 70l3 6q0 6 -6.5 17.5t-6.5 16.5q-17 -1 -17 12q0 31 7.5 93t7.5 93l2 4q0 15 -8 44.5t-8 44.5l2 5q56 -3 158 -1l158 2q64 0 97.5 -15.5t73.5 -64.5q13 -16 21 -49q10 -39 16 -52q-6 -39 -30 -85q-26 -51 -54 -69q37 -6 88 -58q48 -48 64 -87h2q26 0 26 -46
q0 -8 -1.5 -24t-1.5 -24q0 -10 6.5 -28t6.5 -28zM325 -37l-19 -7q-57 14 -63 66l53 11zM452 576q-10 33 -18 62l-59 9l-28 25l-46 9l-99 -1l-6 -121l78 -45q58 4 104 3l40 16q7 20 34 43zM495 247q0 27 -21.5 74.5t-41.5 65.5l-30 -3q0 -5 -11 -3q-13 2 -17 0
q-13 -10 -60 -10q-54 0 -81 30q0 -10 -9 -24t-9 -23q0 -98 13 -168q31 -12 139 -12q128 0 128 73zM475 230l-19 -7q-57 14 -63 66q13 17 33 17q11 0 20 -6zM560 -43l-18 -27q-17 5 -22 29q0 3 -2 41q13 17 33 17q11 0 20 -6z" />
    <glyph glyph-name="c" unicode="c" horiz-adv-x="713" 
d="M475 614q0 -16 -33 -34q-39 22 -52 60l10 4q1 13 4 39q71 -41 71 -69zM323 489q0 -23 -39 -43q-52 10 -52 40q15 22 46 64q45 -35 45 -61zM721 243q-2 -4 -14 -21q-10 -13 -10 -21q0 -10 6.5 -28.5t7.5 -26.5l-51 -39l3 5q-13 -15 -103 -94v-2l-43 -7q-25 0 -74.5 4
t-74.5 4q-60 0 -102 -56q-6 1 -56 66q-54 70 -70 80l6 19l6 6q-9 -5 -50 -14h50l-21 -5q-28 27 -58 101.5t-30 114.5q0 13 -14.5 36.5t-14.5 36.5q0 26 11 75.5t11 75.5q0 7 -7 19t-7 19q0 14 11 27l-3 11q0 11 12 31q14 24 16 32q11 10 46 30q64 84 198 84q50 0 153 -30
q99 -30 152 -28q9 -11 76 -164l-69 -57l-19 8q0 16 -3 38q-56 40 -75 50q-41 21 -86 18q-4 11 -16 11l-11 -1q0 -7 -49 -7q-21 0 -23 -8q-15 -21 -37 -45q-11 -5 -45 -5v-6l-3 -5q-6 1 -24 15t-28 14l-12 -11l15 -106l-19 -12q-13 -8 -13 -13q0 -4 13.5 -39t14.5 -43
q22 -65 22 -159q0 -15 48 -38q44 -22 63 -22l90 -1q92 -1 107 51q29 12 89 36l7 -2q14 10 45 24zM197 -67q0 -16 -33 -34q-39 23 -52 60l11 5l-1 31q-1 17 4 85q26 -15 49 -66q22 -47 22 -81z" />
    <glyph glyph-name="d" unicode="d" horiz-adv-x="618" 
d="M607 337q0 -45 -14 -81v-9q0 -61 -25 -106q-10 -18 -50 -68q-27 -34 -26 -53q-8 8 -16 8q-11 0 -30.5 -7t-30.5 -7t-19 6q-118 -13 -151 -13q-14 0 -41.5 5.5t-41.5 5.5q-33 0 -62 -17q-26 6 -35.5 17t-9.5 37.5t-14 70.5q-16 49 -18 71.5t-2 223.5q0 197 10 228l-3 -1
q-8 0 -16 48v-2l1 3l1 9l6 48l4 47q167 4 368 -41q60 -13 87 -32q38 -26 47 -77q4 -23 36 -74q29 -47 29 -78q0 -27 8 -81t8 -81zM183 -8q0 -16 -32 -34q-40 23 -53 60l10 4q1 13 4 39q71 -41 71 -69zM115 -9q-19 -22 -19 -41h-55v52zM455 459q0 90 -46 153q-51 71 -138 71
q-16 0 -38 -8q-28 -10 -37 -12q0 -17 -5 -48l-22 -17q-8 -27 -8 -53q0 -41 36 -136l-15 -18l1 -22q1 -24 -8 -82q-8 -51 -8 -82q0 -57 21 -71l58 -1q56 -1 105 10q73 16 67 59q37 92 37 257zM274 546q0 -81 -26 -90v-2q0 -7 -15 -18q-47 63 -47 84q0 47 74 90v-32
q0 -6 7 -16.5t7 -15.5z" />
    <glyph glyph-name="e" unicode="e" horiz-adv-x="547" 
d="M356 671q-5 -6 -9 -6q-3 0 -10 6t-11 6q-6 0 -11 -6v-22q-22 0 -28 26l-22 1q-62 3 -62 -30q0 -22 -7 -73q-6 -47 -5 -73l28 -5q16 3 51 -12t48 -15q43 0 121 -16q7 -1 7 -14q0 -18 -12 -52.5t-24 -47.5q-13 2 -82 22l-29 -41l-55 32q-1 2 -4 2q-6 0 -22.5 -7t-22.5 -7
q-3 0 -4 2q-13 -71 -13 -163q0 -31 68 -31q12 0 34.5 5.5t34.5 5.5q17 0 35 -9q10 7 19 20q63 -8 111 -47q54 -44 54 -104q0 -23 -20 -63l-46 45q-4 -22 -18 -26q-26 -7 -37 -15l-10 65l-50 -24l-74 10v-9q0 -50 -19 -54q-9 7 -28 13t-28 12q-32 -7 -35 -18q-28 0 -58 36
l1 2q-3 2 -23 1t-22 5l-45 -28q-14 0 -14 116q0 13 5.5 37t5.5 37v179l-30 4l44 31q-13 15 -32 49l13 15q9 49 9 91q0 47 -10 119l15 10q-9 26 -9 94l4 5l-12 43q31 0 93 -9.5t93 -9.5q11 0 30.5 -9t28.5 -10q35 16 82 16q32 0 85 -8q67 -10 84 -12q37 -37 37 -77h-24v1h24
q0 -5 -16 -30q2 -13 -9 -16q-25 -1 -26 -1q-16 -4 -16 -18q0 -5 -4 -5q-7 0 -33.5 16t-33.5 16q-6 0 -5 -8zM541 520q0 -10 -23 -23q-30 18 -40 44l14 26l-1 9q0 6 13 24t14 24q23 -19 23 -104z" />
    <glyph glyph-name="f" unicode="f" horiz-adv-x="544" 
d="M498 566q0 -6 -24 -50q-18 4 -51 21q5 13 7 40.5t6 40.5l37 16q25 -48 25 -68zM541 712q0 -22 -24 -65q-27 -6 -53 -11q-36 -11 -32 -35h-7q-32 0 -67 20q3 28 15 61l-13 1q-13 1 -22 -12q-67 -7 -92 -31t-26 -90l3 -2q8 1 29.5 -29t29.5 -30l67 1q46 1 62 -18t16 -67
q0 -61 -4 -78q-24 0 -62 12q-45 15 -60 17l-18 -8l-7 -7q-11 0 -38 18t-36 18l-4 -5q0 -13 3.5 -38t3.5 -37q0 -10 -3.5 -31t-3.5 -31q0 -31 13 -92.5t13 -92.5q0 -13 -2 -25l-132 -8q-48 70 -48 193q0 49 13 122q-30 29 -30 61q0 11 4 25l15 17q-13 14 -34 46l8 14l5 1
q8 36 8 78q0 40 -8 109l13 10q-10 19 -9 46l1 37l12 15q128 19 227 19q45 0 119 -11l118 -17q37 -33 37 -70zM152 -36q0 -17 -16 -38q-58 11 -58 55q0 12 11 23t23 11h9q31 -39 31 -51zM139 -110q0 -16 -33 -34q-40 22 -52 60l9 4q-10 52 -10 98v22q25 -15 55.5 -67.5
t30.5 -82.5z" />
    <glyph glyph-name="g" unicode="g" horiz-adv-x="654" 
d="M648 374q-34 -88 -34 -329l-34 -8q-23 9 -32 36l-14 48q-76 -119 -199 -119q-106 0 -212 61q6 13 7 27l16 3l-9 -9l10 -10l-11 1l-21 -7q-33 33 -53 91q-18 52 -18 104q0 24 -14.5 68.5t-14.5 68.5q0 25 11 74.5t11 74.5q0 4 -8 17t-8 20q0 15 14 30l-3 9q0 46 41 81
q81 69 92 75q39 22 118 22q113 0 128 -2q55 -7 139 -45q18 -25 57 -74q5 -6 17 -79q-4 -7 -18.5 -19.5t-18.5 -18.5q-8 2 -17 -15t-18 -17q-2 0 -26.5 18t-27.5 16l-17 20q-5 4 -8.5 21t-10.5 17q-11 0 -21.5 -22t-22.5 -24q-11 14 -32 53l2 -38q1 -12 -12 -12l-19 8
q-16 -27 -35 -27q-22 0 -31 43l26 28l-2 3q-13 3 -24 17q-20 -22 -43 -49q-12 -14 -12 -70q0 -13 -21 -13q-6 0 -9 -16q-1 -11 -3 -22l-8 8l15 -76q-24 -21 -24 -130q3 -7 15 -18q25 -24 34.5 -72t18.5 -57q24 -23 102 -23q119 0 118 110l-42 51q-30 38 -31 56q21 4 66 32
q40 25 70 25q20 0 57 -7.5t54 -8.5zM272 345v-21q0 -59 -16 -67q-52 10 -51 43l12 42q8 29 21 26l14 7q20 -16 20 -30zM569 -25q0 -16 -33 -34q-40 23 -52 60l9 4q2 13 5 39q71 -41 71 -69zM272 -107q0 -21 -16 -21q-13 0 -25.5 22.5t-21.5 24.5q-1 12 -14.5 26.5
t-13.5 22.5l9 19l10 -4q13 7 40 21q1 -18 16.5 -54.5t15.5 -56.5zM148 30q0 -16 -32 -34q-40 23 -52 60l9 4q1 13 4 39q71 -41 71 -69z" />
    <glyph glyph-name="h" unicode="h" horiz-adv-x="674" 
d="M652 588q0 -95 -14 -111l-3 -2q13 -11 13 -31q0 -19 -30 -59q0 -26 19.5 -76t19.5 -76q0 -21 -9.5 -61t-10.5 -59q-1 -20 0 -60q1 -43 1 -60q0 -44 -40 -141q-22 7 -53 31q-35 27 -35 45q0 50 -8.5 150.5t-8.5 150.5q0 19 -14.5 53t-15.5 51l-6 4q-24 -4 -63 -22.5
t-60 -34.5q15 -13 15 -30q0 -23 -29 -35q-42 14 -42 30q0 4 3 13t3 13q0 10 -18 17q-54 -10 -74 -55q-14 -31 -14 -94v-33q0 -7 1 -18v-13q0 -57 -13 -84q-15 -2 -33 -9l-12 12q-37 -4 -46 -4q-29 0 -29 54q0 39 2.5 117.5t2.5 117.5q0 2 10 98q9 88 6 96q-26 0 -35 -20
l-10 -42q-20 9 -20 45q0 22 10.5 64t10.5 64q0 19 -14 55.5t-14 55.5v12l15 9l-4 12q9 16 28 55q24 -2 40 -1q12 0 27 1q12 1 14 1q8 0 25 3t26 3q22 0 23 -17l3 -58q-5 -3 -5 -16q0 -11 4 -34t4 -34q0 -8 -2 -11q0 -20 16.5 -57t16.5 -57q0 -42 12 -58q25 -4 55 -10
q36 -7 56 -7q72 0 128 42q-1 17 5 52.5t6 51.5q0 17 -4 28q7 19 9 36q1 13 0 33q-1 23 -4 69q-3 20 -3 28q0 34 42 34q5 0 29 -9q15 -1 42 0q29 1 43 1q12 -17 12 -37q0 -15 -9.5 -48.5t-9.5 -51.5zM475 121q-40 23 -52 60l9 4q2 13 5 39l15 -5l6 4q11 23 12 25q9 15 21 16
q17 -6 17 -73q0 -37 -2 -42q-5 -13 -31 -28zM721 -72q0 -9 -27 -30q-16 -12 -37 -25q-16 9 -16 21q0 7 11.5 23t8.5 26l9 4q2 13 4 39q25 -13 33 -22q14 -15 14 -36zM187 -65q0 -16 -35 -34q-34 17 -53 61l11 5q2 8 2 18q0 9 -2 21q77 -44 77 -71z" />
    <glyph glyph-name="i" unicode="i" horiz-adv-x="345" 
d="M262 575q21 -360 21 -503q0 -72 -6 -72q-39 0 -116.5 -9t-116.5 -9l-5 151q0 14 5 68q31 25 31 81q0 15 -5 34.5t-9 32.5q-5 28 -5 75q0 26 2.5 79t2.5 79q0 11 19.5 16.5t19.5 16.5l-33 6q-10 30 -17 69l-14 72q5 11 12 34q13 3 26 3q24 0 64 -8q44 -10 62 -11q5 5 13 5
q6 0 18 -3.5t18 -3.5t11 2q15 -110 15 -159q0 -18 -18 -16t-18 0zM276 476q0 7 -3 18.5t-3 14.5q0 7 15 15q40 -23 52 -60l-12 -6q-14 -24 -29 -72q-23 13 -23 41q0 8 1.5 24.5t1.5 24.5zM296 265l28 8q11 -12 27 -39q-7 -13 -16 -25l5 -13q0 -10 -15 -26q-10 0 -15 2
q-10 6 -14 7v86zM134 274l12 -4l9 18l-12 4zM76 -48q0 23 8 36q39 -22 39 -47q0 -58 -20 -58q-27 0 -27 69z" />
    <glyph glyph-name="j" unicode="j" horiz-adv-x="613" 
d="M391 478q-9 -13 -27 -41l6 -17q-42 6 -61 18l-3 66q9 4 6 20l13 11q4 -5 31 -25.5t27 -27.5l-2 -15l-12 11h22zM607 736q0 -9 -18.5 -22t-18.5 -26q0 -15 8 -43t8 -43q0 -7 -7 -20q-9 -18 -10 -19q-18 -2 -18 -23q0 -13 5 -40t5 -40q0 -65 -23 -209q-23 -147 -44 -203
q-9 -4 -60 -22q-36 -13 -56 -29q-11 0 -32.5 -3.5t-32.5 -3.5q-100 0 -138 18q-26 12 -54 56q-36 57 -76 95q0 22 -16 63.5t-16 63.5q0 19 21 36q18 12 36 25l45 -6q10 0 30 6t29 7q13 -10 30 -11v-62q0 -7 8 -20.5t8 -20.5q0 -12 -13 -27l-9 4q37 -25 35 -44l62 -3
q39 26 90 40l-2 115h24q-27 24 -27 73q0 22 6.5 65t6.5 65q0 23 -18 64t-18 64q0 22 22.5 55.5t22.5 69.5q42 29 85 29h4l52 -39q30 -23 59 -20zM551 -15q-4 -20 -10 -60q-23 2 -51 2q-10 36 -11 36q0 32 62 89l-9 -41zM153 0q0 -9 -33 -11q-18 -1 -41 -1q-19 11 -25 37
l-6 46l9 4q2 13 5 39q25 -14 56 -50q35 -40 35 -64z" />
    <glyph glyph-name="k" unicode="k" horiz-adv-x="633" 
d="M605 567l-14 -17l-31 -16q-9 11 -9 25q0 56 29 70q25 -47 25 -62zM584 350l-31 -10q-45 0 -45 29q0 15 24 53l27 -3q14 -25 25 -69zM60 495q-5 4 -3 14q2 13 1 18q-8 29 -8 33q0 9 2.5 25.5t2.5 25.5q0 32 -39 50q-2 14 -2 31q0 55 12 82q11 0 33 5.5t33 5.5q15 0 57 -13
q46 -13 63 -15q5 -10 7 -76q2 -61 11 -69l-1 -6h11q0 -4 -1 -17q-1 -16 -1 -26v-43q0 -13 1 -49q29 48 109 157q37 11 73 90q38 84 52 92h14q24 0 29 -10q115 0 139 -12q-20 -8 -58 -65q-19 -27 -39 -54q-25 -37 -29 -58q-5 -24 -10 -29q-25 -23 -70 -72q-16 -21 -25 -44v-3
q0 -5 -22 -12.5t-23 -15.5q22 -9 24 -11q11 -7 11 -22q0 -36 16 -64q12 -20 41 -49q25 -24 86 -132q62 -111 62 -137q0 -6 -3 -34q-17 -10 -40 -10q-34 0 -71 16q2 3 2 7t-9.5 12.5t-9.5 13.5q0 2 1 5q-12 12 -40 29q-5 52 -163 208l-80 50q0 -24 10.5 -71.5t10.5 -71.5
q0 -16 -4 -16l-7 4q-6 -3 -6 -16q0 -21 6.5 -62t6.5 -62q0 -10 -7 -19q-10 -13 -12 -17q-35 2 -105 -3q-18 10 -21 23v32q0 43 9 51v-1q-30 188 -30 313q-4 3 -3 46q1 42 6 48zM306 224q0 -16 -33 -34q-39 23 -52 60l9 4l1 10q30 13 32 35q43 -25 43 -75zM531 -50
q-1 -7 -14 -11l-16 6v2l-1 -13q-63 0 -63 29q0 14 15 14q8 0 23.5 -6.5t23.5 -6.5q10 4 17 20zM107 161q0 -15 -32 -34q-21 12 -21 24q0 7 4 18l-22 10q-1 2 -6 8q-3 3 -3 10v30q0 24 2 44q30 -18 52 -47q26 -33 26 -63z" />
    <glyph glyph-name="l" unicode="l" horiz-adv-x="615" 
d="M609 104q0 -39 -22 -101v-5l-7 -15q-52 9 -77 9l-13 -3l-44 -98q-1 19 -4.5 59t-20.5 47l-7 -1q-5 0 -20 10t-19 9q-42 -1 -71 38q-7 -15 -24 -41l-11 3q-6 0 -27 -12.5t-33 -12.5q-20 0 -46 16q-14 -2 -43.5 -24.5t-41.5 -22.5q-6 0 -12 7.5t-6 13.5q0 18 11 43l-58 15
l72 12q10 80 10 157q0 18 -11 52t-11 52q0 119 14 219l-18 -16q-29 48 -29 62q0 28 29 47q-17 25 -33.5 74.5t-16.5 78.5l4 13l43 11q20 -9 29 -11q5 -1 23.5 1t23.5 2q28 0 66 -17l2 -15l21 -4q1 -37 12 -119q10 -78 10 -120q0 -7 -5 -18q3 -5 2 -21t5 -23v-4q0 -8 5 -23.5
t5 -23.5q0 -4 -6 -7t-6 -13q0 -7 3 -21t3 -21q0 -66 -50 -121q0 -9 1 -27.5t1 -27.5q13 0 39.5 -6t39.5 -6l6 -3q36 25 60 25q29 0 77 -43l6 2q8 -1 10 1.5t2 4.5q0 3 -2 7l92 -3q68 -9 68 -41zM378 -51q0 -16 -33 -34q-40 23 -52 60l9 4q2 13 5 39q71 -41 71 -69zM103 184
q0 -16 -33 -34q-55 31 -55 98q0 8 18 24q27 -5 48.5 -32.5t21.5 -55.5z" />
    <glyph glyph-name="m" unicode="m" horiz-adv-x="780" 
d="M386 559q-1 -21 -13 -19q-40 23 -52 60l9 4q2 13 5 39q26 -15 32 -23t5 -36q14 -12 14 -25zM789 169q0 -39 -19 -50q-21 12 -21 25q0 6 2 15q2 5 -1 17l9 4q2 13 5 39q18 -10 22 -20q3 -6 3 -30zM19 634q0 17 -2 51t-2 51q0 45 9 64l10 4l34 -4q21 -2 33 3q24 -9 47 -17
q24 -11 20 -40q58 -26 88 -48q46 -77 64 -112q33 -62 54 -117l30 36q10 35 85.5 120t107.5 94q24 7 61 28q42 25 59 32q18 1 18 -47q0 -29 -5.5 -88t-5.5 -88q0 -40 7 -64l-2 -1l20 -24l-8 -8q-7 -55 -7 -94q0 -8 11 -367q-10 -7 -21 -7q-15 0 -43 14t-43 14q-36 0 -80 -54
q-3 33 -3 68q0 57 12 171.5t12 171.5q0 84 -16 122q-156 -201 -145 -272l-17 -26q-23 -16 -71 -22l1 51q1 34 -66 136q-46 70 -95 132q-16 -35 -22 -105q14 -28 14 -131q0 -200 -26 -275q-119 50 -119 72q0 15 24 23q-8 7 -17 25q-5 26 -7 80q-1 40 0 101l2 86
q0 13 7.5 38.5t7.5 38.5l-9 12l8 20l-5 152h-9zM721 -59l-54 -36q-9 -3 -15 -3q-23 0 -27 36l16 60q36 2 80 -57zM237 356l34 -11q11 -43 11 -71q0 -19 -7 -41q-23 -2 -43 -7q-8 6 -24 36q3 9 29 94zM367 97q0 -16 -33 -34q-20 12 -35 49q-9 30 -19 60l11 5q6 24 14 73
q4 -31 33 -85.5t29 -67.5z" />
    <glyph glyph-name="n" unicode="n" horiz-adv-x="651" 
d="M632 513q0 -26 -41 -51q-24 14 -24 42q0 23 18 77q47 -39 47 -68zM632 673q0 -90 -39 -90q-8 0 -17 3q-14 -2 -14 -33q0 -44 11.5 -130.5t11.5 -130.5q0 -49 11.5 -146t11.5 -146q0 -38 -91 -38q-9 0 -19 6h-2v4q0 9 3 26.5t3 26.5q0 7 -4 6l-34 15l-47 103
q-28 57 -56 98q-16 23 -38.5 75t-39.5 76q-15 21 -76 85q-17 -38 -17 -123q0 -160 -80 -388q-63 27 -63 189q0 73 8 154l-19 15q0 48 -8 109l-8 11l9 19l6 3l-5 4l-16 86q-9 49 -9 86q0 50 17 85l-3 17q0 14 5 42q16 0 47.5 10.5t47.5 10.5q39 0 61 -35q28 -46 42 -54
q73 -44 131 -146q52 -90 73 -186l31 242q-5 0 -14.5 -1.5t-14.5 -1.5q-16 0 -16 17q0 10 62 30l12 -7l-35 -15q-30 38 -28 85l2 51h13v1q0 12 22 12q9 0 43 -4q27 -4 43 -1q58 -43 64 -50q22 -26 22 -77zM317 259q0 -19 -7 -41q-23 -2 -44 -7q-17 12 -25 29l23 7l-6 19
q-8 -17 -15 -18q3 9 29 94l34 -13q11 -42 11 -70zM440 4l-16 -19q-5 2 -36 8q-23 4 -28 20l22 32v9q-1 5 4 34q54 -31 54 -84zM221 0q0 -15 -33 -34q-21 12 -21 27q0 6 1 15l-19 10l-3 17q0 6 2 17t2 17q17 -6 52 -18q19 -7 19 -51z" />
    <glyph glyph-name="o" unicode="o" horiz-adv-x="725" 
d="M707 282q0 -89 -41 -132q-171 -179 -329 -179q-194 0 -236 83q-76 55 -76 87q0 9 4 17q-12 14 -12 29q0 7 7 19.5t7 19.5q0 40 -11.5 120.5t-11.5 120.5q0 15 28 45q8 180 74 244l28 -21v2q104 62 210 62q49 0 94 -13q16 -4 88 -31l16 2q42 0 87 -36q1 -21 -3 -63
q-4 -47 -4 -64q0 -80 41 -89l26 -110q14 -62 14 -113zM265 175l26 12q32 4 39 4q48 0 48 -42q0 -3 8.5 -9.5t10.5 -11.5h22q116 46 116 95q0 83 -8 101q4 4 4 13q0 14 -9 43t-9 43q0 10 4 15q4 13 4 33l-14 80q1 6 -20.5 25.5t-21.5 25.5q0 38 -25 46q-3 1 -56 5
q-40 3 -63 24q-75 0 -102 -50q-19 -35 -19 -114q0 -31 11 -129q8 -11 18 -21q24 -14 24 -30q0 -12 -10.5 -17.5t-21.5 -10.5q9 -65 15 -80l8 -38zM343 637q0 -62 -50 -91q-1 9 -5 33l-1 7q-4 18 -4 26q0 44 28 59q32 -18 32 -34zM456 215q0 -26 -45 -61q-14 17 -47 64
q0 16 18 23q5 2 32 7q42 -19 42 -33zM611 14q0 -29 -71 -69q0 4 -3 19q-1 12 -1 20q0 40 43 64q32 -19 32 -34z" />
    <glyph glyph-name="p" unicode="p" horiz-adv-x="558" 
d="M569 593q0 -9 -13 -42.5t-19 -44.5q-5 0 -8.5 -12.5t-8.5 -13.5l-12 -44l-35 -18q0 -4 -31 -19q-37 -18 -47 -25q-35 -16 -70 -33q-11 -3 -78 -3q-8 0 -23 6.5t-23 6.5l4 -8q-4 -11 -2 -28l14 -16l10 -2q-3 -52 -9 -122q-9 -78 -10 -115q-1 -53 -31 -68q-4 3 -50.5 5
t-60.5 7q0 23 -16 65t-16 65q0 12 7.5 35.5t7.5 35.5q0 13 -8.5 50.5t-14.5 42.5q4 29 2 80l-2 79q0 23 7.5 68t7.5 68v11q-31 8 -31 27q0 7 5 21t5 21q0 15 -5 43.5t-5 43.5q0 13 2 25q13 9 28 11l29 5l2 16h5q12 0 34 -4.5t33 -4.5l217 -9q25 -1 71 -22.5t66 -24.5
q72 -105 72 -159zM332 243q-19 -4 -30 -8q-46 -1 -46 30q0 16 29 59q15 -19 31 -37q8 -12 16 -44zM236 5q0 -26 -5.5 -34.5t-27.5 -21.5q-22 13 -22 48v17q1 11 1 17q0 14 -3 24l9 4q2 13 5 39q43 -25 43 -93zM423 592q0 15 -9 48t-17 43h-30l-19 -33q0 -8 1 -23t1 -23
q0 -12 -11 -12q-6 0 -17 10.5t-15 7.5q-24 4 -24 20q0 7 6.5 20t6.5 20q-14 3 -19 5q-12 4 -13 12q-28 4 -82 12q-13 -5 -13 -31q0 -29 11 -85.5t11 -85.5q0 -14 70 -14h63q32 2 59 13q40 43 40 96z" />
    <glyph glyph-name="q" unicode="q" horiz-adv-x="723" 
d="M711 538h-40q-3 -12 -3 -27q0 -20 16.5 -56.5t16.5 -56.5q0 -50 -30 -132q-27 -73 -59 -124q8 -9 56 -36q36 -20 36 -45v-89l-66 -1l1 12q1 13 -58 39q-13 -8 -15 -28l-112 21q-10 -32 -14 -39q-10 -17 -35 -17q-102 0 -165 16q-87 22 -144 79q-23 23 -55 177
q-29 141 -29 195q0 25 10.5 73t10.5 72q0 13 -11 23q10 53 36 98l45 28q22 88 249 88q57 0 121 -26q36 -15 111 -56q71 -39 112 -54q4 -14 14 -41q-2 -32 -2 -53q0 -28 3 -40zM629 -57q0 -21 -13 -50t-29 -39q-36 36 -36 48q0 22 42 86q36 -21 36 -45zM531 319
q-10 -7 -20 -7q-16 0 -16 20q0 16 4.5 47t4.5 47l23 48l-69 -33q21 44 21 108v40q-23 -26 -45 -26q-25 0 -40 37q-19 45 -29 51h-10q10 -34 10 -46q0 -49 -56 -49q-3 0 -32 5l-4 65q-33 -33 -33 -49q0 -10 25.5 -27t25.5 -25q-5 -7 -19 -7q-9 0 -22 3l9 -77q0 -16 -17.5 -31
t-17.5 -28q0 -14 13 -41t13 -41q0 -37 -28 -31q3 -17 12 -67q8 -43 8 -68q0 -35 65 -35q23 0 69.5 -6.5t69.5 -6.5h11q-2 4 -30 29q-19 17 -19 35q0 15 4 32l16 9h38q4 -4 8 -4q2 0 10 3q7 2 12 0q4 15 21 62q13 35 14 64zM512 411q0 -16 -32 -34q-39 22 -53 60l10 4
q1 13 4 39q71 -41 71 -69zM75 22q0 -32 -4 -41q-6 -14 -30 -28q-16 9 -19 19q-2 6 1 28l-20 4l-2 8q0 12 17 52t18 57q14 -8 26.5 -43.5t12.5 -55.5z" />
    <glyph glyph-name="r" unicode="r" horiz-adv-x="586" 
d="M525 268q0 -15 -13 -45q-13 -33 -24 -40q-24 14 -34 50q-1 5 -14 61l9 4q2 13 5 39q71 -41 71 -69zM632 -41q0 -21 -16 -57t-32 -49q-8 12 -25 9q-13 -2 -15 -2q-33 0 -33 15q0 17 9 25q-74 37 -88 59q-20 46 -41 91q-14 7 -43 12q-11 17 -17 65q-8 59 -15 79
q-15 42 -50 54q-2 2 -4 16t-6 14q-9 0 -21.5 -8t-24.5 -8q-13 0 -28 7q-13 -176 -89 -341q-48 0 -65 38q-11 25 -11 79q0 25 6 75t6 75q0 21 -1.5 62t-1.5 62q0 67 11 123q-8 23 -20 152q-11 118 -12 164q16 0 45.5 8.5t45.5 8.5q28 0 82.5 8t81.5 8q42 0 129.5 -18
t119.5 -36q4 -9 34 -71q21 -43 21 -75q0 -23 8 -69t8 -69q0 -29 -8 -39q-13 0 -56 -14q-3 -8 -17 -21t-14 -25q0 -5 1 -11q-34 0 -86 -17q13 -47 67 -140q62 -106 87 -171q5 -12 43 -34q35 -21 35 -34zM292 82q-29 -17 -61 -17q-15 13 -27 33q16 42 16 55q0 7 -1 16l39 9
q10 -23 34 -96zM159 -70q-40 23 -52 60l10 5q7 36 15 107q43 -24 43 -105v-37q-3 -22 -16 -30zM416 477q0 28 -2 84q-2 60 -21 72l-86 8l4 -20l-6 1q-10 0 -23 -6q-14 0 -32 -10l-18 -10l-1 4q0 10 8 25t12 25l-50 -41q-12 -12 -12 -45q0 -22 7 -65t7 -64l6 -4q95 0 142 18
q11 12 63 30z" />
    <glyph glyph-name="s" unicode="s" horiz-adv-x="683" 
d="M598 489q0 -16 -33 -34q-40 23 -50 56l14 27l-1 9q0 9 4 23q4 18 5 22q25 -14 43 -44t18 -59zM679 274q-27 -39 -27 -63q0 -22 11 -63.5t11 -63.5q0 -34 -95 -34q-23 -17 -74 -45q-12 -5 -105.5 -22.5t-105.5 -17.5q-29 0 -59 8q-11 8 -24 26q-16 21 -22 27h-11
q-62 0 -108 27q-57 33 -57 89q0 12 7 35t7 35q0 8 -16 23q22 2 40 2q29 0 92 -17q59 -16 92 -14q-5 -38 -5 -56q0 -28 48 -28q18 0 53.5 2t53.5 2q61 0 76 4q42 11 42 53q0 18 -20 44l19 5l-7 17q-14 -1 -32 -9q-126 149 -155 151l-15 -6q-22 1 -40 12l-15 -1q-43 -3 -67 21
q-35 35 -49 41q-10 29 -30 86q-19 51 -58 62q-5 9 -5 22q0 15 7.5 42.5t8.5 39.5q50 60 86 79q41 22 115 22q44 0 132.5 -6.5t132.5 -6.5q40 -25 43 -27q26 -18 38 -33l-8 -22l23 -76q-28 -29 -69 -35l-78 -8l11 25q0 32 -80 64l-22 -2q17 -31 20 -81h-10q-65 0 -65 58
q0 15 6 27l-2 1l-17 1q-31 2 -31 -57q0 -121 184 -196l131 -53q7 -13 15 -23q17 -8 50 -31zM355 344q0 -15 -17 -43.5t-30 -35.5q-20 11 -21 22t-3 32l9 4q2 13 5 39q7 -5 23 -10q11 9 20 9q14 0 14 -17zM657 -11l-53 -23l-28 38l27 54zM191 -4q0 -70 -21 -81q-39 23 -52 60
l13 6q2 7 15 23q9 12 10 29q35 -19 35 -37z" />
    <glyph glyph-name="t" unicode="t" horiz-adv-x="755" 
d="M582 532q0 -49 -20 -73l2 -2q-1 -13 -17 -13q-34 0 -34 95q0 13 18 67l33 -13q18 -35 18 -61zM741 719h-24v1h24q0 -82 -51 -103q-25 -10 -127 -10q-25 0 -42 7l-8 -5q-1 -33 -16 -99t-15 -101q-6 -6 -6 -20q0 -10 3 -31t3 -31q0 -11 -3.5 -31.5t-3.5 -31.5
q0 -35 7 -104.5t7 -104.5q0 -43 -17 -80q-22 -47 -28 -76q-45 8 -62 13q-43 13 -43 31q0 8 3.5 22.5t3.5 22.5q0 16 -15 47t-15 53q0 24 13 71.5t13 71.5q0 20 -7.5 60t-7.5 60q0 32 5.5 96.5t5.5 96.5q0 58 -12 58q-1 0 -3 -1q-3 23 -15 23q-11 0 -31 -20t-28 -21
q-5 3 -10 23q-3 15 -32 15q-18 0 -25 -21q-2 -6 -5 -36q-20 0 -32 9q-28 21 -57.5 43t-64.5 37l-9 126q-1 10 20.5 21t32.5 11q23 0 69.5 -9.5t69.5 -9.5q16 0 46 7t46 7q11 0 33.5 -6.5t33.5 -6.5q42 0 122.5 -19.5t122.5 -19.5q18 0 54.5 3.5t54.5 3.5q22 0 22 -30v-12z
M163 522q-11 -18 -38 -49q-37 24 -37 37q0 41 51 93q4 -20 24 -81zM699 -67q0 -16 -33 -34q-39 23 -52 60l10 4l-1 5q0 12 15.5 31.5t16.5 30.5q44 -26 44 -97zM235 312l-6 -9q-8 0 -25 14.5t-20 14.5l1 -7q-12 3 -25 6.5t-13 16.5q0 7 6.5 20.5t6.5 20.5q0 17 -9 28l21 10z
M389 -210l-37 -9q-39 22 -39 44q0 32 45 72q16 -31 31 -107z" />
    <glyph glyph-name="u" unicode="u" horiz-adv-x="692" 
d="M734 495l-31 -2q-43 -3 -43 32q0 16 27 76q47 -29 47 -51v-55zM734 395q0 -24 -32 -62l-40 26v86q19 -7 42 -20q30 -17 30 -30zM689 743q0 -48 -15.5 -156t-15.5 -171q0 -59 -52 -224q13 -14 13 -28q0 -15 -33 -49q-11 -12 -22 -37q-11 -29 -19 -39q-21 -27 -125 -40
q-70 -9 -145 -9q-39 0 -99 22q-67 24 -83 52q-10 3 -21 9q-27 51 -30 143q0 50 -1 151l-1 104q0 16 -9.5 48t-9.5 47l6 42q-6 11 -8 67q-2 52 -9 57v52q0 9 15 9q7 0 21.5 -3t21.5 -3q3 0 45 7q12 -4 22 -4t10 5q0 2 -2 5l71 -20q-2 -15 -2 -81q-11 -29 -11 -146
q0 -46 2 -121l2 -88h-24q22 -7 25 -64q-1 15 -1 -76q0 -11 25 -11q7 0 21 2t21 2q24 0 51 -6q18 -22 53 -22q10 0 30 2.5t30 2.5q5 14 34 65q22 39 22 69q0 16 -3 47.5t-3 47.5q0 20 7.5 59t7.5 59q0 30 -4 67l-7 67q-7 7 -6 20q3 32 3 22q0 11 -5 31.5t-5 30.5t3 21
q15 2 55 12q32 8 54 8q11 0 23 -2l37 10q40 0 40 -65zM483 275q0 -64 -42 -88q-21 12 -21 24q0 6 3 17l-21 11l-1 5q0 11 24 36t26 41q32 -18 32 -46zM288 403q-19 -12 -59 -18l5 18q-18 37 -18 46q0 16 13 42q35 -8 59 -22v-66zM665 -89q-22 13 -37 51q-9 31 -18 63l11 5
q11 17 24 61q32 -18 32 -103q0 -70 -12 -77zM477 -15q0 -10 -17 -23q-13 -8 -26 -17q0 -4 -12 -36h-50l-1 7q0 13 42 31.5t42 42.5q0 4 -6 34q28 -24 28 -39zM-10 4h-24v19h24v-19z" />
    <glyph glyph-name="v" unicode="v" horiz-adv-x="669" 
d="M679 662l-22 -96l-2 96h24zM647 541l-6 -113q-5 -87 -23 -98q-16 10 -16 43q0 17 5 52t5 52q0 9 -1 18l12 -4q24 0 24 50zM659 796q0 -7 -22 -26t-22 -28q0 -12 16.5 -37.5t16.5 -37.5v-4q-13 -12 -30 -19q-7 -17 -16 -52l10 -27q-38 -20 -38 -72q0 -9 1 -25.5t1 -25.5
q0 -55 -25 -116q-26 -64 -65 -99l-73 -87q-41 -33 -62 -79q-3 -6 -35 -96q-22 24 -32 78q-12 65 -19 80q-17 37 -64 37q-17 0 -26 35q-6 22 -11 49q-5 8 -51 121q-30 74 -65 112l-20 -20q12 105 12 130q0 78 -32 84v74q0 46 24 62l19 3q23 -4 55 -16l-20 -4l-10 3
q3 16 32 16q43 0 61 -97q1 -4 20 -131q7 -25 30 -63q26 -42 33 -61q19 -9 35 -84q18 -86 27 -100q84 59 107 153l-2 12q0 34 19.5 98t19.5 98q0 21 22 34q-15 10 -15 37q0 24 17 72q30 6 91 15l-7 -6l71 17q22 0 22 -7zM575 -51q0 -15 -33 -34q-20 11 -20 55q0 14 3 41t3 41
h23l-36 -107q-15 28 -15 39q0 6 2 17t2 17q71 -41 71 -69zM447 -15q0 -20 -12 -26q-40 23 -52 60l10 4q-1 14 -1 41q0 33 1 56q30 -16 33.5 -25.5t3.5 -44.5q0 -11 8.5 -32.5t8.5 -32.5zM49 421q-3 -8 -31 -63l-28 56q14 41 54 89z" />
    <glyph glyph-name="w" unicode="w" horiz-adv-x="982" 
d="M891 525q0 18 26 46t28 44q54 -31 54 -69q0 -8 -31 -38.5t-44 -38.5q-18 10 -19 14q-3 9 -6 12q-8 16 -8 30zM840 222q0 -33 -34 -53l-7 2q-4 0 -26.5 -43t-37.5 -43l-14 11q13 35 34 106q9 34 12 70q20 -11 28 -11q6 0 14 15t18 15q13 -7 13 -69zM196 633
q0 -7 34.5 -81.5t34.5 -99.5q0 -19 -6 -30q5 -13 18 -72q10 -45 27 -69l4 1q8 10 45 100l44 107q29 -25 88 -75q51 -44 66 -93l18 -15q8 10 17 33t17 33q34 43 61 108v-1q29 53 56 164q27 116 52 166q12 4 24 4q17 0 48.5 -15t46.5 -15q14 0 43.5 8.5t45.5 7.5l-77 -219
q-31 -8 -31 -75q0 -17 2 -39l-26 39q-26 -117 -38 -142q-7 -16 -85 -123v-102q0 -35 -15 -95q-4 -16 -12.5 -48t-12.5 -48h-43q-11 27 -46 71q-10 13 -19.5 51t-20.5 49q-18 18 -71 49q-48 28 -68 52q-1 -1 -30 -62q-14 -28 -45 -56q-44 -39 -83 -133l-40 1l-63 122
q1 46 -7 139q-7 38 -54 199q-49 168 -58 182q-2 30 -23 72l4 16q0 6 -5 16t-5 15q0 54 47 73q27 11 92 11q48 0 59 -23q8 -32 16 -63q-3 -13 -15 -47q-11 -30 -11 -48zM509 9q-17 -5 -31 -17l-36 19q10 65 10 68q9 27 41 55l-1 -49q0 -20 17 -28v-48zM625 -51
q0 -14 -11.5 -38.5t-22.5 -31.5q-23 13 -34 42q-5 14 -17 54l9 4q2 13 5 39q71 -41 71 -69zM114 283l-9 -37q-20 2 -22 3q-12 3 -14 14v48q16 8 17 33q-1 -37 -2 41l21 -57z" />
    <glyph glyph-name="x" unicode="x" horiz-adv-x="697" 
d="M683 620l-24 -48q-1 -13 -24.5 -35.5t-39.5 -31.5l-10 12q1 8 27.5 31t21.5 36zM662 293q-24 -11 -32 -11q-34 0 -40 20q-22 19 -26 22q-10 12 -14 30h29q20 0 47.5 -21t35.5 -40zM449 441zM695 743q0 -8 -41 -71q-43 -66 -56 -81l-68 -78q-17 -22 -35 -45
q-21 -27 -41 -37q2 -2 31 -27q20 -17 20 -33q0 -44 39 -104q19 -29 71 -91q10 -14 45 -54q28 -31 37 -58l-46 -60q-14 -6 -26 -6q-13 0 -22.5 9t-9.5 22l-3 1q-11 0 -30.5 -9t-30.5 -9q-9 4 -12 39t-11 41q-8 13 -38 18q-3 13 -8 81q-3 50 -25 76l6 11q-35 26 -44 33
q-25 19 -39 38l-28 -61q-45 -13 -98 -111q-25 -47 -74 -142q-18 -11 -36 -23q-22 -12 -48 -12q-16 0 -45.5 9.5t-28.5 9.5q-1 14 62 127q60 109 73 123l63 83q26 35 76 62q-2 12 -78.5 76t-79.5 82q-25 19 -66 85t-41 92q0 16 48 32q33 11 64 17q14 -4 41 -22t44 -21l16 -66
q6 -26 42.5 -48.5t52.5 -63.5q20 -54 40 -70q37 23 82 111q61 117 71 131q14 3 37.5 21t37.5 21q33 -9 99 -29q11 -8 11 -19zM420 256v-15q0 -32 -24 -46q-18 11 -29 52l10 5v3q0 11 3.5 32.5t3.5 31.5q36 -20 36 -63zM705 -92q-67 8 -67 30zM690 -70l-8 -19l-86 34h59
q17 -12 35 -15zM80 434q0 -14 -16 -22q-18 27 -31 87q-6 31 -19 93q15 17 40 32q11 -27 11 -61q0 -13 -2 -39.5t-2 -39.5q0 -8 9.5 -25t9.5 -25zM285 219q0 -8 -4 -20q-5 -15 -6 -20q-9 1 -9 -15q0 -19 1 -18l7 -17q0 -6 -9 -11t-15 -5q-17 0 -17 28v36q0 36 31 73
q21 -23 21 -31zM629 304q-10 11 -34 22l17 -15l-1 -2l10 -6z" />
    <glyph glyph-name="y" unicode="y" horiz-adv-x="713" 
d="M698 414q0 -13 -18 -36.5t-31 -31.5q-19 10 -27 42q-2 6 -9 52l11 5q5 36 14 109q24 -14 43 -63q17 -44 17 -77zM388 399q1 0 14.5 56t14.5 56q22 0 72 126q49 122 49 158q56 10 94 10q40 0 64 -5q17 -11 17 -25q0 -4 -104 -139q-12 -5 -20 -23.5t-8 -32.5q0 -10 3 -17
q-32 -14 -32 -26q0 -3 8.5 -15t8.5 -19q0 -12 -11 -24q-47 -53 -40 -119q-42 -11 -58 -24q-22 -19 -22 -56q0 -12 1.5 -35.5t1.5 -35.5q0 -82 -12 -113q-10 -2 -25.5 -63t-35.5 -70q-31 30 -82 64q-10 27 -10 63q0 34 12 101t12 101q0 46 -43 46l-14 14q10 30 10 27
q0 21 -44 28l-34 -35q12 53 12 62q0 83 -119 135q7 47 7 67q0 45 -20 60q-15 5 -28 10q-12 14 -34 42q1 17 55 38q39 15 71 22q21 -5 43 -25q18 -16 39 -34q8 -20 20 -104q8 -55 47 -82q5 1 59.5 -82t60.5 -82zM60 601q0 -13 -8 -21l-40 17l-3 26q8 29 26 61q15 -8 17 -17
v-24q0 -7 4 -21t4 -21zM664 49q0 -78 -33 -97l-12 3q-16 0 -30 -23l-4 5l1 63l1 -2v1q0 18 19.5 52t20.5 51q37 -21 37 -53zM515 48q-64 0 -64 28q0 8 33 80q31 -69 31 -108zM0 362q0 -29 -45 -29q-13 6 -29 4q12 49 24 76h28q22 -34 22 -51z" />
    <glyph glyph-name="z" unicode="z" horiz-adv-x="720" 
d="M597 394q0 -14 -16.5 -41.5t-29.5 -35.5q-20 11 -29 46q-5 28 -10 57l9 4q2 13 5 39q71 -41 71 -69zM720 36q0 -20 -26 -46q-28 2 -32 2q-8 0 -42 -9q-70 16 -211 16q-29 0 -75 -12q-51 -13 -67 -29q-14 3 -38.5 32t-27.5 44q-31 0 -43 -33l-53 -1q-38 -1 -56 5
q-14 4 -49 25l25 10v7q-1 10 4 28.5t5 26.5q0 13 -6 38t-6 38q0 23 46 46q26 13 66 31q10 8 30 47q22 43 33 54l26 -43l2 9q73 50 113 127q31 61 115 119q28 20 81 90v24l-16 4q-10 -8 -37 -21l-18 4q-88 -15 -249 -15q-9 0 -28 -14.5t-30 -14.5q-17 0 -45 5q-33 6 -44 7
q-24 61 -24 110q0 28 7 53q91 -7 423 -7h107q41 0 83 -5q35 -40 35 -85q0 -94 -51 -153q-16 -19 -94 -74q-50 -35 -50 -75q0 -13 5.5 -37.5t5.5 -36.5l-13 -9q-75 -15 -102 -46q-48 -55 -89 -84l-6 -24q18 0 55 1.5t55 1.5q30 0 86.5 -16t85.5 -16q42 0 80 27l11 -10
q-17 1 -17 -9q0 -12 30 -54t30 -53zM265 431q0 -16 -33 -34q-40 22 -52 60l11 5q1 26 10 71q9 50 11 71q25 -15 41 -80q12 -49 12 -93zM483 -92l-24 -2v1l23 -5l-13 -17q-25 1 -50 19.5t-25 42.5q0 17 16 37q37 -1 52 -21q11 -15 21 -55z" />
    <glyph glyph-name="braceleft" unicode="{" horiz-adv-x="386" 
d="M186 828q-18 2 -20 -23t-5 -50q-9 -40 -34 -110q-10 -28 -37.5 -77t-33.5 -61q-7 -15 -35 -29q-23 -13 -24 -29q0 -8 25.5 -18t26.5 -20q4 -32 9 -63q6 -35 18 -61q9 -12 25 -42q8 -19 9 -44l2 -45q-1 -20 7 -63q7 -19 26 -34q24 -20 30.5 -28t19 -35t38.5 -27
q14 0 35 16q27 21 36 25l52 16q26 8 28 29q1 15 -14 15q-11 0 -34 -6t-35 -6q-35 0 -38 44q-2 27 -8 39.5t-30.5 34t-31.5 37.5q-4 10 -4 24q0 4 4 34q5 37 -21 68q-15 17 -20 30q-14 37 -14 71q0 37 15 84t37 73q8 9 28.5 22t28.5 22q14 17 18 60q5 58 44 58q8 0 24 -4
t24 -4q23 0 23 23q0 15 -44 22q-1 0 -57 5q-21 -1 -64 8q-7 9 -29 19z" />
    <glyph glyph-name="bar" unicode="|" horiz-adv-x="345" 
d="M232 343q-3 -16 -7 -53q0 -15 6 -41.5t7 -39.5q1 -23 0 -35q-2 -12 -6 -46q0 -8 -3 -43q-1 -11 8.5 -19t9.5 -16q-2 -3 -13 -51q-6 -27 -25 -23q-6 1 -13 11t-9 10l-4 -2q-1 -5 -6 -14q-2 -2 -5 -2t-12 7.5t-14 8.5q-7 -1 -16 -1q-8 0 -18 2.5t-10 14.5q0 5 9 34
q1 4 10 15q6 9 6 19q0 7 -7 22.5t-8.5 22t-9.5 34.5q-6 21 -6 32q0 20 14 33q26 16 26 32q0 11 -10.5 35.5t-11.5 36.5q2 13 2 34t-2 50l-18 43q13 59 14 94q0 16 -4.5 46t-4.5 45q0 5 -2 18q0 10 -3 31t-3 31q0 39 24 55q10 3 32 13q6 6 22 16q8 4 17 4t30 -9t29 -11
q-2 -13 -11.5 -44t-9.5 -45q0 -15 7 -30q7 -8 18 -29q2 -6 2 -13q0 -9 -6.5 -26.5t-7.5 -25.5q0 -23 -3 -69q-4 -17 -14 -55q13 -58 10 -107z" />
    <glyph glyph-name="braceright" unicode="}" horiz-adv-x="382" 
d="M202 828q18 2 20 -23t5 -50q10 -42 34 -110q10 -29 38 -73q33 -51 42 -71t25 -35q10 -9 9 -33q0 -5 -19.5 -10t-20.5 -12q-6 -61 -7 -63q-5 -36 -16 -61q-9 -12 -25 -42q-8 -19 -9 -44l-2 -45q1 -20 -7 -63q-7 -19 -26 -34q-24 -20 -30.5 -28t-19 -35t-37.5 -27
q-14 0 -35 16q-26 19 -37 25q-2 1 -44 10q-23 5 -28 23q-1 4 -1 6q0 11 17 11q8 0 25 -2t25 -2q43 0 46 46q1 24 8 38t31.5 35.5t31.5 37.5q4 10 4 24q0 4 -4 34q-5 37 22 68q14 17 19 30q14 37 14 71q0 37 -15 84t-37 73q-8 9 -28.5 22t-28.5 22q-14 17 -18 59
q-5 60 -46 60q-10 0 -29.5 -5t-28.5 -5q-16 0 -22 14q-2 5 -2 10q0 19 41 22q24 1 73 5q21 -1 64 8q7 9 29 19z" />
    <glyph glyph-name="quoteleft" unicode="&#x2018;" horiz-adv-x="199" 
d="M30 706q0 -45 39 -112q41 -71 81 -79q7 9 7 20q0 27 -24 119q8 38 27 57q29 29 30 31q0 23 -46 43q-38 17 -64 17q-34 0 -44 -25q-6 -15 -6 -71z" />
    <glyph glyph-name="quoteright" unicode="&#x2019;" horiz-adv-x="199" 
d="M180 706q0 -45 -39 -112q-41 -71 -81 -79q-7 9 -7 20q0 27 24 119q-8 38 -27 57q-29 29 -30 31q0 23 46 43q38 17 64 17q34 0 44 -25q6 -15 6 -71z" />
    <glyph glyph-name="quotedblleft" unicode="&#x201c;" horiz-adv-x="358" 
d="M18 697q0 -46 30 -107q33 -67 72 -78q8 10 8 20q0 19 -12.5 55.5t-12.5 55.5l1 7q2 4 24 49q15 31 35 42q0 21 -25.5 41.5t-46.5 20.5q-73 0 -73 -106zM199 719q0 -50 32 -119q35 -76 72 -84q8 9 8 20q0 27 -25 119q9 37 29 58q10 10 29 30q0 21 -31 40q-27 18 -50 18
q-39 0 -53 -22q-11 -17 -11 -60z" />
    <glyph glyph-name="quotedblright" unicode="&#x201d;" horiz-adv-x="358" 
d="M342 697q0 -46 -30 -107q-33 -67 -72 -78q-8 10 -8 20q0 19 12.5 55.5t12.5 55.5l-1 7q-2 4 -24 49q-15 31 -35 42q0 21 25.5 41.5t46.5 20.5q73 0 73 -106zM161 719q0 -50 -32 -119q-35 -76 -72 -84q-8 9 -8 20q0 27 25 119q-9 37 -29 58q-10 10 -29 30q0 21 31 40
q27 18 50 18q39 0 53 -22q11 -17 11 -60z" />
    <glyph glyph-name="bullet" unicode="&#x2022;" horiz-adv-x="395" 
d="M130 572q-26 -14 -29 -15q-30 -21 -32 -56q-1 -13 -2 -38q-1 -10 -7.5 -30t-6.5 -31t5 -22q9 -10 28 -32q11 -16 39 -49q18 -15 24 -19q19 -13 46 -13q26 0 57 21q9 6 20.5 21.5t18.5 21.5q15 5 42 26q8 12 8 28q0 17 -1 31q-1 42 -2 45q-1 23 -8 44q-12 39 -32 62
q-8 9 -23 27q-14 12 -30 12q-10 -4 -32 -11q-27 -4 -83 -23z" />
    <glyph glyph-name="trademark" unicode="&#x2122;" horiz-adv-x="643" 
d="M237 655q0 -20 -8 -29v-1q0 -6 -6 -6q-14 0 -14 39q0 5 8 26l13 -5q7 -14 7 -24zM301 729l-10 1h10q0 -33 -21 -41q-10 -4 -51 -4q-10 0 -17 3l-3 -3q-6 -26 -12 -79q-2 -3 -2 -8q0 -4 1 -12.5t1 -12.5t-1.5 -13t-1.5 -13q0 -14 3 -41.5t3 -41.5q0 -16 -7 -33
q-9 -20 -11 -29q-42 7 -42 17q0 3 1 9t1 9q0 7 -6 19t-6 21q0 10 5.5 28.5t5.5 28.5q0 8 -3 24t-3 24q0 13 2 38.5t2 38.5q0 27 -6 23q-1 10 -6 10q-4 0 -12 -8t-11 -9q-2 1 -4.5 8t-12.5 7t-12 -22q-10 -1 -22 13q-7 8 -40 22l-3 50q-1 4 7.5 8.5t13.5 4.5q9 0 27.5 -3.5
t27.5 -3.5q6 0 18.5 2.5t18.5 2.5q5 0 13.5 -2.5t13.5 -2.5q17 0 49 -8t49 -8q7 0 22 1.5t22 1.5q9 0 9 -12v-5zM69 651q-4 -8 -15 -20q-15 10 -15 15q0 16 21 37q1 -8 9 -32zM284 415q0 -6 -13 -14q-16 10 -21 24l3 2v2q0 4 6.5 12.5t6.5 12.5q18 -10 18 -39zM98 567l-2 -4
q-7 6 -18 12v-3l-10 2q-5 1 -5 7q0 3 2.5 8.5t2.5 7.5q0 7 -4 12l9 4zM159 358l-14 -4q-16 9 -16 18q0 13 18 29q7 -13 12 -43zM476 654l-6 -8q-16 9 -21 24l4 2q1 5 2 16l4 -2q12 -6 11 -22q6 -5 6 -10zM633 498q0 -11 -16 -20q-9 5 -9 10q0 15 1 13l4 1q0 6 2 16
q18 -10 18 -20zM389 629q-6 -14 -9 -42q6 -11 6 -52q0 -80 -10 -110q-48 20 -48 28q0 7 9 10q-9 9 -9 116q0 -4 7 31l-4 5l3 8l-3 4l-3 34l2 1l-3 3l4 4l-3 1q0 5 4 14h-4v20q-1 28 -1 21q0 18 4 25l4 2l27 -1q28 -9 26 -22q23 -11 36 -19q17 -30 47 -92l12 14q4 14 34 48
t43 38q15 8 48 24q7 0 7 -19q0 -12 -2 -35t-2 -35q0 -16 2 -26v0l7 -10l-3 -3q-2 -22 -2 -38q0 -3 4 -147q-4 -2 -8 -2q-6 0 -17.5 5.5t-17.5 5.5q-14 0 -32 -22q-1 13 -1 27q0 23 5 69t5 69q0 33 -7 49q-62 -81 -58 -109l-6 -11l-19 1l-9 11q-25 44 -65 107zM609 407
l-21 -15l-17 13l6 24zM434 540q0 -8 -3 -17q-9 0 -17 -2q-7 5 -10 11l9 3l-3 7q-3 -6 -6 -7q1 4 12 38l13 -5q5 -17 5 -28z" />
    <glyph glyph-name="nonbreakingspace" unicode="&#xa0;" 
 />
    <glyph glyph-name="cent" unicode="&#xa2;" horiz-adv-x="446" 
d="M421 504q-24 -8 -43 -8t-34 14q-3 3 -24 29q-12 15 -17 15q-7 0 -19 -17q-3 -5 -1 -47l3 -52q2 -22 -5 -56q-10 -49 -10 -56q0 -20 -6 -60q-3 -7 -9 -23q1 2 5 4q12 -2 43 12q38 17 46 19l12 11q12 11 22 11q11 0 22 -10q28 -25 28 -50q0 -29 -36 -54q-29 -20 -63 -27
q-1 0 -41 -6q-27 -4 -37 -2l-6 -117q-27 14 -30 14q-4 1 -18 -1q-17 -3 -22 -3q-31 0 -50 29l1 1q-2 5 -2 13q0 18 23 85l-4 2q-42 21 -49 23q-23 0 -32.5 7t-13.5 30q-5 39 -17 89q-7 7 -18 23q-4 8 -2 61q2 43 3 54q4 29 15 51q3 7 11 47q5 28 24 38q34 6 75 22
q9 12 52 34q-2 28 4 66q7 49 22 54q25 9 53 15q17 4 46 -21q-11 -64 -11 -88q0 -9 1 -13q8 -7 19 -19v1q42 -7 47 -8q34 -7 41 -14q18 -36 18 -59q0 -20 -16 -63zM184 320q-12 19 -12 36q0 20 17 42q12 16 12 29q0 -12 -6 33q-5 41 13 91q-32 -30 -56 -50q-6 -13 -25 -68
q-9 -26 -2 -81q0 -16 16.5 -27.5t33.5 -11.5q11 0 9 7z" />
    <glyph glyph-name="copyright" unicode="&#xa9;" horiz-adv-x="525" 
d="M258 125h-36l-4 -1q-33 0 -79 18q-54 21 -54 47q0 6 -18 42t-18 70q0 15 -12 58t-12 67q0 28 -7 85.5t-7 86.5q0 22 4 24q25 6 63 34q43 32 43 53q0 5 29 24.5t34 19.5q4 0 12.5 -4t13.5 -4q6 0 17 10t16.5 10t17.5 16.5t18 16.5q5 0 55 -35t54 -35q18 0 35 -20t17 -38
q0 -23 24 -63q31 -51 32 -55q8 -21 8 -141q0 -56 -17 -82q-25 -37 -32 -63q0 -15 -6 -44q-5 -10 -23 -19q-21 -9 -26 -16q-1 -1 -12 -29q-2 -5 -32 -5q-9 0 -18.5 -15.5t-19.5 -15.5q-5 0 -14.5 4t-14.5 4q-14 -8 -26 -8q-3 0 -5 3zM252 196q5 18 16 18q5 0 16.5 -7t15.5 -7
q11 6 72 43q1 4 15.5 7.5t14.5 7.5v46q0 6 5.5 21t5.5 21.5t9.5 20t11.5 19.5q1 7 -1.5 20.5t-2.5 18.5q0 6 4.5 18t4.5 18q0 8 -7.5 21t-7.5 21q0 6 4.5 18.5t4.5 18.5q0 16 -15 22q-20 8 -24 14q-1 13 -11 35q-24 35 -58 80q-4 4 -14 2q-12 -2 -18 -2q-5 0 -16.5 6
t-17.5 6q-5 0 -12.5 -7t-12.5 -7q-8 0 -39 -10.5t-51 -10.5q-12 0 -15 -18q-4 -25 -5 -26q-10 -4 -27 -17q-5 -8 -3 -21l3 -21q0 -15 -2 -45t-2 -45q0 -6 4.5 -17.5t4.5 -17.5q0 -8 -6 -23t-6 -23q0 -10 8.5 -35t8.5 -41q0 -6 9.5 -22t9.5 -36v-3q6 -38 26 -60
q49 -27 47 -27q5 0 20.5 14t20.5 14q2 0 4 -1zM300 535q0 -6 -13 -13q-16 9 -21 24l4 2q1 5 2 15q28 -16 28 -28zM398 387q0 -2 -4.5 -8t-4.5 -9q0 -4 2.5 -11t2.5 -11l-20 -15l1 2q-5 -6 -41 -38v-1l-17 -3q-10 0 -30 2t-30 2q-24 0 -40 -23q-19 26 -51 58l2 8l3 3
q-4 -2 -20 -6h20l-9 -2q-11 11 -23 41t-12 46q0 5 -5.5 14.5t-5.5 14.5q0 10 4.5 30t4.5 30q0 3 -3 7.5t-3 7.5q0 6 4 11q0 2 -1 4q0 5 5 14t6 11q5 5 19 13q25 33 79 33q20 0 60 -12t62 -11q4 -4 30 -66l-28 -23l-7 4q0 6 -1 15q-40 29 -65 27q-1 5 -6 5l-4 -1q0 -3 -20 -3
q-8 0 -9 -3l-12 -16q-3 -4 -21 -4v-2l-1 -2q-6 6 -21 12l-5 -5l6 -42q0 -1 -6.5 -4.5t-6.5 -5.5q20 -50 20 -97q0 -5 19 -14.5t26 -9.5h36q37 0 43 20q11 5 35 15l3 -1q6 4 18 10zM189 263q0 -6 -13 -14q-16 9 -21 24l4 2v13q0 10 2 34q10 -6 19 -26t9 -33z" />
    <glyph glyph-name="registered" unicode="&#xae;" horiz-adv-x="521" 
d="M258 125h-36l-4 -1q-33 0 -79 18q-54 21 -54 47q0 6 -18 42t-18 70q0 15 -12 58t-12 67q0 28 -7 85.5t-7 86.5q0 22 4 24q25 6 63 34q43 32 43 53q0 5 29 24.5t34 19.5q4 0 12.5 -4t13.5 -4q6 0 17 10t16.5 10t17.5 16.5t18 16.5q5 0 55 -35t54 -35q18 0 35 -20t17 -38
q0 -23 24 -63q31 -51 32 -55q8 -21 8 -141q0 -56 -17 -82q-25 -37 -32 -63q0 -15 -6 -44q-5 -10 -23 -19q-21 -9 -26 -16q-1 -1 -12 -29q-2 -5 -32 -5q-9 0 -18.5 -15.5t-19.5 -15.5q-5 0 -14.5 4t-14.5 4q-14 -8 -26 -8q-3 0 -5 3zM252 196q5 18 16 18q5 0 16.5 -7t15.5 -7
q11 6 72 43q1 4 15.5 7.5t14.5 7.5v46q0 6 5.5 21t5.5 21.5t9.5 20t11.5 19.5q1 7 -1.5 20.5t-2.5 18.5q0 6 4.5 18t4.5 18q0 8 -7.5 21t-7.5 21q0 6 4.5 18.5t4.5 18.5q0 16 -15 22q-20 8 -24 14q-1 13 -11 35q-24 35 -58 80q-4 4 -14 2q-12 -2 -18 -2q-5 0 -16.5 6
t-17.5 6q-5 0 -12.5 -7t-12.5 -7q-8 0 -39 -10.5t-51 -10.5q-12 0 -15 -18q-4 -25 -5 -26q-10 -4 -27 -17q-5 -8 -3 -21l3 -21q0 -15 -2 -45t-2 -45q0 -6 4.5 -17.5t4.5 -17.5q0 -8 -6 -23t-6 -23q0 -10 8.5 -35t8.5 -41q0 -6 9.5 -22t9.5 -36v-3q6 -38 26 -60
q49 -27 47 -27q5 0 20.5 14t20.5 14q2 0 4 -1zM345 429q0 -6 -5.5 -18.5t-9.5 -15.5q-10 5 -19 45l4 1q0 5 2 16q28 -16 28 -28zM388 306q0 -27 -19 -43q-2 2 -15.5 3t-13.5 6q0 7 3 10q-30 15 -35 24q-8 18 -17 36q-5 3 -17 5q-2 3 -9 42q-5 30 -24 37q-1 1 -1.5 6.5
t-2.5 5.5q-3 0 -8 -3t-10 -3t-11 3q-5 -71 -36 -137q-30 0 -30 47q0 10 2.5 30t2.5 30q0 8 -1 24.5t-1 24.5q0 27 5 49q-11 30 -13 127q6 0 18 3.5t18 3.5q11 0 33 3t33 3q18 0 52.5 -7t47.5 -14q2 -7 13 -29q4 -8 12 -57q3 -19 3 -28q0 -12 -3 -16q-5 0 -22 -5
q-1 -2 -7.5 -8.5t-5.5 -14.5q-13 0 -34 -7q7 -24 30 -62q25 -43 32 -62q2 -5 16.5 -14t14.5 -13zM252 355q-12 -7 -25 -7q-5 5 -10 13q7 19 6 29l15 3q4 -9 14 -38zM199 294q-16 9 -21 24l4 2q2 14 6 43q17 -10 17 -42q0 -23 -6 -27zM301 513q0 56 -9 62l-34 3l2 -8l-3 1
q-4 0 -9 -3q-7 1 -13.5 -3.5l-6.5 -4.5l-1 2q0 -4 8 20l-20 -16q-4 -5 -4 -18q0 -9 2.5 -26t2.5 -26l2 -2q39 0 57 7q5 6 25 13z" />
    <glyph glyph-name="paragraph" unicode="&#xb6;" horiz-adv-x="636" 
d="M610 766l-15 -157q-31 -25 -31 -81q0 -12 6 -34q8 -28 8 -34q14 -60 14 -184q0 -11 -7 -33t-7 -33l7 -5q8 -25 10 -77.5t8 -79.5q-4 -11 -12 -34q-12 -3 -21 -3q-17 0 -19 13v27q0 16 -14 17q-32 -28 -52 -37q-16 118 -16 212q0 60 12 71q2 2 16 103t14 117q0 31 -4 76
q-5 62 -13 65q10 21 10 28q0 3 -10.5 5t-12.5 4q-11 8 -13 39q21 -11 41 -11q18 0 50.5 13t50.5 13zM443 604q0 -17 -28 -25v-9q0 -22 7 -64.5t7 -63.5q0 -12 -2 -69q-1 -41 2 -69q-7 -4 -15 -46q-7 -35 -7 -51q0 -11 6.5 -31t6.5 -31q0 -21 -14.5 -59t-14.5 -59l17 -6
q-12 1 -23 1q-19 0 -34 -4q-28 16 -37 142q-2 32 -3 151q0 27 16 31v25q-11 1 -11 34q-18 -6 -56 -6q-64 0 -79 14q-13 2 -27.5 25t-23.5 27q0 21 -17 38q-21 20 -26 32q-13 3 -30 3q-31 49 -31 53q0 48 65 143q15 2 48 15q30 11 48 12l196 8l7 3l-11 3h9l2 -14
q16 -1 51 -15q2 -10 2 -23t-4.5 -39t-4.5 -39q0 -6 4.5 -18.5t4.5 -18.5zM282 302q0 -27 -41 -27q-10 4 -27 7q14 57 48 100q20 -34 20 -80zM349 75q-2 -5 -2 -51q0 -32 -20 -44q-20 12 -24.5 20t-4.5 31q0 61 39 84l4 -36zM359 639q0 23 -12 29q-24 -3 -74 -11
q0 -10 -29 -16q1 -5 7 -17t6 -19q0 -14 -22 -18l-3 1q-2 0 -11 -8.5t-15 -8.5l-10 11q0 6 1 16.5t1 16.5v8l-18 30h-26q-8 -9 -16 -38t-8 -44q0 -21 28 -33q36 -16 42 -22q43 -18 78 -18q62 0 62 13q0 22 9.5 64t9.5 64zM222 511l-12 4l-9 -18l13 -4z" />
    <glyph glyph-name="glyph105" 
 />
    <glyph glyph-name="glyph106" 
 />
    <glyph glyph-name="pi" unicode="&#x3c0;" horiz-adv-x="525" 
d="M258 125h-36l-4 -1q-33 0 -79 18q-54 21 -54 47q0 6 -18 42t-18 70q0 15 -12 58t-12 67q0 28 -7 85.5t-7 86.5q0 22 4 24q25 6 63 34q43 32 43 53q0 5 29 24.5t34 19.5q4 0 12.5 -4t13.5 -4q6 0 17 10t16.5 10t17.5 16.5t18 16.5q5 0 55 -35t54 -35q18 0 35 -20t17 -38
q0 -23 24 -63q31 -51 32 -55q8 -21 8 -141q0 -56 -17 -82q-25 -37 -32 -63q0 -15 -6 -44q-5 -10 -23 -19q-21 -9 -26 -16q-1 -1 -12 -29q-2 -5 -32 -5q-9 0 -18.5 -15.5t-19.5 -15.5q-5 0 -14.5 4t-14.5 4q-14 -8 -26 -8q-3 0 -5 3zM252 196q5 18 16 18q5 0 16.5 -7t15.5 -7
q11 6 72 43q1 4 15.5 7.5t14.5 7.5v46q0 6 5.5 21t5.5 21.5t9.5 20t11.5 19.5q1 7 -1.5 20.5t-2.5 18.5q0 6 4.5 18t4.5 18q0 8 -7.5 21t-7.5 21q0 6 4.5 18.5t4.5 18.5q0 16 -15 22q-20 8 -24 14q-1 13 -11 35q-24 35 -58 80q-4 4 -14 2q-12 -2 -18 -2q-5 0 -16.5 6
t-17.5 6q-5 0 -12.5 -7t-12.5 -7q-8 0 -39 -10.5t-51 -10.5q-12 0 -15 -18q-4 -25 -5 -26q-10 -4 -27 -17q-5 -8 -3 -21l3 -21q0 -15 -2 -45t-2 -45q0 -6 4.5 -17.5t4.5 -17.5q0 -8 -6 -23t-6 -23q0 -10 8.5 -35t8.5 -41q0 -6 9.5 -22t9.5 -36v-3q6 -38 26 -60
q49 -27 47 -27q5 0 20.5 14t20.5 14q2 0 4 -1zM380 523q0 -14 -13 -35q-3 0 -4 -4.5t-3 -5.5l-5 -17l-14 -8q-5 -2 -19 -10l-12 -7q-8 -4 -28 -13q-4 -1 -31 -1q-3 0 -9.5 2t-9.5 2l2 -2q-1 -5 -1 -12l6 -6q2 -1 3 -1h1q-2 -23 -4 -50q-1 -20 -3 -39q-3 -28 -13 -33
q-17 0 -44 5q0 9 -6.5 26t-6.5 26q0 5 3 14t3 14q0 6 -3.5 21t-6.5 16v64q0 9 3.5 27t3.5 27v5q-13 3 -13 11q0 3 2 8t2 8q0 6 -2 17.5t-2 17.5q0 5 1 10q4 2 23 7l1 6h2q10 0 26 -4l87 -3q9 0 27.5 -9t27.5 -10q29 -42 29 -64zM247 288q0 -15 -14 -22q-9 5 -9 19v23l3 2
q1 5 2 16q18 -11 18 -38zM321 523q0 24 -10 36h-12l-8 -13q0 -3 1 -9v-9q0 -5 -4 -5q-3 0 -7 4t-6 3q-10 2 -10 8q0 -2 6 16q-7 1 -13 7q-11 1 -33 5q-5 -2 -5 -13t4.5 -34t4.5 -34q0 -6 28 -6q36 0 48 6q16 17 16 38z" />
    <glyph glyph-name="fraction" unicode="&#x2044;" horiz-adv-x="478" 
d="M68 18q0 21 18 67q11 15 29 53q4 15 12 49q1 19 13 57q11 9 30 32q8 13 5 40q-1 10 -1 18q0 13 3 20q1 2 27 56q17 35 19 58q-5 18 -8 54q2 17 18 38q20 26 24 36q14 37 16 126q-1 6 -1 15q0 10 1 22q6 12 25 17q16 3 32 5q5 1 20 6.5t21 5.5q10 0 17 -7q1 -8 10 -22
q3 -2 7 -2t12 3.5t12 3.5q11 0 11 -12q0 -5 -5 -17q-7 -15 -8 -17q-1 -8 -11 -84q-6 -45 -19 -83q-12 -22 -33 -75q0 -58 -25 -95q-11 -17 -19 -33q-5 -12 -12 -37q-1 -9 1 -28q4 -31 -28 -43q-19 -8 -23 -19q-3 -6 -3 -12q0 -7 5 -22.5t3 -24.5q-8 -16 -19 -52
q1 -18 -4 -55q0 -1 -14 -30q-5 -10 -12 -23q-16 -18 -38 -18q-6 0 -19 3t-20 3l-13.5 -4.5t-13.5 -3.5q-4 0 -8 20q-2 2 -4 2q-3 0 -11.5 -7t-11.5 -7q-6 0 -7 23z" />
    <glyph glyph-name="apple" unicode="&#xf000;" horiz-adv-x="643" 
d="M15 440q0 4 4 12.5t4 13.5q-5 22 -7 68q3 7 7 25q0 5 -3.5 15.5t-3.5 15.5q-1 10 1 29q3 9 6 18.5t1 16.5q-3 5 -8 18q-1 6 -1 12q0 9 2 20q3 5 7 19q1 3 -4 33q-1 3 -5 13q-3 7 0 11q3 3 21 2q5 -2 17 -4q-12 0 25 4q21 2 33 1q2 0 13 -5q8 -4 13 -3q7 3 24 8
q11 1 31 -3q8 -2 28 -10q4 -3 13 -10q8 -3 21 -14q0 -6 1 -19l13 -39q0 -3 -6 -13q-3 -3 -8 -14q-2 -6 -6 -19q-8 -4 -16 -14q-1 -17 15 -19q4 1 14 -1q5 -3 16 -22q3 -9 11 -26q5 -7 12 -22q1 -5 -9 -31q-4 -11 -10 -25q-1 -8 -10 -23q-4 -1 -23 -7q-4 -1 -11 -13.5
t-12 -14.5q-4 -2 -12 4t-11 5q-8 -5 -18 -9q-19 -8 -23 -7q-3 6 -13 16q-3 2 -8 2q-4 0 -9 -2q-1 -1 -13 -10q-3 -4 -11 -9q-13 -2 -15 15q0 2 -1 4q-5 5 -10 5t-10 -5q-4 -12 -18 -14q-20 -3 -24 11q-5 -4 -10 0q-4 3 -4 10zM86 636q19 1 18 2l18 -6q4 2 13 6q7 1 17 -2
q-2 9 21 9q2 0 8 -2q6 -1 17 13q6 8 17 34q2 18 -3 24q-6 1 -16 7q-2 4 -10 12q-16 8 -19 7q-4 -3 -11 -7q-4 0 -7.5 5t-5.5 6q-6 1 -14.5 -4t-12.5 -5q-3 -1 -7.5 4.5t-6.5 6.5q-4 -5 -14 -8q-2 1 -10 4q-6 2 -9 0q-3 -4 0 -11q4 -9 4 -12q0 -5 -3.5 -22.5t-1.5 -25.5
q4 -16 3 -18q-2 -4 -4 -14q22 -3 19 -3zM64 474l8 -7q5 -1 17 -1q7 0 22 3q13 7 17 7t13.5 -3t15.5 -2q5 2 17 7q8 2 16 3q4 -1 13 0q14 2 22 13q1 6 7 18q7 2 17 13q2 4 -4 21l-10 20q-1 7 -9 18q-6 0 -19 2q-3 1 -10.5 6t-12.5 5q-3 0 -8.5 -3.5t-9.5 -3.5q-3 -4 -9 -6
q-2 4 -6 8q-22 -9 -27 -8q-3 0 -11.5 8t-13.5 7q-3 -5 -13 -11q-9 -2 -19 8q-2 -1 -2 -3q-2 -5 2 -10l5 -10q2 -13 0 -26q-4 -7 -9 -23l3 -20l3 -20q-1 -5 -5 -10zM309 439q0 2 3.5 7.5t3.5 9.5q-4 7 -8 26q4 9 8 31q-4 8 -8 24q-1 5 3.5 14t4.5 14t-2.5 14t-2.5 14
q1 6 3 23q-6 25 -6 26q3 5 7 18q1 6 -4 14.5t-5 12.5q0 5 5.5 9.5t6.5 7.5q1 4 -6 13t-4 13q4 2 11 10q2 5 -4 13t-6 11q-2 16 1.5 20.5t11.5 4.5q6 0 13 -2q3 -2 12 -5q3 -1 17 4q8 -4 26 -6q5 3 19 7q4 0 10 -3.5t10 -3.5q5 -1 14.5 2.5t14.5 3.5t14.5 -3t14.5 -3
q4 0 14 4.5t16 4.5q7 -4 24 -9q-3 0 3 1t16 2t27 1q9 2 22 -2q1 -2 0 -16q1 -9 -4 -23q-6 -7 -16 -9l-20 1q-6 0 -18.5 -6t-19.5 -5q-10 4 -31 11q-16 3 -22 2q-4 -1 -12 -9.5t-13 -7.5q-5 0 -13 10t-13 10q-5 -4 -18 -9q-11 -2 -19 0q-2 0 -7 4t-9 3q-14 -4 -9 -20l5 -16
q0 -26 -6 -39q-4 -7 -4 -11q0 -11 20 -15q17 4 52 6q5 -4 19 -7q-4 0 15.5 3t28.5 3q6 -3 22 -6q-9 0 23 6q23 4 27 3q8 -5 10 -10q1 -4 -1 -15q-2 -7 -9 -19q-3 -1 -20 -7q-2 -1 -8.5 -9t-11.5 -7q-5 0 -9 7t-7 8q-5 1 -12.5 -8t-11.5 -8q-6 0 -12.5 8.5t-9.5 10.5
q-11 4 -19 4t-13 -4q-1 -8 -8 -19q-2 -2 -5 -2q-4 0 -9 4q-11 10 -15 11.5t-13 5.5q-8 3 -13 0q-5 -4 -5 -25q0 -5 4 -13.5t4 -13.5q-6 -22 -12 -41q2 -20 23 -18q6 3 20 7q5 0 14 -3.5t12 -3.5q7 -2 25 -3q10 2 33 4q29 -8 55 -6q6 1 24 3q24 2 29 -1q9 -6 12 -13
q-2 -8 -3 -20q0 -3 4.5 -9.5t4.5 -9.5q0 -6 -9 -6q-5 0 -12 2.5t-20 8.5h-42q-23 -18 -36 -12q-3 5 -13 12q-4 2 -9 2q-4 0 -7 -2q-2 -5 -10 -12q-2 -2 -16 0q-6 -2 -24 12q-6 2 -14 0q-15 -9 -29 -9q-10 -1 -13 0q-4 3 -13 9h-18l-10 -2t-10 6zM163 360q-8 12 -23 15
q-7 1 -17 -4q-13 -6 -17 -7q-10 2 -26 -2q-5 -4 -5 -15.5t-15 -17.5q-10 -5 -11 -11q-1 -5 4 -13.5t5 -12.5q1 -16 -1.5 -24.5t-11.5 -18.5q-4 -2 -11 5.5t-10 6.5l-9 -9q-5 -2 -10 -9q0 4 4 -13q-2 -7 2 -18q3 -3 8 -1q7 2 10 2q2 0 6.5 -2.5t8.5 -1.5q3 3 13 7q5 0 5 -6
q0 -2 -7 -23q-3 -4 -7 -14q-1 -6 3 -14t4 -12q-2 -8 -3 -25q2 -7 5 -23q-3 -7 -5 -24q2 -7 5 -20q-5 -11 -5 -32q6 -15 13 -15q3 3 12 7q5 -1 19 0q18 6 18 18q0 4 -6.5 16t-6.5 19q0 6 4 18t4 19q-3 9 -6 32q0 3 1 24q0 3 -3 15q-1 9 0 14q2 7 10.5 19t14.5 12
q3 0 11.5 -5.5t12.5 -5.5q15 1 19 9v17q1 4 1 9q0 6 -2 14q-4 3 -9 3q-3 0 -7 -1q-4 -4 -9 -6q-4 -2 -12.5 2t-11.5 4q-15 -5 -16 -5q-4 1 -4 7q0 7 4 15q2 1 4 3q-2 5 -3 19q8 11 21 29q3 5 9 5q4 0 7.5 -7t5.5 -9q8 -4 14 -4q5 0 8 4q0 20 -6 42zM417 346q-5 14 -28 21
h-27q-11 3 -35 8q-6 0 -18.5 3t-18.5 3q-12 0 -18 -9q-4 -22 -26 -22q-16 0 -21 -8q-2 -3 -8 -23q-9 -7 -21 -28q2 -11 3 -32q-6 -13 -10 -41q1 -6 8.5 -16.5t9.5 -15.5q1 -6 -1 -17t-2 -15q0 -17 32 -25q9 -8 32 -22q29 -14 44 -10q6 3 22 10q9 -2 39 0q14 1 34 10
q6 4 12 16q0 3 -3 8t-3 8q-1 4 4 12t3 13q-3 8 -9 11q-6 2 -11 -10t-8 -14t-33 -10q-30 -12 -38 -12q-6 0 -11 2q-8 6 -27 20q-12 3 -30 18q-4 7 -3 18q2 17 2 20q-12 30 -12 33t15 33q1 9 12 27q5 5 14 7.5t34 15.5q10 7 19 7q5 -1 14 -7t15.5 -5.5t24.5 -2.5q4 -2 9.5 -16
t10.5 -12t9 22q3 18 0 27zM452 306q-8 -12 -19 -35q-2 -6 -2 -39q-1 -6 -2 -19q-1 -12 22 -37q2 -3 6 -19q3 -12 10 -14q5 1 13 0q5 -1 13 -12t13 -9q3 5 12 13q3 1 6 1t12 -4.5t14 -3.5q24 2 39 21q3 7 11 21q2 5 16 21q10 11 10 23q-1 4 -5 24q3 14 2 41q-4 6 -13 22
q-1 2 -5 18q-2 9 -9 11h-12q-6 1 -15.5 8.5t-14.5 8.5q-19 5 -34 2q-6 -5 -22 -11q-6 2 -19 2q-6 -2 -27 -34zM482 287q5 3 14 11q2 5 11 15q8 -2 23 -3q18 9 17 9q19 0 28 -34q0 -8 1 -25q0 -2 3.5 -13t5.5 -17q3 -7 3 0q-2 0 -3 1q-6 -11 -12 -34q-3 -9 -10 -26
q-10 -14 -25 -15q-5 0 -28 12q-11 3 -28 18q0 10 -3 30q-1 4 -6 18q-4 11 -3 19q2 23 12 34zM160 63q2 14 20 17q6 1 34 1q9 0 24 -6.5t23 -7.5t16 -1q9 0 32 3q20 2 32 1q5 0 31 -8q13 -4 23 -2q10 6 33 13q13 -4 40 -6q4 1 12.5 5.5t14.5 3.5q5 -1 11.5 -9t12.5 -9
q8 -2 19 5t17 7t30 -9q5 -1 15 -6q6 -6 6 -14q0 -12 -8.5 -24.5t-20.5 -12.5q-9 0 -30 7t-30 8q-13 2 -49 6q-27 3 -46 0q-5 -1 -20 -6q-10 -5 -19 -3q-6 1 -16 11t-17 10q-6 0 -15.5 -8.5t-14.5 -9.5q-9 -2 -24 10.5t-24 10.5q-6 -4 -19 -9q-6 -2 -18 1t-18 1
q-6 -6 -21 -12q-14 -1 -26 13.5t-10 28.5zM591 125q-5 -6 -3 -16q3 -13 20 -13q28 0 28 27q0 18 -18 18q-14 0 -27 -16z" />
  </font>
</defs>
</svg>
